<svg width="430" height="257" viewBox="0 0 430 257" fill="none" xmlns="http://www.w3.org/2000/svg">
<g clip-path="url(#clip0)">
<path d="M278 161.069H12C9.23858 161.069 7 163.307 7 166.069V232.069C7 234.83 9.23858 237.069 12 237.069H278C280.761 237.069 283 234.83 283 232.069V166.069C283 163.307 280.761 161.069 278 161.069Z" fill="white"/>
<path d="M275 158.069H9C6.23858 158.069 4 160.307 4 163.069V229.069C4 231.83 6.23858 234.069 9 234.069H275C277.761 234.069 280 231.83 280 229.069V163.069C280 160.307 277.761 158.069 275 158.069Z" fill="#F5F9FF"/>
<path d="M275.615 158.68C275.564 158.352 275.432 158.043 275.23 157.78C274.845 157.18 273.305 156.28 270.611 155.98C268.953 155.774 267.279 155.724 265.611 155.83H244.052C220.572 155.83 187.085 155.83 145.514 155.98H9.25389C6.17489 156.13 3.86489 157.18 3.47989 158.386L3.47989 228.292C3.47989 229.645 6.55989 230.848 10.0239 230.848L269.457 230.848C270.644 230.783 271.814 230.529 272.921 230.096C273.683 229.847 274.353 229.375 274.846 228.743C275.231 228.292 274.846 227.691 275.231 227.089V211.002C275.231 194.764 275.616 181.534 275.616 172.513V172.817C275.616 181.988 275.616 195.069 276.001 211.306V227.39C276.059 228.015 275.925 228.643 275.616 229.19C275.034 229.965 274.227 230.542 273.306 230.844C271.94 231.326 270.516 231.629 269.072 231.744C267.532 231.894 265.993 231.744 264.453 231.744L9.25389 231.744C4.63489 231.75 0.785889 230.096 0.785889 228.292L0.785889 158.229C0.785889 156.729 4.24989 155.372 8.09889 155.072C11.9479 154.922 15.0269 155.072 18.4919 155.072H144.744C186.315 155.072 220.187 155.222 243.282 155.222H264.837C266.505 155.184 268.174 155.234 269.837 155.372C272.916 155.823 274.071 156.725 274.456 157.326C275.615 158.229 275.615 158.68 275.615 158.68Z" fill="#14365B"/>
<path d="M53.0099 190.984C53.8499 190.984 54.5899 190.884 55.2299 190.684C55.8799 190.474 56.4199 190.184 56.8499 189.814C57.2899 189.434 57.6199 188.984 57.8399 188.464C58.0599 187.944 58.1699 187.369 58.1699 186.739C58.1699 185.459 57.7499 184.494 56.9099 183.844C56.0699 183.194 54.8099 182.869 53.1299 182.869H49.9499V190.984H53.0099ZM62.9399 202.069H60.3599C59.8299 202.069 59.4399 201.864 59.1899 201.454L53.6099 193.774C53.4399 193.534 53.2549 193.364 53.0549 193.264C52.8649 193.154 52.5649 193.099 52.1549 193.099H49.9499V202.069H47.0549V180.574H53.1299C54.4899 180.574 55.6649 180.714 56.6549 180.994C57.6449 181.264 58.4599 181.659 59.0999 182.179C59.7499 182.699 60.2299 183.329 60.5399 184.069C60.8499 184.799 61.0049 185.619 61.0049 186.529C61.0049 187.289 60.8849 187.999 60.6449 188.659C60.4049 189.319 60.0549 189.914 59.5949 190.444C59.1449 190.964 58.5899 191.409 57.9299 191.779C57.2799 192.149 56.5399 192.429 55.7099 192.619C56.0799 192.829 56.3999 193.134 56.6699 193.534L62.9399 202.069Z" fill="#3D466E"/>
<path d="M74.4367 192.814C74.4367 192.194 74.3467 191.629 74.1667 191.119C73.9967 190.599 73.7417 190.154 73.4017 189.784C73.0717 189.404 72.6667 189.114 72.1867 188.914C71.7067 188.704 71.1617 188.599 70.5517 188.599C69.2717 188.599 68.2567 188.974 67.5067 189.724C66.7667 190.464 66.3067 191.494 66.1267 192.814H74.4367ZM76.5967 199.939C76.2667 200.339 75.8717 200.689 75.4117 200.989C74.9517 201.279 74.4567 201.519 73.9267 201.709C73.4067 201.899 72.8667 202.039 72.3067 202.129C71.7467 202.229 71.1917 202.279 70.6417 202.279C69.5917 202.279 68.6217 202.104 67.7317 201.754C66.8517 201.394 66.0867 200.874 65.4367 200.194C64.7967 199.504 64.2967 198.654 63.9367 197.644C63.5767 196.634 63.3967 195.474 63.3967 194.164C63.3967 193.104 63.5567 192.114 63.8767 191.194C64.2067 190.274 64.6767 189.479 65.2867 188.809C65.8967 188.129 66.6417 187.599 67.5217 187.219C68.4017 186.829 69.3917 186.634 70.4917 186.634C71.4017 186.634 72.2417 186.789 73.0117 187.099C73.7917 187.399 74.4617 187.839 75.0217 188.419C75.5917 188.989 76.0367 189.699 76.3567 190.549C76.6767 191.389 76.8367 192.349 76.8367 193.429C76.8367 193.849 76.7917 194.129 76.7017 194.269C76.6117 194.409 76.4417 194.479 76.1917 194.479H66.0367C66.0667 195.439 66.1967 196.274 66.4267 196.984C66.6667 197.694 66.9967 198.289 67.4167 198.769C67.8367 199.239 68.3367 199.594 68.9167 199.834C69.4967 200.064 70.1467 200.179 70.8667 200.179C71.5367 200.179 72.1117 200.104 72.5917 199.954C73.0817 199.794 73.5017 199.624 73.8517 199.444C74.2017 199.264 74.4917 199.099 74.7217 198.949C74.9617 198.789 75.1667 198.709 75.3367 198.709C75.5567 198.709 75.7267 198.794 75.8467 198.964L76.5967 199.939Z" fill="#3D466E"/>
<path d="M84.6642 202.309C83.4642 202.309 82.5392 201.974 81.8892 201.304C81.2492 200.634 80.9292 199.669 80.9292 198.409V189.109H79.0992C78.9392 189.109 78.8042 189.064 78.6942 188.974C78.5842 188.874 78.5292 188.724 78.5292 188.524V187.459L81.0191 187.144L81.6342 182.449C81.6642 182.299 81.7292 182.179 81.8292 182.089C81.9392 181.989 82.0792 181.939 82.2492 181.939H83.5992V187.174H87.9942V189.109H83.5992V198.229C83.5992 198.869 83.7542 199.344 84.0642 199.654C84.3742 199.964 84.7742 200.119 85.2642 200.119C85.5442 200.119 85.7842 200.084 85.9841 200.014C86.1942 199.934 86.3742 199.849 86.5242 199.759C86.6742 199.669 86.7992 199.589 86.8992 199.519C87.0092 199.439 87.1042 199.399 87.1842 199.399C87.3242 199.399 87.4492 199.484 87.5592 199.654L88.3392 200.929C87.8792 201.359 87.3242 201.699 86.6742 201.949C86.0242 202.189 85.3542 202.309 84.6642 202.309Z" fill="#3D466E"/>
<path d="M103.246 186.874V202.069H101.656C101.276 202.069 101.036 201.884 100.936 201.514L100.726 199.879C100.066 200.609 99.3261 201.199 98.5061 201.649C97.6861 202.089 96.7461 202.309 95.6861 202.309C94.8561 202.309 94.1211 202.174 93.4811 201.904C92.8511 201.624 92.3211 201.234 91.8911 200.734C91.4611 200.234 91.1361 199.629 90.9161 198.919C90.7061 198.209 90.6011 197.424 90.6011 196.564V186.874H93.2711V196.564C93.2711 197.714 93.5311 198.604 94.0511 199.234C94.5811 199.864 95.3861 200.179 96.4661 200.179C97.2561 200.179 97.9911 199.994 98.6711 199.624C99.3611 199.244 99.9961 198.724 100.576 198.064V186.874H103.246Z" fill="#3D466E"/>
<path d="M110.015 189.919C110.495 188.879 111.085 188.069 111.785 187.489C112.485 186.899 113.34 186.604 114.35 186.604C114.67 186.604 114.975 186.639 115.265 186.709C115.565 186.779 115.83 186.889 116.06 187.039L115.865 189.034C115.805 189.284 115.655 189.409 115.415 189.409C115.275 189.409 115.07 189.379 114.8 189.319C114.53 189.259 114.225 189.229 113.885 189.229C113.405 189.229 112.975 189.299 112.595 189.439C112.225 189.579 111.89 189.789 111.59 190.069C111.3 190.339 111.035 190.679 110.795 191.089C110.565 191.489 110.355 191.949 110.165 192.469V202.069H107.48V186.874H109.01C109.3 186.874 109.5 186.929 109.61 187.039C109.72 187.149 109.795 187.339 109.835 187.609L110.015 189.919Z" fill="#3D466E"/>
<path d="M120.927 189.079C121.257 188.709 121.607 188.374 121.977 188.074C122.347 187.774 122.737 187.519 123.147 187.309C123.567 187.089 124.007 186.924 124.467 186.814C124.937 186.694 125.442 186.634 125.982 186.634C126.812 186.634 127.542 186.774 128.172 187.054C128.812 187.324 129.342 187.714 129.762 188.224C130.192 188.724 130.517 189.329 130.737 190.039C130.957 190.749 131.067 191.534 131.067 192.394V202.069H128.382V192.394C128.382 191.244 128.117 190.354 127.587 189.724C127.067 189.084 126.272 188.764 125.202 188.764C124.412 188.764 123.672 188.954 122.982 189.334C122.302 189.714 121.672 190.229 121.092 190.879V202.069H118.407V186.874H120.012C120.392 186.874 120.627 187.059 120.717 187.429L120.927 189.079Z" fill="#3D466E"/>
<path d="M145.497 188.899C146.147 188.209 146.867 187.659 147.657 187.249C148.447 186.839 149.357 186.634 150.387 186.634C151.217 186.634 151.947 186.774 152.577 187.054C153.217 187.324 153.747 187.714 154.167 188.224C154.597 188.724 154.922 189.329 155.142 190.039C155.362 190.749 155.472 191.534 155.472 192.394V202.069H152.787V192.394C152.787 191.244 152.522 190.354 151.992 189.724C151.472 189.084 150.677 188.764 149.607 188.764C148.817 188.764 148.077 188.954 147.387 189.334C146.707 189.714 146.077 190.229 145.497 190.879V202.069H142.812V179.974H145.497V188.899Z" fill="#3D466E"/>
<path d="M162.36 186.874V202.069H159.69V186.874H162.36ZM162.93 182.104C162.93 182.364 162.875 182.609 162.765 182.839C162.665 183.059 162.525 183.259 162.345 183.439C162.175 183.609 161.97 183.744 161.73 183.844C161.5 183.944 161.255 183.994 160.995 183.994C160.735 183.994 160.49 183.944 160.26 183.844C160.04 183.744 159.845 183.609 159.675 183.439C159.505 183.259 159.37 183.059 159.27 182.839C159.17 182.609 159.12 182.364 159.12 182.104C159.12 181.844 159.17 181.599 159.27 181.369C159.37 181.129 159.505 180.924 159.675 180.754C159.845 180.574 160.04 180.434 160.26 180.334C160.49 180.234 160.735 180.184 160.995 180.184C161.255 180.184 161.5 180.234 161.73 180.334C161.97 180.434 162.175 180.574 162.345 180.754C162.525 180.924 162.665 181.129 162.765 181.369C162.875 181.599 162.93 181.844 162.93 182.104Z" fill="#3D466E"/>
<path d="M175.597 189.379C175.477 189.599 175.292 189.709 175.042 189.709C174.892 189.709 174.722 189.654 174.532 189.544C174.342 189.434 174.107 189.314 173.827 189.184C173.557 189.044 173.232 188.919 172.852 188.809C172.472 188.689 172.022 188.629 171.502 188.629C171.052 188.629 170.647 188.689 170.287 188.809C169.927 188.919 169.617 189.074 169.357 189.274C169.107 189.474 168.912 189.709 168.772 189.979C168.642 190.239 168.577 190.524 168.577 190.834C168.577 191.224 168.687 191.549 168.907 191.809C169.137 192.069 169.437 192.294 169.807 192.484C170.177 192.674 170.597 192.844 171.067 192.994C171.537 193.134 172.017 193.289 172.507 193.459C173.007 193.619 173.492 193.799 173.962 193.999C174.432 194.199 174.852 194.449 175.222 194.749C175.592 195.049 175.887 195.419 176.107 195.859C176.337 196.289 176.452 196.809 176.452 197.419C176.452 198.119 176.327 198.769 176.077 199.369C175.827 199.959 175.457 200.474 174.967 200.914C174.477 201.344 173.877 201.684 173.167 201.934C172.457 202.184 171.637 202.309 170.707 202.309C169.647 202.309 168.687 202.139 167.827 201.799C166.967 201.449 166.237 201.004 165.637 200.464L166.267 199.444C166.347 199.314 166.442 199.214 166.552 199.144C166.662 199.074 166.802 199.039 166.972 199.039C167.152 199.039 167.342 199.109 167.542 199.249C167.742 199.389 167.982 199.544 168.262 199.714C168.552 199.884 168.902 200.039 169.312 200.179C169.722 200.319 170.232 200.389 170.842 200.389C171.362 200.389 171.817 200.324 172.207 200.194C172.597 200.054 172.922 199.869 173.182 199.639C173.442 199.409 173.632 199.144 173.752 198.844C173.882 198.544 173.947 198.224 173.947 197.884C173.947 197.464 173.832 197.119 173.602 196.849C173.382 196.569 173.087 196.334 172.717 196.144C172.347 195.944 171.922 195.774 171.442 195.634C170.972 195.484 170.487 195.329 169.987 195.169C169.497 195.009 169.012 194.829 168.532 194.629C168.062 194.419 167.642 194.159 167.272 193.849C166.902 193.539 166.602 193.159 166.372 192.709C166.152 192.249 166.042 191.694 166.042 191.044C166.042 190.464 166.162 189.909 166.402 189.379C166.642 188.839 166.992 188.369 167.452 187.969C167.912 187.559 168.477 187.234 169.147 186.994C169.817 186.754 170.582 186.634 171.442 186.634C172.442 186.634 173.337 186.794 174.127 187.114C174.927 187.424 175.617 187.854 176.197 188.404L175.597 189.379Z" fill="#3D466E"/>
<path d="M184.391 202.309C183.191 202.309 182.266 201.974 181.616 201.304C180.976 200.634 180.656 199.669 180.656 198.409V189.109H178.826C178.666 189.109 178.531 189.064 178.421 188.974C178.311 188.874 178.256 188.724 178.256 188.524V187.459L180.746 187.144L181.361 182.449C181.391 182.299 181.456 182.179 181.556 182.089C181.666 181.989 181.806 181.939 181.976 181.939H183.326V187.174H187.721V189.109H183.326V198.229C183.326 198.869 183.481 199.344 183.791 199.654C184.101 199.964 184.501 200.119 184.991 200.119C185.271 200.119 185.511 200.084 185.711 200.014C185.921 199.934 186.101 199.849 186.251 199.759C186.401 199.669 186.526 199.589 186.626 199.519C186.736 199.439 186.831 199.399 186.911 199.399C187.051 199.399 187.176 199.484 187.286 199.654L188.066 200.929C187.606 201.359 187.051 201.699 186.401 201.949C185.751 202.189 185.081 202.309 184.391 202.309Z" fill="#3D466E"/>
<path d="M196.795 186.634C197.905 186.634 198.905 186.819 199.795 187.189C200.685 187.559 201.445 188.084 202.075 188.764C202.705 189.444 203.185 190.269 203.515 191.239C203.855 192.199 204.025 193.274 204.025 194.464C204.025 195.664 203.855 196.744 203.515 197.704C203.185 198.664 202.705 199.484 202.075 200.164C201.445 200.844 200.685 201.369 199.795 201.739C198.905 202.099 197.905 202.279 196.795 202.279C195.675 202.279 194.665 202.099 193.765 201.739C192.875 201.369 192.115 200.844 191.485 200.164C190.855 199.484 190.37 198.664 190.03 197.704C189.7 196.744 189.535 195.664 189.535 194.464C189.535 193.274 189.7 192.199 190.03 191.239C190.37 190.269 190.855 189.444 191.485 188.764C192.115 188.084 192.875 187.559 193.765 187.189C194.665 186.819 195.675 186.634 196.795 186.634ZM196.795 200.194C198.295 200.194 199.415 199.694 200.155 198.694C200.895 197.684 201.265 196.279 201.265 194.479C201.265 192.669 200.895 191.259 200.155 190.249C199.415 189.239 198.295 188.734 196.795 188.734C196.035 188.734 195.37 188.864 194.8 189.124C194.24 189.384 193.77 189.759 193.39 190.249C193.02 190.739 192.74 191.344 192.55 192.064C192.37 192.774 192.28 193.579 192.28 194.479C192.28 196.279 192.65 197.684 193.39 198.694C194.14 199.694 195.275 200.194 196.795 200.194Z" fill="#3D466E"/>
<path d="M209.946 189.919C210.426 188.879 211.016 188.069 211.716 187.489C212.416 186.899 213.271 186.604 214.281 186.604C214.601 186.604 214.906 186.639 215.196 186.709C215.496 186.779 215.761 186.889 215.991 187.039L215.796 189.034C215.736 189.284 215.586 189.409 215.346 189.409C215.206 189.409 215.001 189.379 214.731 189.319C214.461 189.259 214.156 189.229 213.816 189.229C213.336 189.229 212.906 189.299 212.526 189.439C212.156 189.579 211.821 189.789 211.521 190.069C211.231 190.339 210.966 190.679 210.726 191.089C210.496 191.489 210.286 191.949 210.096 192.469V202.069H207.411V186.874H208.941C209.231 186.874 209.431 186.929 209.541 187.039C209.651 187.149 209.726 187.339 209.766 187.609L209.946 189.919Z" fill="#3D466E"/>
<path d="M231.449 186.874L222.974 206.554C222.884 206.754 222.769 206.914 222.629 207.034C222.499 207.154 222.294 207.214 222.014 207.214H220.034L222.809 201.184L216.539 186.874H218.849C219.079 186.874 219.259 186.934 219.389 187.054C219.529 187.164 219.624 187.289 219.674 187.429L223.739 196.999C223.899 197.419 224.034 197.859 224.144 198.319C224.284 197.849 224.434 197.404 224.594 196.984L228.539 187.429C228.599 187.269 228.699 187.139 228.839 187.039C228.989 186.929 229.154 186.874 229.334 186.874H231.449Z" fill="#3D466E"/>
<path d="M303 6.06891H108C105.239 6.06891 103 8.30748 103 11.0689V66.0689C103 68.8303 105.239 71.0689 108 71.0689H303C305.761 71.0689 308 68.8303 308 66.0689V11.0689C308 8.30748 305.761 6.06891 303 6.06891Z" fill="white"/>
<path d="M300 3.06891H105C102.239 3.06891 100 5.30748 100 8.06891V63.0689C100 65.8303 102.239 68.0689 105 68.0689H300C302.761 68.0689 305 65.8303 305 63.0689V8.06891C305 5.30748 302.761 3.06891 300 3.06891Z" fill="#F5F9FF"/>
<path d="M301.152 3.13397C301.116 2.85924 301.017 2.59631 300.865 2.36497C300.578 1.85197 299.431 1.08297 297.423 0.825974C296.188 0.649942 294.938 0.607031 293.694 0.697975H277.634C260.134 0.697975 235.186 0.697974 204.211 0.825974H102.68C100.386 0.953974 98.6649 1.85197 98.3799 2.87797V62.509C98.3779 63.664 100.67 64.69 103.253 64.69L296.563 64.69C297.455 64.6329 298.329 64.4158 299.144 64.049C299.729 63.8214 300.23 63.4184 300.578 62.895C300.865 62.51 300.578 61.995 300.865 61.484V47.762C300.865 33.912 301.152 22.627 301.152 14.932V15.188C301.152 23.011 301.152 34.168 301.439 48.018V61.74C301.484 62.2695 301.384 62.8012 301.152 63.279C300.742 63.9193 300.139 64.4132 299.431 64.69C298.423 65.0994 297.36 65.3585 296.276 65.459C295.129 65.5231 293.98 65.5231 292.834 65.459L102.68 65.459C99.2379 65.459 96.3699 64.048 96.3699 62.509V2.74897C96.3699 1.46697 98.9509 0.315977 101.819 0.0559769C104.687 -0.0720231 106.982 0.0559769 109.563 0.0559769H203.637C234.613 0.0559769 259.852 0.183975 277.06 0.183975H293.121C294.365 0.151695 295.611 0.194437 296.85 0.311974C299.144 0.696974 300.005 1.46597 300.292 1.97897C301.152 2.74897 301.152 3.13397 301.152 3.13397Z" fill="#14365B"/>
<path d="M131.792 31.2009C132.464 31.2009 133.056 31.1209 133.568 30.9609C134.088 30.7929 134.52 30.5609 134.864 30.2649C135.216 29.9609 135.48 29.6009 135.656 29.1849C135.832 28.7689 135.92 28.3089 135.92 27.8049C135.92 26.7809 135.584 26.0089 134.912 25.4889C134.24 24.9689 133.232 24.7089 131.888 24.7089H129.344V31.2009H131.792ZM139.736 40.0689H137.672C137.248 40.0689 136.936 39.9049 136.736 39.5769L132.272 33.4329C132.136 33.2409 131.988 33.1049 131.828 33.0249C131.676 32.9369 131.436 32.8929 131.108 32.8929H129.344V40.0689H127.028V22.8729H131.888C132.976 22.8729 133.916 22.9849 134.708 23.2089C135.5 23.4249 136.152 23.7409 136.664 24.1569C137.184 24.5729 137.568 25.0769 137.816 25.6689C138.064 26.2529 138.188 26.9089 138.188 27.6369C138.188 28.2449 138.092 28.8129 137.9 29.3409C137.708 29.8689 137.428 30.3449 137.06 30.7689C136.7 31.1849 136.256 31.5409 135.728 31.8369C135.208 32.1329 134.616 32.3569 133.952 32.5089C134.248 32.6769 134.504 32.9209 134.72 33.2409L139.736 40.0689Z" fill="#3D466E"/>
<path d="M148.933 32.6649C148.933 32.1689 148.861 31.7169 148.717 31.3089C148.581 30.8929 148.377 30.5369 148.105 30.2409C147.841 29.9369 147.517 29.7049 147.133 29.5449C146.749 29.3769 146.313 29.2929 145.825 29.2929C144.801 29.2929 143.989 29.5929 143.389 30.1929C142.797 30.7849 142.429 31.6089 142.285 32.6649H148.933ZM150.661 38.3649C150.397 38.6849 150.081 38.9649 149.713 39.2049C149.345 39.4369 148.949 39.6289 148.525 39.7809C148.109 39.9329 147.677 40.0449 147.229 40.1169C146.781 40.1969 146.337 40.2369 145.897 40.2369C145.057 40.2369 144.281 40.0969 143.569 39.8169C142.865 39.5289 142.253 39.1129 141.733 38.5689C141.221 38.0169 140.821 37.3369 140.533 36.5289C140.245 35.7209 140.101 34.7929 140.101 33.7449C140.101 32.8969 140.229 32.1049 140.485 31.3689C140.749 30.6329 141.125 29.9969 141.613 29.4609C142.101 28.9169 142.697 28.4929 143.401 28.1889C144.105 27.8769 144.897 27.7209 145.777 27.7209C146.505 27.7209 147.177 27.8449 147.793 28.0929C148.417 28.3329 148.953 28.6849 149.401 29.1489C149.857 29.6049 150.213 30.1729 150.469 30.8529C150.725 31.5249 150.853 32.2929 150.853 33.1569C150.853 33.4929 150.817 33.7169 150.745 33.8289C150.673 33.9409 150.537 33.9969 150.337 33.9969H142.213C142.237 34.7649 142.341 35.4329 142.525 36.0009C142.717 36.5689 142.981 37.0449 143.317 37.4289C143.653 37.8049 144.053 38.0889 144.517 38.2809C144.981 38.4649 145.501 38.5569 146.077 38.5569C146.613 38.5569 147.073 38.4969 147.457 38.3769C147.849 38.2489 148.185 38.1129 148.465 37.9689C148.745 37.8249 148.977 37.6929 149.161 37.5729C149.353 37.4449 149.517 37.3809 149.653 37.3809C149.829 37.3809 149.965 37.4489 150.061 37.5849L150.661 38.3649Z" fill="#3D466E"/>
<path d="M157.115 40.2609C156.155 40.2609 155.415 39.9929 154.895 39.4569C154.383 38.9209 154.127 38.1489 154.127 37.1409V29.7009H152.663C152.535 29.7009 152.427 29.6649 152.339 29.5929C152.251 29.5129 152.207 29.3929 152.207 29.2329V28.3809L154.199 28.1289L154.691 24.3729C154.715 24.2529 154.767 24.1569 154.847 24.0849C154.935 24.0049 155.047 23.9649 155.183 23.9649H156.263V28.1529H159.779V29.7009H156.263V36.9969C156.263 37.5089 156.387 37.8889 156.635 38.1369C156.883 38.3849 157.203 38.5089 157.595 38.5089C157.819 38.5089 158.011 38.4809 158.171 38.4249C158.339 38.3609 158.483 38.2929 158.603 38.2209C158.723 38.1489 158.823 38.0849 158.903 38.0289C158.991 37.9649 159.067 37.9329 159.131 37.9329C159.243 37.9329 159.343 38.0009 159.431 38.1369L160.055 39.1569C159.687 39.5009 159.243 39.7729 158.723 39.9729C158.203 40.1649 157.667 40.2609 157.115 40.2609Z" fill="#3D466E"/>
<path d="M171.981 27.9129V40.0689H170.709C170.405 40.0689 170.213 39.9209 170.133 39.6249L169.965 38.3169C169.437 38.9009 168.845 39.3729 168.189 39.7329C167.533 40.0849 166.781 40.2609 165.933 40.2609C165.269 40.2609 164.681 40.1529 164.169 39.9369C163.665 39.7129 163.241 39.4009 162.897 39.0009C162.553 38.6009 162.293 38.1169 162.117 37.5489C161.949 36.9809 161.865 36.3529 161.865 35.6649V27.9129H164.001V35.6649C164.001 36.5849 164.209 37.2969 164.625 37.8009C165.049 38.3049 165.693 38.5569 166.557 38.5569C167.189 38.5569 167.777 38.4089 168.321 38.1129C168.873 37.8089 169.381 37.3929 169.845 36.8649V27.9129H171.981Z" fill="#3D466E"/>
<path d="M177.396 30.3489C177.78 29.5169 178.252 28.8689 178.812 28.4049C179.372 27.9329 180.056 27.6969 180.864 27.6969C181.12 27.6969 181.364 27.7249 181.596 27.7809C181.836 27.8369 182.048 27.9249 182.232 28.0449L182.076 29.6409C182.028 29.8409 181.908 29.9409 181.716 29.9409C181.604 29.9409 181.44 29.9169 181.224 29.8689C181.008 29.8209 180.764 29.7969 180.492 29.7969C180.108 29.7969 179.764 29.8529 179.46 29.9649C179.164 30.0769 178.896 30.2449 178.656 30.4689C178.424 30.6849 178.212 30.9569 178.02 31.2849C177.836 31.6049 177.668 31.9729 177.516 32.3889V40.0689H175.368V27.9129H176.592C176.824 27.9129 176.984 27.9569 177.072 28.0449C177.16 28.1329 177.22 28.2849 177.252 28.5009L177.396 30.3489Z" fill="#3D466E"/>
<path d="M186.126 29.6769C186.39 29.3809 186.67 29.1129 186.966 28.8729C187.262 28.6329 187.574 28.4289 187.902 28.2609C188.238 28.0849 188.59 27.9529 188.958 27.8649C189.334 27.7689 189.738 27.7209 190.17 27.7209C190.834 27.7209 191.418 27.8329 191.922 28.0569C192.434 28.2729 192.858 28.5849 193.194 28.9929C193.538 29.3929 193.798 29.8769 193.974 30.4449C194.15 31.0129 194.238 31.6409 194.238 32.3289V40.0689H192.09V32.3289C192.09 31.4089 191.878 30.6969 191.454 30.1929C191.038 29.6809 190.402 29.4249 189.546 29.4249C188.914 29.4249 188.322 29.5769 187.77 29.8809C187.226 30.1849 186.722 30.5969 186.258 31.1169V40.0689H184.11V27.9129H185.394C185.698 27.9129 185.886 28.0609 185.958 28.3569L186.126 29.6769Z" fill="#3D466E"/>
<path d="M205.661 30.3489C206.045 29.5169 206.517 28.8689 207.077 28.4049C207.637 27.9329 208.321 27.6969 209.129 27.6969C209.385 27.6969 209.629 27.7249 209.861 27.7809C210.101 27.8369 210.313 27.9249 210.497 28.0449L210.341 29.6409C210.293 29.8409 210.173 29.9409 209.981 29.9409C209.869 29.9409 209.705 29.9169 209.489 29.8689C209.273 29.8209 209.029 29.7969 208.757 29.7969C208.373 29.7969 208.029 29.8529 207.725 29.9649C207.429 30.0769 207.161 30.2449 206.921 30.4689C206.689 30.6849 206.477 30.9569 206.285 31.2849C206.101 31.6049 205.933 31.9729 205.781 32.3889V40.0689H203.633V27.9129H204.857C205.089 27.9129 205.249 27.9569 205.337 28.0449C205.425 28.1329 205.485 28.2849 205.517 28.5009L205.661 30.3489Z" fill="#3D466E"/>
<path d="M220.019 32.6649C220.019 32.1689 219.947 31.7169 219.803 31.3089C219.667 30.8929 219.463 30.5369 219.191 30.2409C218.927 29.9369 218.603 29.7049 218.219 29.5449C217.835 29.3769 217.399 29.2929 216.911 29.2929C215.887 29.2929 215.075 29.5929 214.475 30.1929C213.883 30.7849 213.515 31.6089 213.371 32.6649H220.019ZM221.747 38.3649C221.483 38.6849 221.167 38.9649 220.799 39.2049C220.431 39.4369 220.035 39.6289 219.611 39.7809C219.195 39.9329 218.763 40.0449 218.315 40.1169C217.867 40.1969 217.423 40.2369 216.983 40.2369C216.143 40.2369 215.367 40.0969 214.655 39.8169C213.951 39.5289 213.339 39.1129 212.819 38.5689C212.307 38.0169 211.907 37.3369 211.619 36.5289C211.331 35.7209 211.187 34.7929 211.187 33.7449C211.187 32.8969 211.315 32.1049 211.571 31.3689C211.835 30.6329 212.211 29.9969 212.699 29.4609C213.187 28.9169 213.783 28.4929 214.487 28.1889C215.191 27.8769 215.983 27.7209 216.863 27.7209C217.591 27.7209 218.263 27.8449 218.879 28.0929C219.503 28.3329 220.039 28.6849 220.487 29.1489C220.943 29.6049 221.299 30.1729 221.555 30.8529C221.811 31.5249 221.939 32.2929 221.939 33.1569C221.939 33.4929 221.903 33.7169 221.831 33.8289C221.759 33.9409 221.623 33.9969 221.423 33.9969H213.299C213.323 34.7649 213.427 35.4329 213.611 36.0009C213.803 36.5689 214.067 37.0449 214.403 37.4289C214.739 37.8049 215.139 38.0889 215.603 38.2809C216.067 38.4649 216.587 38.5569 217.163 38.5569C217.699 38.5569 218.159 38.4969 218.543 38.3769C218.935 38.2489 219.271 38.1129 219.551 37.9689C219.831 37.8249 220.063 37.6929 220.247 37.5729C220.439 37.4449 220.603 37.3809 220.739 37.3809C220.915 37.3809 221.051 37.4489 221.147 37.5849L221.747 38.3649Z" fill="#3D466E"/>
<path d="M231.151 34.5969C230.167 34.6289 229.327 34.7089 228.631 34.8369C227.943 34.9569 227.379 35.1169 226.939 35.3169C226.507 35.5169 226.191 35.7529 225.991 36.0249C225.799 36.2969 225.703 36.6009 225.703 36.9369C225.703 37.2569 225.755 37.5329 225.859 37.7649C225.963 37.9969 226.103 38.1889 226.279 38.3409C226.463 38.4849 226.675 38.5929 226.915 38.6649C227.163 38.7289 227.427 38.7609 227.707 38.7609C228.083 38.7609 228.427 38.7249 228.739 38.6529C229.051 38.5729 229.343 38.4609 229.615 38.3169C229.895 38.1729 230.159 38.0009 230.407 37.8009C230.663 37.6009 230.911 37.3729 231.151 37.1169V34.5969ZM224.251 29.6289C224.923 28.9809 225.647 28.4969 226.423 28.1769C227.199 27.8569 228.059 27.6969 229.003 27.6969C229.683 27.6969 230.287 27.8089 230.815 28.0329C231.343 28.2569 231.787 28.5689 232.147 28.9689C232.507 29.3689 232.779 29.8529 232.963 30.4209C233.147 30.9889 233.239 31.6129 233.239 32.2929V40.0689H232.291C232.083 40.0689 231.923 40.0369 231.811 39.9729C231.699 39.9009 231.611 39.7649 231.547 39.5649L231.307 38.4129C230.987 38.7089 230.675 38.9729 230.371 39.2049C230.067 39.4289 229.747 39.6209 229.411 39.7809C229.075 39.9329 228.715 40.0489 228.331 40.1289C227.955 40.2169 227.535 40.2609 227.071 40.2609C226.599 40.2609 226.155 40.1969 225.739 40.0689C225.323 39.9329 224.959 39.7329 224.647 39.4689C224.343 39.2049 224.099 38.8729 223.915 38.4729C223.739 38.0649 223.651 37.5849 223.651 37.0329C223.651 36.5529 223.783 36.0929 224.047 35.6529C224.311 35.2049 224.739 34.8089 225.331 34.4649C225.923 34.1209 226.695 33.8409 227.647 33.6249C228.599 33.4009 229.767 33.2729 231.151 33.2409V32.2929C231.151 31.3489 230.947 30.6369 230.539 30.1569C230.131 29.6689 229.535 29.4249 228.751 29.4249C228.223 29.4249 227.779 29.4929 227.419 29.6289C227.067 29.7569 226.759 29.9049 226.495 30.0729C226.239 30.2329 226.015 30.3809 225.823 30.5169C225.639 30.6449 225.455 30.7089 225.271 30.7089C225.127 30.7089 225.003 30.6729 224.899 30.6009C224.795 30.5209 224.707 30.4249 224.635 30.3129L224.251 29.6289Z" fill="#3D466E"/>
<path d="M243.573 29.9169C243.477 30.0929 243.329 30.1809 243.129 30.1809C243.009 30.1809 242.873 30.1369 242.721 30.0489C242.569 29.9609 242.381 29.8649 242.157 29.7609C241.941 29.6489 241.681 29.5489 241.377 29.4609C241.073 29.3649 240.713 29.3169 240.297 29.3169C239.937 29.3169 239.613 29.3649 239.325 29.4609C239.037 29.5489 238.789 29.6729 238.581 29.8329C238.381 29.9929 238.225 30.1809 238.113 30.3969C238.009 30.6049 237.957 30.8329 237.957 31.0809C237.957 31.3929 238.045 31.6529 238.221 31.8609C238.405 32.0689 238.645 32.2489 238.941 32.4009C239.237 32.5529 239.573 32.6889 239.949 32.8089C240.325 32.9209 240.709 33.0449 241.101 33.1809C241.501 33.3089 241.889 33.4529 242.265 33.6129C242.641 33.7729 242.977 33.9729 243.273 34.2129C243.569 34.4529 243.805 34.7489 243.981 35.1009C244.165 35.4449 244.257 35.8609 244.257 36.3489C244.257 36.9089 244.157 37.4289 243.957 37.9089C243.757 38.3809 243.461 38.7929 243.069 39.1449C242.677 39.4889 242.197 39.7609 241.629 39.9609C241.061 40.1609 240.405 40.2609 239.661 40.2609C238.813 40.2609 238.045 40.1249 237.357 39.8529C236.669 39.5729 236.085 39.2169 235.605 38.7849L236.109 37.9689C236.173 37.8649 236.249 37.7849 236.337 37.7289C236.425 37.6729 236.537 37.6449 236.673 37.6449C236.817 37.6449 236.969 37.7009 237.129 37.8129C237.289 37.9249 237.481 38.0489 237.705 38.1849C237.937 38.3209 238.217 38.4449 238.545 38.5569C238.873 38.6689 239.281 38.7249 239.769 38.7249C240.185 38.7249 240.549 38.6729 240.861 38.5689C241.173 38.4569 241.433 38.3089 241.641 38.1249C241.849 37.9409 242.001 37.7289 242.097 37.4889C242.201 37.2489 242.253 36.9929 242.253 36.7209C242.253 36.3849 242.161 36.1089 241.977 35.8929C241.801 35.6689 241.565 35.4809 241.269 35.3289C240.973 35.1689 240.633 35.0329 240.249 34.9209C239.873 34.8009 239.485 34.6769 239.085 34.5489C238.693 34.4209 238.305 34.2769 237.921 34.1169C237.545 33.9489 237.209 33.7409 236.913 33.4929C236.617 33.2449 236.377 32.9409 236.193 32.5809C236.017 32.2129 235.929 31.7689 235.929 31.2489C235.929 30.7849 236.025 30.3409 236.217 29.9169C236.409 29.4849 236.689 29.1089 237.057 28.7889C237.425 28.4609 237.877 28.2009 238.413 28.0089C238.949 27.8169 239.561 27.7209 240.249 27.7209C241.049 27.7209 241.765 27.8489 242.397 28.1049C243.037 28.3529 243.589 28.6969 244.053 29.1369L243.573 29.9169Z" fill="#3D466E"/>
<path d="M251.999 27.7209C252.887 27.7209 253.687 27.8689 254.399 28.1649C255.111 28.4609 255.719 28.8809 256.223 29.4249C256.727 29.9689 257.111 30.6289 257.375 31.4049C257.647 32.1729 257.783 33.0329 257.783 33.9849C257.783 34.9449 257.647 35.8089 257.375 36.5769C257.111 37.3449 256.727 38.0009 256.223 38.5449C255.719 39.0889 255.111 39.5089 254.399 39.8049C253.687 40.0929 252.887 40.2369 251.999 40.2369C251.103 40.2369 250.295 40.0929 249.575 39.8049C248.863 39.5089 248.255 39.0889 247.751 38.5449C247.247 38.0009 246.859 37.3449 246.587 36.5769C246.323 35.8089 246.191 34.9449 246.191 33.9849C246.191 33.0329 246.323 32.1729 246.587 31.4049C246.859 30.6289 247.247 29.9689 247.751 29.4249C248.255 28.8809 248.863 28.4609 249.575 28.1649C250.295 27.8689 251.103 27.7209 251.999 27.7209ZM251.999 38.5689C253.199 38.5689 254.095 38.1689 254.687 37.3689C255.279 36.5609 255.575 35.4369 255.575 33.9969C255.575 32.5489 255.279 31.4209 254.687 30.6129C254.095 29.8049 253.199 29.4009 251.999 29.4009C251.391 29.4009 250.859 29.5049 250.403 29.7129C249.955 29.9209 249.579 30.2209 249.275 30.6129C248.979 31.0049 248.755 31.4889 248.603 32.0649C248.459 32.6329 248.387 33.2769 248.387 33.9969C248.387 35.4369 248.683 36.5609 249.275 37.3689C249.875 38.1689 250.783 38.5689 251.999 38.5689Z" fill="#3D466E"/>
<path d="M262.509 29.6769C262.773 29.3809 263.053 29.1129 263.349 28.8729C263.645 28.6329 263.957 28.4289 264.285 28.2609C264.621 28.0849 264.973 27.9529 265.341 27.8649C265.717 27.7689 266.121 27.7209 266.553 27.7209C267.217 27.7209 267.801 27.8329 268.305 28.0569C268.817 28.2729 269.241 28.5849 269.577 28.9929C269.921 29.3929 270.181 29.8769 270.357 30.4449C270.533 31.0129 270.621 31.6409 270.621 32.3289V40.0689H268.473V32.3289C268.473 31.4089 268.261 30.6969 267.837 30.1929C267.421 29.6809 266.785 29.4249 265.929 29.4249C265.297 29.4249 264.705 29.5769 264.153 29.8809C263.609 30.1849 263.105 30.5969 262.641 31.1169V40.0689H260.493V27.9129H261.777C262.081 27.9129 262.269 28.0609 262.341 28.3569L262.509 29.6769Z" fill="#3D466E"/>
<path d="M255 64.069H45C42.2386 64.069 40 66.3075 40 69.069V129.069C40 131.83 42.2386 134.069 45 134.069H255C257.761 134.069 260 131.83 260 129.069V69.069C260 66.3075 257.761 64.069 255 64.069Z" fill="white"/>
<path d="M252 61.069H42C39.2386 61.069 37 63.3075 37 66.069V126.069C37 128.83 39.2386 131.069 42 131.069H252C254.761 131.069 257 128.83 257 126.069V66.069C257 63.3075 254.761 61.069 252 61.069Z" fill="#F5F9FF"/>
<path d="M252.668 61.3521C252.629 61.0577 252.524 60.776 252.361 60.5281C252.054 59.9791 250.825 59.1551 248.676 58.8801C247.354 58.6917 246.016 58.6458 244.684 58.7431H227.484C208.751 58.7431 182.033 58.7431 148.866 58.8801H40.152C37.695 59.0171 35.852 59.9801 35.545 61.0801L35.545 124.933C35.546 126.169 38.003 127.267 40.766 127.267L247.754 127.267C248.709 127.206 249.645 126.973 250.518 126.58C251.145 126.336 251.682 125.905 252.054 125.344C252.361 124.932 252.054 124.383 252.361 123.834V109.142C252.361 94.3121 252.668 82.2281 252.668 73.9891V74.2641C252.668 82.6401 252.668 94.5871 252.975 109.417V124.109C253.023 124.676 252.917 125.245 252.668 125.757C252.228 126.442 251.583 126.971 250.825 127.267C249.745 127.706 248.607 127.983 247.447 128.091C246.22 128.16 244.989 128.16 243.762 128.091H40.152C36.467 128.091 33.396 126.581 33.396 124.933L33.396 60.9441C33.396 59.5711 36.16 58.3351 39.231 58.0601C42.302 57.9231 44.759 58.0601 47.523 58.0601H148.253C181.42 58.0601 208.445 58.1971 226.871 58.1971H244.071C245.403 58.1625 246.736 58.2083 248.063 58.3341C250.52 58.7461 251.441 59.5701 251.748 60.1191C252.668 60.9441 252.668 61.3521 252.668 61.3521Z" fill="#14365B"/>
<path d="M53.474 97.2209C54.138 97.2209 54.71 97.1449 55.19 96.9929C55.67 96.8409 56.062 96.6289 56.366 96.3569C56.678 96.0769 56.906 95.7489 57.05 95.3729C57.194 94.9889 57.266 94.5689 57.266 94.1129C57.266 93.2249 56.95 92.5249 56.318 92.0129C55.686 91.4929 54.738 91.2329 53.474 91.2329H49.754V97.2209H53.474ZM49.754 83.7089V89.5769H52.826C53.482 89.5769 54.05 89.5049 54.53 89.3609C55.018 89.2169 55.418 89.0169 55.73 88.7609C56.05 88.5049 56.286 88.1969 56.438 87.8369C56.59 87.4689 56.666 87.0689 56.666 86.6369C56.666 85.6209 56.362 84.8809 55.754 84.4169C55.146 83.9449 54.202 83.7089 52.922 83.7089H49.754ZM52.922 81.8729C53.978 81.8729 54.886 81.9769 55.646 82.1849C56.414 82.3929 57.042 82.6889 57.53 83.0729C58.026 83.4569 58.39 83.9289 58.622 84.4889C58.854 85.0409 58.97 85.6649 58.97 86.3609C58.97 86.7849 58.902 87.1929 58.766 87.5849C58.638 87.9689 58.442 88.3289 58.178 88.6649C57.914 89.0009 57.578 89.3049 57.17 89.5769C56.77 89.8409 56.298 90.0569 55.754 90.2249C57.018 90.4649 57.966 90.9169 58.598 91.5809C59.238 92.2369 59.558 93.1009 59.558 94.1729C59.558 94.9009 59.422 95.5649 59.15 96.1649C58.886 96.7649 58.494 97.2809 57.974 97.7129C57.462 98.1449 56.83 98.4809 56.078 98.7209C55.326 98.9529 54.47 99.0689 53.51 99.0689H47.438V81.8729H52.922Z" fill="#3D466E"/>
<path d="M64.2198 89.3489C64.6038 88.5169 65.0758 87.8689 65.6358 87.4049C66.1958 86.9329 66.8798 86.6969 67.6878 86.6969C67.9438 86.6969 68.1878 86.7249 68.4198 86.7809C68.6598 86.8369 68.8718 86.9249 69.0558 87.0449L68.8998 88.6409C68.8518 88.8409 68.7318 88.9409 68.5398 88.9409C68.4278 88.9409 68.2638 88.9169 68.0478 88.8689C67.8318 88.8209 67.5878 88.7969 67.3158 88.7969C66.9318 88.7969 66.5878 88.8529 66.2838 88.9649C65.9878 89.0769 65.7198 89.2449 65.4798 89.4689C65.2478 89.6849 65.0358 89.9569 64.8438 90.2849C64.6598 90.6049 64.4918 90.9729 64.3398 91.3889V99.0689H62.1918V86.9129H63.4158C63.6478 86.9129 63.8078 86.9569 63.8958 87.0449C63.9838 87.1329 64.0438 87.2849 64.0758 87.5009L64.2198 89.3489Z" fill="#3D466E"/>
<path d="M75.5658 86.7209C76.4538 86.7209 77.2538 86.8689 77.9658 87.1649C78.6778 87.4609 79.2858 87.8809 79.7898 88.4249C80.2938 88.9689 80.6778 89.6289 80.9418 90.4049C81.2138 91.1729 81.3498 92.0329 81.3498 92.9849C81.3498 93.9449 81.2138 94.8089 80.9418 95.5769C80.6778 96.3449 80.2938 97.0009 79.7898 97.5449C79.2858 98.0889 78.6778 98.5089 77.9658 98.8049C77.2538 99.0929 76.4538 99.2369 75.5658 99.2369C74.6698 99.2369 73.8618 99.0929 73.1418 98.8049C72.4298 98.5089 71.8218 98.0889 71.3178 97.5449C70.8138 97.0009 70.4258 96.3449 70.1538 95.5769C69.8898 94.8089 69.7578 93.9449 69.7578 92.9849C69.7578 92.0329 69.8898 91.1729 70.1538 90.4049C70.4258 89.6289 70.8138 88.9689 71.3178 88.4249C71.8218 87.8809 72.4298 87.4609 73.1418 87.1649C73.8618 86.8689 74.6698 86.7209 75.5658 86.7209ZM75.5658 97.5689C76.7658 97.5689 77.6618 97.1689 78.2538 96.3689C78.8458 95.5609 79.1418 94.4369 79.1418 92.9969C79.1418 91.5489 78.8458 90.4209 78.2538 89.6129C77.6618 88.8049 76.7658 88.4009 75.5658 88.4009C74.9578 88.4009 74.4258 88.5049 73.9698 88.7129C73.5218 88.9209 73.1458 89.2209 72.8418 89.6129C72.5458 90.0049 72.3218 90.4889 72.1698 91.0649C72.0258 91.6329 71.9538 92.2769 71.9538 92.9969C71.9538 94.4369 72.2498 95.5609 72.8418 96.3689C73.4418 97.1689 74.3498 97.5689 75.5658 97.5689Z" fill="#3D466E"/>
<path d="M100.635 86.9129L96.6995 99.0689H95.0075C94.7995 99.0689 94.6555 98.9329 94.5755 98.6609L91.8875 90.4169C91.8235 90.2329 91.7715 90.0489 91.7315 89.8649C91.6915 89.6729 91.6515 89.4849 91.6115 89.3009C91.5715 89.4849 91.5315 89.6729 91.4915 89.8649C91.4515 90.0489 91.3995 90.2369 91.3355 90.4289L88.5995 98.6609C88.5275 98.9329 88.3675 99.0689 88.1195 99.0689H86.5115L82.5755 86.9129H84.2555C84.4235 86.9129 84.5635 86.9569 84.6755 87.0449C84.7955 87.1329 84.8755 87.2369 84.9155 87.3569L87.2435 95.1809C87.3795 95.7569 87.4875 96.3009 87.5675 96.8129C87.6395 96.5489 87.7115 96.2809 87.7835 96.0089C87.8635 95.7369 87.9475 95.4609 88.0355 95.1809L90.6035 87.3089C90.6435 87.1889 90.7115 87.0889 90.8075 87.0089C90.9115 86.9289 91.0355 86.8889 91.1795 86.8889H92.1155C92.2755 86.8889 92.4075 86.9289 92.5115 87.0089C92.6155 87.0889 92.6875 87.1889 92.7275 87.3089L95.2355 95.1809C95.3235 95.4609 95.4035 95.7369 95.4755 96.0089C95.5475 96.2809 95.6155 96.5489 95.6795 96.8129C95.7195 96.5489 95.7675 96.2849 95.8235 96.0209C95.8875 95.7489 95.9555 95.4689 96.0275 95.1809L98.4035 87.3569C98.4435 87.2289 98.5195 87.1249 98.6315 87.0449C98.7435 86.9569 98.8755 86.9129 99.0275 86.9129H100.635Z" fill="#3D466E"/>
<path d="M109.701 88.9169C109.605 89.0929 109.457 89.1809 109.257 89.1809C109.137 89.1809 109.001 89.1369 108.849 89.0489C108.697 88.9609 108.509 88.8649 108.285 88.7609C108.069 88.6489 107.809 88.5489 107.505 88.4609C107.201 88.3649 106.841 88.3169 106.425 88.3169C106.065 88.3169 105.741 88.3649 105.453 88.4609C105.165 88.5489 104.917 88.6729 104.709 88.8329C104.509 88.9929 104.353 89.1809 104.241 89.3969C104.137 89.6049 104.085 89.8329 104.085 90.0809C104.085 90.3929 104.173 90.6529 104.349 90.8609C104.533 91.0689 104.773 91.2489 105.069 91.4009C105.365 91.5529 105.701 91.6889 106.077 91.8089C106.453 91.9209 106.837 92.0449 107.229 92.1809C107.629 92.3089 108.017 92.4529 108.393 92.6129C108.769 92.7729 109.105 92.9729 109.401 93.2129C109.697 93.4529 109.933 93.7489 110.109 94.1009C110.293 94.4449 110.385 94.8609 110.385 95.3489C110.385 95.9089 110.285 96.4289 110.085 96.9089C109.885 97.3809 109.589 97.7929 109.197 98.1449C108.805 98.4889 108.325 98.7609 107.757 98.9609C107.189 99.1609 106.533 99.2609 105.789 99.2609C104.941 99.2609 104.173 99.1249 103.485 98.8529C102.797 98.5729 102.213 98.2169 101.733 97.7849L102.237 96.9689C102.301 96.8649 102.377 96.7849 102.465 96.7289C102.553 96.6729 102.665 96.6449 102.801 96.6449C102.945 96.6449 103.097 96.7009 103.257 96.8129C103.417 96.9249 103.609 97.0489 103.833 97.1849C104.065 97.3209 104.345 97.4449 104.673 97.5569C105.001 97.6689 105.409 97.7249 105.897 97.7249C106.313 97.7249 106.677 97.6729 106.989 97.5689C107.301 97.4569 107.561 97.3089 107.769 97.1249C107.977 96.9409 108.129 96.7289 108.225 96.4889C108.329 96.2489 108.381 95.9929 108.381 95.7209C108.381 95.3849 108.289 95.1089 108.105 94.8929C107.929 94.6689 107.693 94.4809 107.397 94.3289C107.101 94.1689 106.761 94.0329 106.377 93.9209C106.001 93.8009 105.613 93.6769 105.213 93.5489C104.821 93.4209 104.433 93.2769 104.049 93.1169C103.673 92.9489 103.337 92.7409 103.041 92.4929C102.745 92.2449 102.505 91.9409 102.321 91.5809C102.145 91.2129 102.057 90.7689 102.057 90.2489C102.057 89.7849 102.153 89.3409 102.345 88.9169C102.537 88.4849 102.817 88.1089 103.185 87.7889C103.553 87.4609 104.005 87.2009 104.541 87.0089C105.077 86.8169 105.689 86.7209 106.377 86.7209C107.177 86.7209 107.893 86.8489 108.525 87.1049C109.165 87.3529 109.717 87.6969 110.181 88.1369L109.701 88.9169Z" fill="#3D466E"/>
<path d="M115.26 86.9129V99.0689H113.124V86.9129H115.26ZM115.716 83.0969C115.716 83.3049 115.672 83.5009 115.584 83.6849C115.504 83.8609 115.392 84.0209 115.248 84.1649C115.112 84.3009 114.948 84.4089 114.756 84.4889C114.572 84.5689 114.376 84.6089 114.168 84.6089C113.96 84.6089 113.764 84.5689 113.58 84.4889C113.404 84.4089 113.248 84.3009 113.112 84.1649C112.976 84.0209 112.868 83.8609 112.788 83.6849C112.708 83.5009 112.668 83.3049 112.668 83.0969C112.668 82.8889 112.708 82.6929 112.788 82.5089C112.868 82.3169 112.976 82.1529 113.112 82.0169C113.248 81.8729 113.404 81.7609 113.58 81.6809C113.764 81.6009 113.96 81.5609 114.168 81.5609C114.376 81.5609 114.572 81.6009 114.756 81.6809C114.948 81.7609 115.112 81.8729 115.248 82.0169C115.392 82.1529 115.504 82.3169 115.584 82.5089C115.672 82.6929 115.716 82.8889 115.716 83.0969Z" fill="#3D466E"/>
<path d="M120.786 88.6769C121.05 88.3809 121.33 88.1129 121.626 87.8729C121.922 87.6329 122.234 87.4289 122.562 87.2609C122.898 87.0849 123.25 86.9529 123.618 86.8649C123.994 86.7689 124.398 86.7209 124.83 86.7209C125.494 86.7209 126.078 86.8329 126.582 87.0569C127.094 87.2729 127.518 87.5849 127.854 87.9929C128.198 88.3929 128.458 88.8769 128.634 89.4449C128.81 90.0129 128.898 90.6409 128.898 91.3289V99.0689H126.75V91.3289C126.75 90.4089 126.538 89.6969 126.114 89.1929C125.698 88.6809 125.062 88.4249 124.206 88.4249C123.574 88.4249 122.982 88.5769 122.43 88.8809C121.886 89.1849 121.382 89.5969 120.918 90.1169V99.0689H118.77V86.9129H120.054C120.358 86.9129 120.546 87.0609 120.618 87.3569L120.786 88.6769Z" fill="#3D466E"/>
<path d="M136.389 93.1289C136.821 93.1289 137.201 93.0689 137.529 92.9489C137.857 92.8289 138.133 92.6609 138.357 92.4449C138.581 92.2289 138.749 91.9729 138.861 91.6769C138.973 91.3729 139.029 91.0409 139.029 90.6809C139.029 89.9369 138.801 89.3449 138.345 88.9049C137.897 88.4649 137.245 88.2449 136.389 88.2449C135.525 88.2449 134.865 88.4649 134.409 88.9049C133.961 89.3449 133.737 89.9369 133.737 90.6809C133.737 91.0409 133.793 91.3729 133.905 91.6769C134.025 91.9729 134.197 92.2289 134.421 92.4449C134.645 92.6609 134.921 92.8289 135.249 92.9489C135.577 93.0689 135.957 93.1289 136.389 93.1289ZM140.241 99.7289C140.241 99.4329 140.157 99.1929 139.989 99.0089C139.821 98.8249 139.593 98.6809 139.305 98.5769C139.025 98.4729 138.697 98.4009 138.321 98.3609C137.945 98.3129 137.545 98.2769 137.121 98.2529C136.705 98.2289 136.281 98.2049 135.849 98.1809C135.417 98.1569 135.001 98.1169 134.601 98.0609C134.153 98.2689 133.785 98.5329 133.497 98.8529C133.217 99.1649 133.077 99.5329 133.077 99.9569C133.077 100.229 133.145 100.481 133.281 100.713C133.425 100.953 133.641 101.157 133.929 101.325C134.217 101.501 134.577 101.637 135.009 101.733C135.449 101.837 135.965 101.889 136.557 101.889C137.133 101.889 137.649 101.837 138.105 101.733C138.561 101.629 138.945 101.481 139.257 101.289C139.577 101.097 139.821 100.869 139.989 100.605C140.157 100.341 140.241 100.049 140.241 99.7289ZM142.413 87.3929V88.1849C142.413 88.4489 142.245 88.6169 141.909 88.6889L140.529 88.8689C140.801 89.3969 140.937 89.9809 140.937 90.6209C140.937 91.2129 140.821 91.7529 140.589 92.2409C140.365 92.7209 140.053 93.1329 139.653 93.4769C139.253 93.8209 138.773 94.0849 138.213 94.2689C137.653 94.4529 137.045 94.5449 136.389 94.5449C135.821 94.5449 135.285 94.4769 134.781 94.3409C134.525 94.5009 134.329 94.6729 134.193 94.8569C134.057 95.0329 133.989 95.2129 133.989 95.3969C133.989 95.6849 134.105 95.9049 134.337 96.0569C134.577 96.2009 134.889 96.3049 135.273 96.3689C135.657 96.4329 136.093 96.4729 136.581 96.4889C137.077 96.5049 137.581 96.5329 138.093 96.5729C138.613 96.6049 139.117 96.6649 139.605 96.7529C140.101 96.8409 140.541 96.9849 140.925 97.1849C141.309 97.3849 141.617 97.6609 141.849 98.0129C142.089 98.3649 142.209 98.8209 142.209 99.3809C142.209 99.9009 142.077 100.405 141.813 100.893C141.557 101.381 141.185 101.813 140.697 102.189C140.209 102.573 139.609 102.877 138.897 103.101C138.193 103.333 137.397 103.449 136.509 103.449C135.621 103.449 134.845 103.361 134.181 103.185C133.517 103.009 132.965 102.773 132.525 102.477C132.085 102.181 131.753 101.837 131.529 101.445C131.313 101.061 131.205 100.657 131.205 100.233C131.205 99.6329 131.393 99.1249 131.769 98.7089C132.145 98.2929 132.661 97.9609 133.317 97.7129C132.957 97.5529 132.669 97.3409 132.453 97.0769C132.245 96.8049 132.141 96.4409 132.141 95.9849C132.141 95.8089 132.173 95.6289 132.237 95.4449C132.301 95.2529 132.397 95.0649 132.525 94.8809C132.661 94.6889 132.825 94.5089 133.017 94.3409C133.209 94.1729 133.433 94.0249 133.689 93.8969C133.089 93.5609 132.621 93.1169 132.285 92.5649C131.949 92.0049 131.781 91.3569 131.781 90.6209C131.781 90.0289 131.893 89.4929 132.117 89.0129C132.349 88.5249 132.669 88.1129 133.077 87.7769C133.485 87.4329 133.969 87.1689 134.529 86.9849C135.097 86.8009 135.717 86.7089 136.389 86.7089C136.917 86.7089 137.409 86.7689 137.865 86.8889C138.321 87.0009 138.737 87.1689 139.113 87.3929H142.413Z" fill="#3D466E"/>
<path d="M152.91 96.1409C153.302 96.6689 153.73 97.0409 154.194 97.2569C154.666 97.4729 155.182 97.5809 155.742 97.5809C156.886 97.5809 157.762 97.1769 158.37 96.3689C158.978 95.5609 159.282 94.3569 159.282 92.7569C159.282 91.2689 159.01 90.1769 158.466 89.4809C157.93 88.7769 157.162 88.4249 156.162 88.4249C155.466 88.4249 154.858 88.5849 154.338 88.9049C153.826 89.2249 153.35 89.6769 152.91 90.2609V96.1409ZM152.91 88.6649C153.422 88.0729 153.998 87.6009 154.638 87.2489C155.286 86.8969 156.03 86.7209 156.87 86.7209C157.582 86.7209 158.222 86.8569 158.79 87.1289C159.366 87.4009 159.854 87.7969 160.254 88.3169C160.654 88.8289 160.958 89.4529 161.166 90.1889C161.382 90.9249 161.49 91.7529 161.49 92.6729C161.49 93.6569 161.37 94.5529 161.13 95.3609C160.89 96.1689 160.542 96.8609 160.086 97.4369C159.638 98.0049 159.09 98.4489 158.442 98.7689C157.794 99.0809 157.066 99.2369 156.258 99.2369C155.458 99.2369 154.782 99.0889 154.23 98.7929C153.686 98.4889 153.21 98.0609 152.802 97.5089L152.694 98.6129C152.63 98.9169 152.446 99.0689 152.142 99.0689H150.762V81.3929H152.91V88.6649Z" fill="#3D466E"/>
<path d="M172.328 91.6649C172.328 91.1689 172.256 90.7169 172.112 90.3089C171.976 89.8929 171.772 89.5369 171.5 89.2409C171.236 88.9369 170.912 88.7049 170.528 88.5449C170.144 88.3769 169.708 88.2929 169.22 88.2929C168.196 88.2929 167.384 88.5929 166.784 89.1929C166.192 89.7849 165.824 90.6089 165.68 91.6649H172.328ZM174.056 97.3649C173.792 97.6849 173.476 97.9649 173.108 98.2049C172.74 98.4369 172.344 98.6289 171.92 98.7809C171.504 98.9329 171.072 99.0449 170.624 99.1169C170.176 99.1969 169.732 99.2369 169.292 99.2369C168.452 99.2369 167.676 99.0969 166.964 98.8169C166.26 98.5289 165.648 98.1129 165.128 97.5689C164.616 97.0169 164.216 96.3369 163.928 95.5289C163.64 94.7209 163.496 93.7929 163.496 92.7449C163.496 91.8969 163.624 91.1049 163.88 90.3689C164.144 89.6329 164.52 88.9969 165.008 88.4609C165.496 87.9169 166.092 87.4929 166.796 87.1889C167.5 86.8769 168.292 86.7209 169.172 86.7209C169.9 86.7209 170.572 86.8449 171.188 87.0929C171.812 87.3329 172.348 87.6849 172.796 88.1489C173.252 88.6049 173.608 89.1729 173.864 89.8529C174.12 90.5249 174.248 91.2929 174.248 92.1569C174.248 92.4929 174.212 92.7169 174.14 92.8289C174.068 92.9409 173.932 92.9969 173.732 92.9969H165.608C165.632 93.7649 165.736 94.4329 165.92 95.0009C166.112 95.5689 166.376 96.0449 166.712 96.4289C167.048 96.8049 167.448 97.0889 167.912 97.2809C168.376 97.4649 168.896 97.5569 169.472 97.5569C170.008 97.5569 170.468 97.4969 170.852 97.3769C171.244 97.2489 171.58 97.1129 171.86 96.9689C172.14 96.8249 172.372 96.6929 172.556 96.5729C172.748 96.4449 172.912 96.3809 173.048 96.3809C173.224 96.3809 173.36 96.4489 173.456 96.5849L174.056 97.3649Z" fill="#3D466E"/>
<path d="M179.019 88.5329C179.539 87.9809 180.115 87.5409 180.747 87.2129C181.379 86.8849 182.107 86.7209 182.931 86.7209C183.595 86.7209 184.179 86.8329 184.683 87.0569C185.195 87.2729 185.619 87.5849 185.955 87.9929C186.299 88.3929 186.559 88.8769 186.735 89.4449C186.911 90.0129 186.999 90.6409 186.999 91.3289V99.0689H184.851V91.3289C184.851 90.4089 184.639 89.6969 184.215 89.1929C183.799 88.6809 183.163 88.4249 182.307 88.4249C181.675 88.4249 181.083 88.5769 180.531 88.8809C179.987 89.1849 179.483 89.5969 179.019 90.1169V99.0689H176.871V81.3929H179.019V88.5329Z" fill="#3D466E"/>
<path d="M196.842 93.5969C195.858 93.6289 195.018 93.7089 194.322 93.8369C193.634 93.9569 193.07 94.1169 192.63 94.3169C192.198 94.5169 191.882 94.7529 191.682 95.0249C191.49 95.2969 191.394 95.6009 191.394 95.9369C191.394 96.2569 191.446 96.5329 191.55 96.7649C191.654 96.9969 191.794 97.1889 191.97 97.3409C192.154 97.4849 192.366 97.5929 192.606 97.6649C192.854 97.7289 193.118 97.7609 193.398 97.7609C193.774 97.7609 194.118 97.7249 194.43 97.6529C194.742 97.5729 195.034 97.4609 195.306 97.3169C195.586 97.1729 195.85 97.0009 196.098 96.8009C196.354 96.6009 196.602 96.3729 196.842 96.1169V93.5969ZM189.942 88.6289C190.614 87.9809 191.338 87.4969 192.114 87.1769C192.89 86.8569 193.75 86.6969 194.694 86.6969C195.374 86.6969 195.978 86.8089 196.506 87.0329C197.034 87.2569 197.478 87.5689 197.838 87.9689C198.198 88.3689 198.47 88.8529 198.654 89.4209C198.838 89.9889 198.93 90.6129 198.93 91.2929V99.0689H197.982C197.774 99.0689 197.614 99.0369 197.502 98.9729C197.39 98.9009 197.302 98.7649 197.238 98.5649L196.998 97.4129C196.678 97.7089 196.366 97.9729 196.062 98.2049C195.758 98.4289 195.438 98.6209 195.102 98.7809C194.766 98.9329 194.406 99.0489 194.022 99.1289C193.646 99.2169 193.226 99.2609 192.762 99.2609C192.29 99.2609 191.846 99.1969 191.43 99.0689C191.014 98.9329 190.65 98.7329 190.338 98.4689C190.034 98.2049 189.79 97.8729 189.606 97.4729C189.43 97.0649 189.342 96.5849 189.342 96.0329C189.342 95.5529 189.474 95.0929 189.738 94.6529C190.002 94.2049 190.43 93.8089 191.022 93.4649C191.614 93.1209 192.386 92.8409 193.338 92.6249C194.29 92.4009 195.458 92.2729 196.842 92.2409V91.2929C196.842 90.3489 196.638 89.6369 196.23 89.1569C195.822 88.6689 195.226 88.4249 194.442 88.4249C193.914 88.4249 193.47 88.4929 193.11 88.6289C192.758 88.7569 192.45 88.9049 192.186 89.0729C191.93 89.2329 191.706 89.3809 191.514 89.5169C191.33 89.6449 191.146 89.7089 190.962 89.7089C190.818 89.7089 190.694 89.6729 190.59 89.6009C190.486 89.5209 190.398 89.4249 190.326 89.3129L189.942 88.6289Z" fill="#3D466E"/>
<path d="M212.342 86.9129L207.386 99.0689H205.466L200.51 86.9129H202.25C202.426 86.9129 202.57 86.9569 202.682 87.0449C202.794 87.1329 202.87 87.2369 202.91 87.3569L205.994 95.1809C206.09 95.4769 206.174 95.7649 206.246 96.0449C206.318 96.3249 206.386 96.6049 206.45 96.8849C206.514 96.6049 206.582 96.3249 206.654 96.0449C206.726 95.7649 206.814 95.4769 206.918 95.1809L210.038 87.3569C210.086 87.2289 210.166 87.1249 210.278 87.0449C210.39 86.9569 210.522 86.9129 210.674 86.9129H212.342Z" fill="#3D466E"/>
<path d="M216.557 86.9129V99.0689H214.421V86.9129H216.557ZM217.013 83.0969C217.013 83.3049 216.969 83.5009 216.881 83.6849C216.801 83.8609 216.689 84.0209 216.545 84.1649C216.409 84.3009 216.245 84.4089 216.053 84.4889C215.869 84.5689 215.673 84.6089 215.465 84.6089C215.257 84.6089 215.061 84.5689 214.877 84.4889C214.701 84.4089 214.545 84.3009 214.409 84.1649C214.273 84.0209 214.165 83.8609 214.085 83.6849C214.005 83.5009 213.965 83.3049 213.965 83.0969C213.965 82.8889 214.005 82.6929 214.085 82.5089C214.165 82.3169 214.273 82.1529 214.409 82.0169C214.545 81.8729 214.701 81.7609 214.877 81.6809C215.061 81.6009 215.257 81.5609 215.465 81.5609C215.673 81.5609 215.869 81.6009 216.053 81.6809C216.245 81.7609 216.409 81.8729 216.545 82.0169C216.689 82.1529 216.801 82.3169 216.881 82.5089C216.969 82.6929 217.013 82.8889 217.013 83.0969Z" fill="#3D466E"/>
<path d="M225.191 86.7209C226.079 86.7209 226.879 86.8689 227.591 87.1649C228.303 87.4609 228.911 87.8809 229.415 88.4249C229.919 88.9689 230.303 89.6289 230.567 90.4049C230.839 91.1729 230.975 92.0329 230.975 92.9849C230.975 93.9449 230.839 94.8089 230.567 95.5769C230.303 96.3449 229.919 97.0009 229.415 97.5449C228.911 98.0889 228.303 98.5089 227.591 98.8049C226.879 99.0929 226.079 99.2369 225.191 99.2369C224.295 99.2369 223.487 99.0929 222.767 98.8049C222.055 98.5089 221.447 98.0889 220.943 97.5449C220.439 97.0009 220.051 96.3449 219.779 95.5769C219.515 94.8089 219.383 93.9449 219.383 92.9849C219.383 92.0329 219.515 91.1729 219.779 90.4049C220.051 89.6289 220.439 88.9689 220.943 88.4249C221.447 87.8809 222.055 87.4609 222.767 87.1649C223.487 86.8689 224.295 86.7209 225.191 86.7209ZM225.191 97.5689C226.391 97.5689 227.287 97.1689 227.879 96.3689C228.471 95.5609 228.767 94.4369 228.767 92.9969C228.767 91.5489 228.471 90.4209 227.879 89.6129C227.287 88.8049 226.391 88.4009 225.191 88.4009C224.583 88.4009 224.051 88.5049 223.595 88.7129C223.147 88.9209 222.771 89.2209 222.467 89.6129C222.171 90.0049 221.947 90.4889 221.795 91.0649C221.651 91.6329 221.579 92.2769 221.579 92.9969C221.579 94.4369 221.875 95.5609 222.467 96.3689C223.067 97.1689 223.975 97.5689 225.191 97.5689Z" fill="#3D466E"/>
<path d="M235.712 89.3489C236.096 88.5169 236.568 87.8689 237.128 87.4049C237.688 86.9329 238.372 86.6969 239.18 86.6969C239.436 86.6969 239.68 86.7249 239.912 86.7809C240.152 86.8369 240.364 86.9249 240.548 87.0449L240.392 88.6409C240.344 88.8409 240.224 88.9409 240.032 88.9409C239.92 88.9409 239.756 88.9169 239.54 88.8689C239.324 88.8209 239.08 88.7969 238.808 88.7969C238.424 88.7969 238.08 88.8529 237.776 88.9649C237.48 89.0769 237.212 89.2449 236.972 89.4689C236.74 89.6849 236.528 89.9569 236.336 90.2849C236.152 90.6049 235.984 90.9729 235.832 91.3889V99.0689H233.684V86.9129H234.908C235.14 86.9129 235.3 86.9569 235.388 87.0449C235.476 87.1329 235.536 87.2849 235.568 87.5009L235.712 89.3489Z" fill="#3D466E"/>
<path d="M425 45.0688H292C289.238 45.0688 287 47.3074 287 50.0688V96.0688C287 98.8303 289.238 101.069 292 101.069H425C427.761 101.069 430 98.8303 430 96.0688V50.0688C430 47.3074 427.761 45.0688 425 45.0688Z" fill="white"/>
<path d="M423 43.0688H290C287.238 43.0688 285 45.3074 285 48.0688V94.0688C285 96.8303 287.238 99.0688 290 99.0688H423C425.761 99.0688 428 96.8303 428 94.0688V48.0688C428 45.3074 425.761 43.0688 423 43.0688Z" fill="#F5F9FF"/>
<path d="M425.616 43.6659C425.592 43.4368 425.524 43.2144 425.416 43.0109C425.136 42.6283 424.775 42.3125 424.358 42.0862C423.942 41.8598 423.48 41.7286 423.007 41.7019C422.145 41.5523 421.268 41.5156 420.397 41.5929H409.152C396.904 41.5929 379.437 41.5929 357.752 41.7019L286.676 41.7019C285.07 41.8109 283.865 42.5749 283.664 43.4479V94.1869C283.664 95.1689 285.271 96.0449 287.078 96.0449L422.403 96.0449C423.037 95.9931 423.653 95.807 424.21 95.4989C424.638 95.285 424.988 94.9414 425.21 94.5169C425.41 94.1899 425.21 93.7529 425.41 93.3169V81.6389C425.41 69.8549 425.61 60.2519 425.61 53.7059V53.9239C425.61 60.5799 425.61 70.0729 425.81 81.8579V93.5319C425.842 93.9777 425.774 94.4251 425.61 94.8409C425.348 95.3587 424.928 95.7792 424.41 96.0409C423.717 96.3855 422.97 96.6072 422.201 96.6959C421.399 96.7505 420.594 96.7505 419.792 96.6959L286.676 96.6959C284.267 96.6959 282.259 95.4959 282.259 94.1869V43.3389C282.259 42.2449 284.066 41.2659 286.074 41.0449C288.082 40.9359 289.688 41.0449 291.495 41.0449L357.351 41.0449C379.035 41.0449 396.704 41.1539 408.751 41.1539H419.995C420.866 41.1265 421.739 41.163 422.605 41.2629C424.211 41.5899 424.814 42.2449 425.014 42.6809C425.616 43.3389 425.616 43.6659 425.616 43.6659Z" fill="#14365B"/>
<path d="M308.416 68.1569C308.864 68.1569 309.258 68.1035 309.6 67.9969C309.946 67.8849 310.234 67.7302 310.464 67.5329C310.698 67.3302 310.874 67.0902 310.992 66.8129C311.109 66.5355 311.168 66.2289 311.168 65.8929C311.168 65.2102 310.944 64.6955 310.496 64.3489C310.048 64.0022 309.376 63.8289 308.48 63.8289H306.784V68.1569H308.416ZM313.712 74.0689H312.336C312.053 74.0689 311.845 73.9595 311.712 73.7409L308.736 69.6449C308.645 69.5169 308.546 69.4262 308.44 69.3729C308.338 69.3142 308.178 69.2849 307.96 69.2849H306.784V74.0689H305.24V62.6049H308.48C309.205 62.6049 309.832 62.6795 310.36 62.8289C310.888 62.9729 311.322 63.1835 311.664 63.4609C312.01 63.7382 312.266 64.0742 312.432 64.4689C312.597 64.8582 312.68 65.2955 312.68 65.7809C312.68 66.1862 312.616 66.5649 312.488 66.9169C312.36 67.2689 312.173 67.5862 311.928 67.8689C311.688 68.1462 311.392 68.3835 311.04 68.5809C310.693 68.7782 310.298 68.9275 309.856 69.0289C310.053 69.1409 310.224 69.3035 310.368 69.5169L313.712 74.0689Z" fill="#3D466E"/>
<path d="M319.843 69.1329C319.843 68.8022 319.795 68.5009 319.699 68.2289C319.609 67.9515 319.473 67.7142 319.291 67.5169C319.115 67.3142 318.899 67.1595 318.643 67.0529C318.387 66.9409 318.097 66.8849 317.771 66.8849C317.089 66.8849 316.547 67.0849 316.147 67.4849C315.753 67.8795 315.507 68.4289 315.411 69.1329H319.843ZM320.995 72.9329C320.819 73.1462 320.609 73.3329 320.363 73.4929C320.118 73.6475 319.854 73.7755 319.571 73.8769C319.294 73.9782 319.006 74.0529 318.707 74.1009C318.409 74.1542 318.113 74.1809 317.819 74.1809C317.259 74.1809 316.742 74.0875 316.267 73.9009C315.798 73.7089 315.39 73.4315 315.043 73.0689C314.702 72.7009 314.435 72.2475 314.243 71.7089C314.051 71.1702 313.955 70.5515 313.955 69.8529C313.955 69.2875 314.041 68.7595 314.211 68.2689C314.387 67.7782 314.638 67.3542 314.963 66.9969C315.289 66.6342 315.686 66.3515 316.155 66.1489C316.625 65.9409 317.153 65.8369 317.739 65.8369C318.225 65.8369 318.673 65.9195 319.083 66.0849C319.499 66.2449 319.857 66.4795 320.155 66.7889C320.459 67.0929 320.697 67.4715 320.867 67.9249C321.038 68.3729 321.123 68.8849 321.123 69.4609C321.123 69.6849 321.099 69.8342 321.051 69.9089C321.003 69.9835 320.913 70.0209 320.779 70.0209H315.363C315.379 70.5329 315.449 70.9782 315.571 71.3569C315.699 71.7355 315.875 72.0529 316.099 72.3089C316.323 72.5595 316.59 72.7489 316.899 72.8769C317.209 72.9995 317.555 73.0609 317.939 73.0609C318.297 73.0609 318.603 73.0209 318.859 72.9409C319.121 72.8555 319.345 72.7649 319.531 72.6689C319.718 72.5729 319.873 72.4849 319.995 72.4049C320.123 72.3195 320.233 72.2769 320.323 72.2769C320.441 72.2769 320.531 72.3222 320.595 72.4129L320.995 72.9329Z" fill="#3D466E"/>
<path d="M325.298 74.1969C324.658 74.1969 324.165 74.0182 323.818 73.6609C323.477 73.3035 323.306 72.7889 323.306 72.1169V67.1569H322.33C322.245 67.1569 322.173 67.1329 322.114 67.0849C322.055 67.0315 322.026 66.9515 322.026 66.8449V66.2769L323.354 66.1089L323.682 63.6049C323.698 63.5249 323.733 63.4609 323.786 63.4129C323.845 63.3595 323.919 63.3329 324.01 63.3329H324.73V66.1249H327.074V67.1569H324.73V72.0209C324.73 72.3622 324.813 72.6155 324.978 72.7809C325.143 72.9462 325.357 73.0289 325.618 73.0289C325.767 73.0289 325.895 73.0102 326.002 72.9729C326.114 72.9302 326.21 72.8849 326.29 72.8369C326.37 72.7889 326.437 72.7462 326.49 72.7089C326.549 72.6662 326.599 72.6449 326.642 72.6449C326.717 72.6449 326.783 72.6902 326.842 72.7809L327.258 73.4609C327.013 73.6902 326.717 73.8715 326.37 74.0049C326.023 74.1329 325.666 74.1969 325.298 74.1969Z" fill="#3D466E"/>
<path d="M335.208 65.9649V74.0689H334.36C334.158 74.0689 334.03 73.9702 333.976 73.7729L333.864 72.9009C333.512 73.2902 333.118 73.6049 332.68 73.8449C332.243 74.0795 331.742 74.1969 331.176 74.1969C330.734 74.1969 330.342 74.1249 330 73.9809C329.664 73.8315 329.382 73.6235 329.152 73.3569C328.923 73.0902 328.75 72.7675 328.632 72.3889C328.52 72.0102 328.464 71.5915 328.464 71.1329V65.9649H329.888V71.1329C329.888 71.7462 330.027 72.2209 330.304 72.5569C330.587 72.8929 331.016 73.0609 331.592 73.0609C332.014 73.0609 332.406 72.9622 332.768 72.7649C333.136 72.5622 333.475 72.2849 333.784 71.9329V65.9649H335.208Z" fill="#3D466E"/>
<path d="M338.818 67.5889C339.074 67.0342 339.389 66.6022 339.762 66.2929C340.136 65.9782 340.592 65.8209 341.13 65.8209C341.301 65.8209 341.464 65.8395 341.618 65.8769C341.778 65.9142 341.92 65.9729 342.042 66.0529L341.938 67.1169C341.906 67.2502 341.826 67.3169 341.698 67.3169C341.624 67.3169 341.514 67.3009 341.37 67.2689C341.226 67.2369 341.064 67.2209 340.882 67.2209C340.626 67.2209 340.397 67.2582 340.194 67.3329C339.997 67.4075 339.818 67.5195 339.658 67.6689C339.504 67.8129 339.362 67.9942 339.234 68.2129C339.112 68.4262 339 68.6715 338.898 68.9489V74.0689H337.466V65.9649H338.282C338.437 65.9649 338.544 65.9942 338.602 66.0529C338.661 66.1115 338.701 66.2129 338.722 66.3569L338.818 67.5889Z" fill="#3D466E"/>
<path d="M344.638 67.1409C344.814 66.9435 345.001 66.7649 345.198 66.6049C345.396 66.4449 345.604 66.3089 345.822 66.1969C346.046 66.0795 346.281 65.9915 346.526 65.9329C346.777 65.8689 347.046 65.8369 347.334 65.8369C347.777 65.8369 348.166 65.9115 348.502 66.0609C348.844 66.2049 349.126 66.4129 349.35 66.6849C349.58 66.9515 349.753 67.2742 349.87 67.6529C349.988 68.0315 350.046 68.4502 350.046 68.9089V74.0689H348.614V68.9089C348.614 68.2955 348.473 67.8209 348.19 67.4849C347.913 67.1435 347.489 66.9729 346.918 66.9729C346.497 66.9729 346.102 67.0742 345.734 67.2769C345.372 67.4795 345.036 67.7542 344.726 68.1009V74.0689H343.294V65.9649H344.15C344.353 65.9649 344.478 66.0635 344.526 66.2609L344.638 67.1409Z" fill="#3D466E"/>
<path d="M357.742 72.1169C358.003 72.4689 358.289 72.7169 358.598 72.8609C358.907 73.0049 359.254 73.0769 359.638 73.0769C360.395 73.0769 360.977 72.8075 361.382 72.2689C361.787 71.7302 361.99 70.9622 361.99 69.9649C361.99 69.4369 361.942 68.9835 361.846 68.6049C361.755 68.2262 361.622 67.9169 361.446 67.6769C361.27 67.4315 361.054 67.2529 360.798 67.1409C360.542 67.0289 360.251 66.9729 359.926 66.9729C359.462 66.9729 359.054 67.0795 358.702 67.2929C358.355 67.5062 358.035 67.8075 357.742 68.1969V72.1169ZM357.67 67.2209C358.011 66.7995 358.406 66.4609 358.854 66.2049C359.302 65.9489 359.814 65.8209 360.39 65.8209C360.859 65.8209 361.283 65.9115 361.662 66.0929C362.041 66.2689 362.363 66.5329 362.63 66.8849C362.897 67.2315 363.102 67.6635 363.246 68.1809C363.39 68.6982 363.462 69.2929 363.462 69.9649C363.462 70.5622 363.382 71.1195 363.222 71.6369C363.062 72.1489 362.83 72.5942 362.526 72.9729C362.227 73.3462 361.859 73.6422 361.422 73.8609C360.99 74.0742 360.502 74.1809 359.958 74.1809C359.462 74.1809 359.035 74.0982 358.678 73.9329C358.326 73.7622 358.014 73.5275 357.742 73.2289V76.8129H356.31V65.9649H357.166C357.369 65.9649 357.494 66.0635 357.542 66.2609L357.67 67.2209Z" fill="#3D466E"/>
<path d="M366.783 65.9649V74.0689H365.359V65.9649H366.783ZM367.087 63.4209C367.087 63.5595 367.057 63.6902 366.999 63.8129C366.945 63.9302 366.871 64.0369 366.775 64.1329C366.684 64.2235 366.575 64.2955 366.447 64.3489C366.324 64.4022 366.193 64.4289 366.055 64.4289C365.916 64.4289 365.785 64.4022 365.663 64.3489C365.545 64.2955 365.441 64.2235 365.351 64.1329C365.26 64.0369 365.188 63.9302 365.135 63.8129C365.081 63.6902 365.055 63.5595 365.055 63.4209C365.055 63.2822 365.081 63.1515 365.135 63.0289C365.188 62.9009 365.26 62.7915 365.351 62.7009C365.441 62.6049 365.545 62.5302 365.663 62.4769C365.785 62.4235 365.916 62.3969 366.055 62.3969C366.193 62.3969 366.324 62.4235 366.447 62.4769C366.575 62.5302 366.684 62.6049 366.775 62.7009C366.871 62.7915 366.945 62.9009 366.999 63.0289C367.057 63.1515 367.087 63.2822 367.087 63.4209Z" fill="#3D466E"/>
<path d="M374.762 67.4049C374.72 67.4635 374.677 67.5089 374.634 67.5409C374.592 67.5729 374.533 67.5889 374.458 67.5889C374.378 67.5889 374.29 67.5569 374.194 67.4929C374.098 67.4235 373.978 67.3489 373.834 67.2689C373.696 67.1889 373.522 67.1169 373.314 67.0529C373.112 66.9835 372.861 66.9489 372.562 66.9489C372.162 66.9489 371.811 67.0209 371.507 67.1649C371.203 67.3035 370.947 67.5062 370.739 67.7729C370.536 68.0395 370.381 68.3622 370.274 68.7409C370.173 69.1195 370.122 69.5435 370.122 70.0129C370.122 70.5035 370.178 70.9409 370.29 71.3249C370.402 71.7035 370.56 72.0235 370.762 72.2849C370.97 72.5409 371.219 72.7382 371.507 72.8769C371.8 73.0102 372.128 73.0769 372.491 73.0769C372.837 73.0769 373.122 73.0369 373.346 72.9569C373.57 72.8715 373.754 72.7782 373.898 72.6769C374.048 72.5755 374.171 72.4849 374.267 72.4049C374.368 72.3195 374.466 72.2769 374.562 72.2769C374.68 72.2769 374.77 72.3222 374.834 72.4129L375.234 72.9329C375.058 73.1515 374.858 73.3382 374.634 73.4929C374.41 73.6475 374.168 73.7782 373.907 73.8849C373.651 73.9862 373.381 74.0609 373.099 74.1089C372.816 74.1569 372.528 74.1809 372.234 74.1809C371.728 74.1809 371.256 74.0875 370.818 73.9009C370.386 73.7142 370.01 73.4449 369.69 73.0929C369.37 72.7355 369.12 72.2982 368.938 71.7809C368.757 71.2635 368.666 70.6742 368.666 70.0129C368.666 69.4102 368.749 68.8529 368.914 68.3409C369.085 67.8289 369.33 67.3889 369.65 67.0209C369.976 66.6475 370.373 66.3569 370.842 66.1489C371.317 65.9409 371.861 65.8369 372.475 65.8369C373.045 65.8369 373.547 65.9302 373.979 66.1169C374.416 66.2982 374.802 66.5569 375.138 66.8929L374.762 67.4049Z" fill="#3D466E"/>
<path d="M379.251 74.1969C378.611 74.1969 378.118 74.0182 377.771 73.6609C377.43 73.3035 377.259 72.7889 377.259 72.1169V67.1569H376.283C376.198 67.1569 376.126 67.1329 376.067 67.0849C376.008 67.0315 375.979 66.9515 375.979 66.8449V66.2769L377.307 66.1089L377.635 63.6049C377.651 63.5249 377.686 63.4609 377.739 63.4129C377.798 63.3595 377.872 63.3329 377.963 63.3329H378.683V66.1249H381.027V67.1569H378.683V72.0209C378.683 72.3622 378.766 72.6155 378.931 72.7809C379.096 72.9462 379.31 73.0289 379.571 73.0289C379.72 73.0289 379.848 73.0102 379.955 72.9729C380.067 72.9302 380.163 72.8849 380.243 72.8369C380.323 72.7889 380.39 72.7462 380.443 72.7089C380.502 72.6662 380.552 72.6449 380.595 72.6449C380.67 72.6449 380.736 72.6902 380.795 72.7809L381.211 73.4609C380.966 73.6902 380.67 73.8715 380.323 74.0049C379.976 74.1329 379.619 74.1969 379.251 74.1969Z" fill="#3D466E"/>
<path d="M389.161 65.9649V74.0689H388.313C388.111 74.0689 387.983 73.9702 387.929 73.7729L387.817 72.9009C387.465 73.2902 387.071 73.6049 386.633 73.8449C386.196 74.0795 385.695 74.1969 385.13 74.1969C384.687 74.1969 384.295 74.1249 383.953 73.9809C383.617 73.8315 383.335 73.6235 383.105 73.3569C382.876 73.0902 382.703 72.7675 382.586 72.3889C382.474 72.0102 382.417 71.5915 382.417 71.1329V65.9649H383.841V71.1329C383.841 71.7462 383.98 72.2209 384.257 72.5569C384.54 72.8929 384.97 73.0609 385.546 73.0609C385.967 73.0609 386.359 72.9622 386.721 72.7649C387.089 72.5622 387.428 72.2849 387.738 71.9329V65.9649H389.161Z" fill="#3D466E"/>
<path d="M392.771 67.5889C393.027 67.0342 393.342 66.6022 393.715 66.2929C394.089 65.9782 394.545 65.8209 395.083 65.8209C395.254 65.8209 395.417 65.8395 395.571 65.8769C395.731 65.9142 395.873 65.9729 395.995 66.0529L395.891 67.1169C395.859 67.2502 395.779 67.3169 395.651 67.3169C395.577 67.3169 395.467 67.3009 395.323 67.2689C395.179 67.2369 395.017 67.2209 394.835 67.2209C394.579 67.2209 394.35 67.2582 394.147 67.3329C393.95 67.4075 393.771 67.5195 393.611 67.6689C393.457 67.8129 393.315 67.9942 393.187 68.2129C393.065 68.4262 392.953 68.6715 392.851 68.9489V74.0689H391.419V65.9649H392.235C392.39 65.9649 392.497 65.9942 392.555 66.0529C392.614 66.1115 392.654 66.2129 392.675 66.3569L392.771 67.5889Z" fill="#3D466E"/>
<path d="M402.343 69.1329C402.343 68.8022 402.295 68.5009 402.199 68.2289C402.109 67.9515 401.973 67.7142 401.791 67.5169C401.615 67.3142 401.399 67.1595 401.143 67.0529C400.887 66.9409 400.597 66.8849 400.271 66.8849C399.589 66.8849 399.047 67.0849 398.647 67.4849C398.253 67.8795 398.007 68.4289 397.911 69.1329H402.343ZM403.495 72.9329C403.319 73.1462 403.109 73.3329 402.863 73.4929C402.618 73.6475 402.354 73.7755 402.071 73.8769C401.794 73.9782 401.506 74.0529 401.207 74.1009C400.909 74.1542 400.613 74.1809 400.319 74.1809C399.759 74.1809 399.242 74.0875 398.767 73.9009C398.298 73.7089 397.89 73.4315 397.543 73.0689C397.202 72.7009 396.935 72.2475 396.743 71.7089C396.551 71.1702 396.455 70.5515 396.455 69.8529C396.455 69.2875 396.541 68.7595 396.711 68.2689C396.887 67.7782 397.138 67.3542 397.463 66.9969C397.789 66.6342 398.186 66.3515 398.655 66.1489C399.125 65.9409 399.653 65.8369 400.239 65.8369C400.725 65.8369 401.173 65.9195 401.583 66.0849C401.999 66.2449 402.357 66.4795 402.655 66.7889C402.959 67.0929 403.197 67.4715 403.367 67.9249C403.538 68.3729 403.623 68.8849 403.623 69.4609C403.623 69.6849 403.599 69.8342 403.551 69.9089C403.503 69.9835 403.413 70.0209 403.279 70.0209H397.863C397.879 70.5329 397.949 70.9782 398.071 71.3569C398.199 71.7355 398.375 72.0529 398.599 72.3089C398.823 72.5595 399.09 72.7489 399.399 72.8769C399.709 72.9995 400.055 73.0609 400.439 73.0609C400.797 73.0609 401.103 73.0209 401.359 72.9409C401.621 72.8555 401.845 72.7649 402.031 72.6689C402.218 72.5729 402.373 72.4849 402.495 72.4049C402.623 72.3195 402.733 72.2769 402.823 72.2769C402.941 72.2769 403.031 72.3222 403.095 72.4129L403.495 72.9329Z" fill="#3D466E"/>
<path d="M409 117.069H250C247.238 117.069 245 119.307 245 122.069V168.069C245 170.83 247.238 173.069 250 173.069H409C411.761 173.069 414 170.83 414 168.069V122.069C414 119.307 411.761 117.069 409 117.069Z" fill="white"/>
<path d="M407 115.069H248C245.238 115.069 243 117.307 243 120.069V166.069C243 168.83 245.238 171.069 248 171.069H407C409.761 171.069 412 168.83 412 166.069V120.069C412 117.307 409.761 115.069 407 115.069Z" fill="#F5F9FF"/>
<path d="M409.826 115.666C409.796 115.433 409.715 115.209 409.589 115.011C409.228 114.61 408.789 114.288 408.299 114.063C407.809 113.838 407.278 113.715 406.739 113.702C405.717 113.552 404.682 113.516 403.652 113.593H390.352C375.865 113.593 355.204 113.593 329.552 113.702H245.484C243.584 113.811 242.159 114.575 241.922 115.448V166.187C241.921 167.169 243.821 168.045 245.959 168.045H406.026C406.766 167.996 407.49 167.811 408.163 167.499C408.651 167.303 409.066 166.959 409.35 166.517C409.588 166.19 409.35 165.753 409.588 165.317V153.639C409.588 141.855 409.825 132.252 409.825 125.706V125.924C409.825 132.58 409.825 142.073 410.063 153.858V165.532C410.1 165.982 410.018 166.433 409.825 166.841C409.489 167.382 408.99 167.802 408.4 168.041C407.567 168.389 406.686 168.61 405.788 168.696C404.839 168.75 403.887 168.75 402.938 168.696H245.484C242.634 168.696 240.259 167.496 240.259 166.187V115.339C240.259 114.245 242.396 113.266 244.771 113.045C247.146 112.936 249.046 113.045 251.183 113.045H329.083C354.732 113.045 375.631 113.154 389.883 113.154H403.183C404.209 113.128 405.237 113.165 406.259 113.266C408.159 113.593 408.871 114.248 409.109 114.684C409.826 115.339 409.826 115.666 409.826 115.666Z" fill="#14365B"/>
<path d="M263.024 139.157C263.472 139.157 263.867 139.103 264.208 138.997C264.555 138.885 264.843 138.73 265.072 138.533C265.307 138.33 265.483 138.09 265.6 137.813C265.717 137.535 265.776 137.229 265.776 136.893C265.776 136.21 265.552 135.695 265.104 135.349C264.656 135.002 263.984 134.829 263.088 134.829H261.392V139.157H263.024ZM268.32 145.069H266.944C266.661 145.069 266.453 144.959 266.32 144.741L263.344 140.645C263.253 140.517 263.155 140.426 263.048 140.373C262.947 140.314 262.787 140.285 262.568 140.285H261.392V145.069H259.848V133.605H263.088C263.813 133.605 264.44 133.679 264.968 133.829C265.496 133.973 265.931 134.183 266.272 134.461C266.619 134.738 266.875 135.074 267.04 135.469C267.205 135.858 267.288 136.295 267.288 136.781C267.288 137.186 267.224 137.565 267.096 137.917C266.968 138.269 266.781 138.586 266.536 138.869C266.296 139.146 266 139.383 265.648 139.581C265.301 139.778 264.907 139.927 264.464 140.029C264.661 140.141 264.832 140.303 264.976 140.517L268.32 145.069Z" fill="#3D466E"/>
<path d="M274.452 140.133C274.452 139.802 274.404 139.501 274.308 139.229C274.217 138.951 274.081 138.714 273.9 138.517C273.724 138.314 273.508 138.159 273.252 138.053C272.996 137.941 272.705 137.885 272.38 137.885C271.697 137.885 271.156 138.085 270.756 138.485C270.361 138.879 270.116 139.429 270.02 140.133H274.452ZM275.604 143.933C275.428 144.146 275.217 144.333 274.972 144.493C274.726 144.647 274.462 144.775 274.18 144.877C273.902 144.978 273.614 145.053 273.316 145.101C273.017 145.154 272.721 145.181 272.428 145.181C271.868 145.181 271.35 145.087 270.876 144.901C270.406 144.709 269.998 144.431 269.652 144.069C269.31 143.701 269.044 143.247 268.852 142.709C268.66 142.17 268.564 141.551 268.564 140.853C268.564 140.287 268.649 139.759 268.82 139.269C268.996 138.778 269.246 138.354 269.572 137.997C269.897 137.634 270.294 137.351 270.764 137.149C271.233 136.941 271.761 136.837 272.348 136.837C272.833 136.837 273.281 136.919 273.692 137.085C274.108 137.245 274.465 137.479 274.764 137.789C275.068 138.093 275.305 138.471 275.476 138.925C275.646 139.373 275.732 139.885 275.732 140.461C275.732 140.685 275.708 140.834 275.66 140.909C275.612 140.983 275.521 141.021 275.388 141.021H269.972C269.988 141.533 270.057 141.978 270.18 142.357C270.308 142.735 270.484 143.053 270.708 143.309C270.932 143.559 271.198 143.749 271.508 143.877C271.817 143.999 272.164 144.061 272.548 144.061C272.905 144.061 273.212 144.021 273.468 143.941C273.729 143.855 273.953 143.765 274.14 143.669C274.326 143.573 274.481 143.485 274.604 143.405C274.732 143.319 274.841 143.277 274.932 143.277C275.049 143.277 275.14 143.322 275.204 143.413L275.604 143.933Z" fill="#3D466E"/>
<path d="M279.906 145.197C279.266 145.197 278.773 145.018 278.426 144.661C278.085 144.303 277.914 143.789 277.914 143.117V138.157H276.938C276.853 138.157 276.781 138.133 276.722 138.085C276.663 138.031 276.634 137.951 276.634 137.845V137.277L277.962 137.109L278.29 134.605C278.306 134.525 278.341 134.461 278.394 134.413C278.453 134.359 278.527 134.333 278.618 134.333H279.338V137.125H281.682V138.157H279.338V143.021C279.338 143.362 279.421 143.615 279.586 143.781C279.751 143.946 279.965 144.029 280.226 144.029C280.375 144.029 280.503 144.01 280.61 143.973C280.722 143.93 280.818 143.885 280.898 143.837C280.978 143.789 281.045 143.746 281.098 143.709C281.157 143.666 281.207 143.645 281.25 143.645C281.325 143.645 281.391 143.69 281.45 143.781L281.866 144.461C281.621 144.69 281.325 144.871 280.978 145.005C280.631 145.133 280.274 145.197 279.906 145.197Z" fill="#3D466E"/>
<path d="M289.817 136.965V145.069H288.969C288.766 145.069 288.638 144.97 288.585 144.773L288.473 143.901C288.121 144.29 287.726 144.605 287.289 144.845C286.851 145.079 286.35 145.197 285.785 145.197C285.342 145.197 284.95 145.125 284.609 144.981C284.273 144.831 283.99 144.623 283.761 144.357C283.531 144.09 283.358 143.767 283.241 143.389C283.129 143.01 283.073 142.591 283.073 142.133V136.965H284.497V142.133C284.497 142.746 284.635 143.221 284.913 143.557C285.195 143.893 285.625 144.061 286.201 144.061C286.622 144.061 287.014 143.962 287.377 143.765C287.745 143.562 288.083 143.285 288.393 142.933V136.965H289.817Z" fill="#3D466E"/>
<path d="M293.426 138.589C293.682 138.034 293.997 137.602 294.37 137.293C294.744 136.978 295.2 136.821 295.738 136.821C295.909 136.821 296.072 136.839 296.226 136.877C296.386 136.914 296.528 136.973 296.65 137.053L296.546 138.117C296.514 138.25 296.434 138.317 296.306 138.317C296.232 138.317 296.122 138.301 295.978 138.269C295.834 138.237 295.672 138.221 295.49 138.221C295.234 138.221 295.005 138.258 294.802 138.333C294.605 138.407 294.426 138.519 294.266 138.669C294.112 138.813 293.97 138.994 293.842 139.213C293.72 139.426 293.608 139.671 293.506 139.949V145.069H292.074V136.965H292.89C293.045 136.965 293.152 136.994 293.21 137.053C293.269 137.111 293.309 137.213 293.33 137.357L293.426 138.589Z" fill="#3D466E"/>
<path d="M299.247 138.141C299.423 137.943 299.609 137.765 299.807 137.605C300.004 137.445 300.212 137.309 300.431 137.197C300.655 137.079 300.889 136.991 301.135 136.933C301.385 136.869 301.655 136.837 301.943 136.837C302.385 136.837 302.775 136.911 303.111 137.061C303.452 137.205 303.735 137.413 303.959 137.685C304.188 137.951 304.361 138.274 304.479 138.653C304.596 139.031 304.655 139.45 304.655 139.909V145.069H303.223V139.909C303.223 139.295 303.081 138.821 302.799 138.485C302.521 138.143 302.097 137.973 301.527 137.973C301.105 137.973 300.711 138.074 300.343 138.277C299.98 138.479 299.644 138.754 299.335 139.101V145.069H297.903V136.965H298.759C298.961 136.965 299.087 137.063 299.135 137.261L299.247 138.141Z" fill="#3D466E"/>
<path d="M316.558 138.405C316.515 138.463 316.473 138.509 316.43 138.541C316.387 138.573 316.329 138.589 316.254 138.589C316.174 138.589 316.086 138.557 315.99 138.493C315.894 138.423 315.774 138.349 315.63 138.269C315.491 138.189 315.318 138.117 315.11 138.053C314.907 137.983 314.657 137.949 314.358 137.949C313.958 137.949 313.606 138.021 313.302 138.165C312.998 138.303 312.742 138.506 312.534 138.773C312.331 139.039 312.177 139.362 312.07 139.741C311.969 140.119 311.918 140.543 311.918 141.013C311.918 141.503 311.974 141.941 312.086 142.325C312.198 142.703 312.355 143.023 312.558 143.285C312.766 143.541 313.014 143.738 313.302 143.877C313.595 144.01 313.923 144.077 314.286 144.077C314.633 144.077 314.918 144.037 315.142 143.957C315.366 143.871 315.55 143.778 315.694 143.677C315.843 143.575 315.966 143.485 316.062 143.405C316.163 143.319 316.262 143.277 316.358 143.277C316.475 143.277 316.566 143.322 316.63 143.413L317.03 143.933C316.854 144.151 316.654 144.338 316.43 144.493C316.206 144.647 315.963 144.778 315.702 144.885C315.446 144.986 315.177 145.061 314.894 145.109C314.611 145.157 314.323 145.181 314.03 145.181C313.523 145.181 313.051 145.087 312.614 144.901C312.182 144.714 311.806 144.445 311.486 144.093C311.166 143.735 310.915 143.298 310.734 142.781C310.553 142.263 310.462 141.674 310.462 141.013C310.462 140.41 310.545 139.853 310.71 139.341C310.881 138.829 311.126 138.389 311.446 138.021C311.771 137.647 312.169 137.357 312.638 137.149C313.113 136.941 313.657 136.837 314.27 136.837C314.841 136.837 315.342 136.93 315.774 137.117C316.211 137.298 316.598 137.557 316.934 137.893L316.558 138.405Z" fill="#3D466E"/>
<path d="M321.834 136.837C322.426 136.837 322.959 136.935 323.434 137.133C323.909 137.33 324.314 137.61 324.65 137.973C324.986 138.335 325.242 138.775 325.418 139.293C325.599 139.805 325.69 140.378 325.69 141.013C325.69 141.653 325.599 142.229 325.418 142.741C325.242 143.253 324.986 143.69 324.65 144.053C324.314 144.415 323.909 144.695 323.434 144.893C322.959 145.085 322.426 145.181 321.834 145.181C321.237 145.181 320.698 145.085 320.218 144.893C319.743 144.695 319.338 144.415 319.002 144.053C318.666 143.69 318.407 143.253 318.226 142.741C318.05 142.229 317.962 141.653 317.962 141.013C317.962 140.378 318.05 139.805 318.226 139.293C318.407 138.775 318.666 138.335 319.002 137.973C319.338 137.61 319.743 137.33 320.218 137.133C320.698 136.935 321.237 136.837 321.834 136.837ZM321.834 144.069C322.634 144.069 323.231 143.802 323.626 143.269C324.021 142.73 324.218 141.981 324.218 141.021C324.218 140.055 324.021 139.303 323.626 138.765C323.231 138.226 322.634 137.957 321.834 137.957C321.429 137.957 321.074 138.026 320.77 138.165C320.471 138.303 320.221 138.503 320.018 138.765C319.821 139.026 319.671 139.349 319.57 139.733C319.474 140.111 319.426 140.541 319.426 141.021C319.426 141.981 319.623 142.73 320.018 143.269C320.418 143.802 321.023 144.069 321.834 144.069Z" fill="#3D466E"/>
<path d="M328.848 138.589C329.104 138.034 329.419 137.602 329.792 137.293C330.166 136.978 330.622 136.821 331.16 136.821C331.331 136.821 331.494 136.839 331.648 136.877C331.808 136.914 331.95 136.973 332.072 137.053L331.968 138.117C331.936 138.25 331.856 138.317 331.728 138.317C331.654 138.317 331.544 138.301 331.4 138.269C331.256 138.237 331.094 138.221 330.912 138.221C330.656 138.221 330.427 138.258 330.224 138.333C330.027 138.407 329.848 138.519 329.688 138.669C329.534 138.813 329.392 138.994 329.264 139.213C329.142 139.426 329.03 139.671 328.928 139.949V145.069H327.496V136.965H328.312C328.467 136.965 328.574 136.994 328.632 137.053C328.691 137.111 328.731 137.213 328.752 137.357L328.848 138.589Z" fill="#3D466E"/>
<path d="M334.756 143.117C335.018 143.469 335.303 143.717 335.612 143.861C335.922 144.005 336.268 144.077 336.652 144.077C337.41 144.077 337.991 143.807 338.396 143.269C338.802 142.73 339.004 141.962 339.004 140.965C339.004 140.437 338.956 139.983 338.86 139.605C338.77 139.226 338.636 138.917 338.46 138.677C338.284 138.431 338.068 138.253 337.812 138.141C337.556 138.029 337.266 137.973 336.94 137.973C336.476 137.973 336.068 138.079 335.716 138.293C335.37 138.506 335.05 138.807 334.756 139.197V143.117ZM334.684 138.221C335.026 137.799 335.42 137.461 335.868 137.205C336.316 136.949 336.828 136.821 337.404 136.821C337.874 136.821 338.298 136.911 338.676 137.093C339.055 137.269 339.378 137.533 339.644 137.885C339.911 138.231 340.116 138.663 340.26 139.181C340.404 139.698 340.476 140.293 340.476 140.965C340.476 141.562 340.396 142.119 340.236 142.637C340.076 143.149 339.844 143.594 339.54 143.973C339.242 144.346 338.874 144.642 338.436 144.861C338.004 145.074 337.516 145.181 336.972 145.181C336.476 145.181 336.05 145.098 335.692 144.933C335.34 144.762 335.028 144.527 334.756 144.229V147.813H333.324V136.965H334.18C334.383 136.965 334.508 137.063 334.556 137.261L334.684 138.221Z" fill="#3D466E"/>
<path d="M345.709 136.837C346.301 136.837 346.834 136.935 347.309 137.133C347.784 137.33 348.189 137.61 348.525 137.973C348.861 138.335 349.117 138.775 349.293 139.293C349.474 139.805 349.565 140.378 349.565 141.013C349.565 141.653 349.474 142.229 349.293 142.741C349.117 143.253 348.861 143.69 348.525 144.053C348.189 144.415 347.784 144.695 347.309 144.893C346.834 145.085 346.301 145.181 345.709 145.181C345.112 145.181 344.573 145.085 344.093 144.893C343.618 144.695 343.213 144.415 342.877 144.053C342.541 143.69 342.282 143.253 342.101 142.741C341.925 142.229 341.837 141.653 341.837 141.013C341.837 140.378 341.925 139.805 342.101 139.293C342.282 138.775 342.541 138.335 342.877 137.973C343.213 137.61 343.618 137.33 344.093 137.133C344.573 136.935 345.112 136.837 345.709 136.837ZM345.709 144.069C346.509 144.069 347.106 143.802 347.501 143.269C347.896 142.73 348.093 141.981 348.093 141.021C348.093 140.055 347.896 139.303 347.501 138.765C347.106 138.226 346.509 137.957 345.709 137.957C345.304 137.957 344.949 138.026 344.645 138.165C344.346 138.303 344.096 138.503 343.893 138.765C343.696 139.026 343.546 139.349 343.445 139.733C343.349 140.111 343.301 140.541 343.301 141.021C343.301 141.981 343.498 142.73 343.893 143.269C344.293 143.802 344.898 144.069 345.709 144.069Z" fill="#3D466E"/>
<path d="M352.723 138.589C352.979 138.034 353.294 137.602 353.667 137.293C354.041 136.978 354.497 136.821 355.035 136.821C355.206 136.821 355.369 136.839 355.523 136.877C355.683 136.914 355.825 136.973 355.947 137.053L355.843 138.117C355.811 138.25 355.731 138.317 355.603 138.317C355.529 138.317 355.419 138.301 355.275 138.269C355.131 138.237 354.969 138.221 354.787 138.221C354.531 138.221 354.302 138.258 354.099 138.333C353.902 138.407 353.723 138.519 353.563 138.669C353.409 138.813 353.267 138.994 353.139 139.213C353.017 139.426 352.905 139.671 352.803 139.949V145.069H351.371V136.965H352.187C352.342 136.965 352.449 136.994 352.507 137.053C352.566 137.111 352.606 137.213 352.627 137.357L352.723 138.589Z" fill="#3D466E"/>
<path d="M361.466 141.421C360.81 141.442 360.25 141.495 359.786 141.581C359.328 141.661 358.952 141.767 358.658 141.901C358.37 142.034 358.16 142.191 358.026 142.373C357.898 142.554 357.834 142.757 357.834 142.981C357.834 143.194 357.869 143.378 357.938 143.533C358.008 143.687 358.101 143.815 358.218 143.917C358.341 144.013 358.482 144.085 358.642 144.133C358.808 144.175 358.984 144.197 359.17 144.197C359.421 144.197 359.65 144.173 359.858 144.125C360.066 144.071 360.261 143.997 360.442 143.901C360.629 143.805 360.805 143.69 360.97 143.557C361.141 143.423 361.306 143.271 361.466 143.101V141.421ZM356.866 138.109C357.314 137.677 357.797 137.354 358.314 137.141C358.832 136.927 359.405 136.821 360.034 136.821C360.488 136.821 360.89 136.895 361.242 137.045C361.594 137.194 361.89 137.402 362.13 137.669C362.37 137.935 362.552 138.258 362.674 138.637C362.797 139.015 362.858 139.431 362.858 139.885V145.069H362.226C362.088 145.069 361.981 145.047 361.906 145.005C361.832 144.957 361.773 144.866 361.73 144.733L361.57 143.965C361.357 144.162 361.149 144.338 360.946 144.493C360.744 144.642 360.53 144.77 360.306 144.877C360.082 144.978 359.842 145.055 359.586 145.109C359.336 145.167 359.056 145.197 358.746 145.197C358.432 145.197 358.136 145.154 357.858 145.069C357.581 144.978 357.338 144.845 357.13 144.669C356.928 144.493 356.765 144.271 356.642 144.005C356.525 143.733 356.466 143.413 356.466 143.045C356.466 142.725 356.554 142.418 356.73 142.125C356.906 141.826 357.192 141.562 357.586 141.333C357.981 141.103 358.496 140.917 359.13 140.773C359.765 140.623 360.544 140.538 361.466 140.517V139.885C361.466 139.255 361.33 138.781 361.058 138.461C360.786 138.135 360.389 137.973 359.866 137.973C359.514 137.973 359.218 138.018 358.978 138.109C358.744 138.194 358.538 138.293 358.362 138.405C358.192 138.511 358.042 138.61 357.914 138.701C357.792 138.786 357.669 138.829 357.546 138.829C357.45 138.829 357.368 138.805 357.298 138.757C357.229 138.703 357.17 138.639 357.122 138.565L356.866 138.109Z" fill="#3D466E"/>
<path d="M372.438 145.069H371.014V138.157H366.838V143.021C366.838 143.362 366.921 143.615 367.086 143.781C367.251 143.946 367.465 144.029 367.726 144.029C367.875 144.029 368.003 144.01 368.11 143.973C368.222 143.93 368.318 143.885 368.398 143.837C368.478 143.789 368.545 143.746 368.598 143.709C368.657 143.666 368.707 143.645 368.75 143.645C368.825 143.645 368.891 143.69 368.95 143.781L369.366 144.461C369.121 144.69 368.825 144.871 368.478 145.005C368.131 145.133 367.774 145.197 367.406 145.197C366.766 145.197 366.273 145.018 365.926 144.661C365.585 144.303 365.414 143.789 365.414 143.117V138.157H364.438C364.353 138.157 364.281 138.133 364.222 138.085C364.163 138.031 364.134 137.951 364.134 137.845V137.277L365.462 137.101L365.79 134.605C365.806 134.525 365.841 134.461 365.894 134.413C365.953 134.359 366.027 134.333 366.118 134.333H366.838V137.125H372.438V145.069ZM372.79 134.365C372.79 134.503 372.761 134.634 372.702 134.757C372.649 134.874 372.574 134.978 372.478 135.069C372.387 135.159 372.281 135.231 372.158 135.285C372.035 135.338 371.905 135.365 371.766 135.365C371.627 135.365 371.497 135.338 371.374 135.285C371.257 135.231 371.153 135.159 371.062 135.069C370.971 134.978 370.899 134.874 370.846 134.757C370.793 134.634 370.766 134.503 370.766 134.365C370.766 134.226 370.793 134.095 370.846 133.973C370.899 133.845 370.971 133.735 371.062 133.645C371.153 133.549 371.257 133.474 371.374 133.421C371.497 133.367 371.627 133.341 371.766 133.341C371.905 133.341 372.035 133.367 372.158 133.421C372.281 133.474 372.387 133.549 372.478 133.645C372.574 133.735 372.649 133.845 372.702 133.973C372.761 134.095 372.79 134.226 372.79 134.365Z" fill="#3D466E"/>
<path d="M378.194 136.837C378.786 136.837 379.319 136.935 379.794 137.133C380.268 137.33 380.674 137.61 381.01 137.973C381.346 138.335 381.602 138.775 381.778 139.293C381.959 139.805 382.05 140.378 382.05 141.013C382.05 141.653 381.959 142.229 381.778 142.741C381.602 143.253 381.346 143.69 381.01 144.053C380.674 144.415 380.268 144.695 379.794 144.893C379.319 145.085 378.786 145.181 378.194 145.181C377.596 145.181 377.058 145.085 376.578 144.893C376.103 144.695 375.698 144.415 375.362 144.053C375.026 143.69 374.767 143.253 374.586 142.741C374.41 142.229 374.322 141.653 374.322 141.013C374.322 140.378 374.41 139.805 374.586 139.293C374.767 138.775 375.026 138.335 375.362 137.973C375.698 137.61 376.103 137.33 376.578 137.133C377.058 136.935 377.596 136.837 378.194 136.837ZM378.194 144.069C378.994 144.069 379.591 143.802 379.986 143.269C380.38 142.73 380.578 141.981 380.578 141.021C380.578 140.055 380.38 139.303 379.986 138.765C379.591 138.226 378.994 137.957 378.194 137.957C377.788 137.957 377.434 138.026 377.13 138.165C376.831 138.303 376.58 138.503 376.378 138.765C376.18 139.026 376.031 139.349 375.93 139.733C375.834 140.111 375.786 140.541 375.786 141.021C375.786 141.981 375.983 142.73 376.378 143.269C376.778 143.802 377.383 144.069 378.194 144.069Z" fill="#3D466E"/>
<path d="M385.2 138.141C385.376 137.943 385.562 137.765 385.76 137.605C385.957 137.445 386.165 137.309 386.384 137.197C386.608 137.079 386.842 136.991 387.088 136.933C387.338 136.869 387.608 136.837 387.896 136.837C388.338 136.837 388.728 136.911 389.064 137.061C389.405 137.205 389.688 137.413 389.912 137.685C390.141 137.951 390.314 138.274 390.432 138.653C390.549 139.031 390.608 139.45 390.608 139.909V145.069H389.176V139.909C389.176 139.295 389.034 138.821 388.752 138.485C388.474 138.143 388.05 137.973 387.48 137.973C387.058 137.973 386.664 138.074 386.296 138.277C385.933 138.479 385.597 138.754 385.288 139.101V145.069H383.856V136.965H384.712C384.914 136.965 385.04 137.063 385.088 137.261L385.2 138.141Z" fill="#3D466E"/>
<path d="M351 200.069H257C254.239 200.069 252 202.307 252 205.069V251.069C252 253.83 254.239 256.069 257 256.069H351C353.761 256.069 356 253.83 356 251.069V205.069C356 202.307 353.761 200.069 351 200.069Z" fill="white"/>
<path d="M349 198.069H255C252.239 198.069 250 200.307 250 203.069V249.069C250 251.83 252.239 254.069 255 254.069H349C351.761 254.069 354 251.83 354 249.069V203.069C354 200.307 351.761 198.069 349 198.069Z" fill="#F5F9FF"/>
<path d="M351.669 198.666C351.638 198.165 351.429 197.691 351.079 197.33C350.73 196.97 350.262 196.747 349.762 196.702C349.137 196.553 348.49 196.516 347.852 196.593H339.621C330.658 196.593 317.876 196.593 302.007 196.702H249.994C249.488 196.717 249.001 196.895 248.604 197.21C248.208 197.524 247.924 197.959 247.794 198.448V249.187C247.79 250.169 248.962 251.045 250.288 251.045H349.318C349.8 250.985 350.257 250.797 350.64 250.499C350.979 250.254 351.235 249.911 351.375 249.517C351.522 249.19 351.375 248.753 351.522 248.317V236.639C351.522 224.855 351.669 215.252 351.669 208.706V208.924C351.669 215.58 351.669 225.073 351.816 236.858V248.532C351.84 248.973 351.79 249.416 351.669 249.841C351.504 250.321 351.196 250.74 350.787 251.041C350.303 251.376 349.751 251.6 349.171 251.696C348.585 251.75 347.994 251.75 347.408 251.696H249.994C248.231 251.696 246.762 250.496 246.762 249.187V198.339C246.762 197.245 248.084 196.266 249.554 196.045C251.023 195.936 252.199 196.045 253.521 196.045H301.713C317.581 196.045 330.513 196.154 339.327 196.154H347.555C348.194 196.127 348.834 196.163 349.465 196.263C349.854 196.332 350.22 196.498 350.528 196.746C350.836 196.994 351.077 197.315 351.228 197.681C351.459 197.965 351.611 198.304 351.669 198.666V198.666Z" fill="#14365B"/>
<path d="M294.388 227.189C294.388 227.05 294.412 226.92 294.46 226.797C294.513 226.674 294.583 226.568 294.668 226.477C294.759 226.386 294.865 226.314 294.988 226.261C295.111 226.208 295.241 226.181 295.38 226.181C295.519 226.181 295.649 226.208 295.772 226.261C295.895 226.314 296.001 226.386 296.092 226.477C296.183 226.568 296.255 226.674 296.308 226.797C296.361 226.92 296.388 227.05 296.388 227.189C296.388 227.333 296.361 227.466 296.308 227.589C296.255 227.706 296.183 227.81 296.092 227.901C296.001 227.992 295.895 228.061 295.772 228.109C295.649 228.162 295.519 228.189 295.38 228.189C295.241 228.189 295.111 228.162 294.988 228.109C294.865 228.061 294.759 227.992 294.668 227.901C294.583 227.81 294.513 227.706 294.46 227.589C294.412 227.466 294.388 227.333 294.388 227.189ZM302.62 227.189C302.62 227.05 302.644 226.92 302.692 226.797C302.745 226.674 302.815 226.568 302.9 226.477C302.991 226.386 303.097 226.314 303.22 226.261C303.343 226.208 303.473 226.181 303.612 226.181C303.751 226.181 303.881 226.208 304.004 226.261C304.127 226.314 304.233 226.386 304.324 226.477C304.415 226.568 304.487 226.674 304.54 226.797C304.593 226.92 304.62 227.05 304.62 227.189C304.62 227.333 304.593 227.466 304.54 227.589C304.487 227.706 304.415 227.81 304.324 227.901C304.233 227.992 304.127 228.061 304.004 228.109C303.881 228.162 303.751 228.189 303.612 228.189C303.473 228.189 303.343 228.162 303.22 228.109C303.097 228.061 302.991 227.992 302.9 227.901C302.815 227.81 302.745 227.706 302.692 227.589C302.644 227.466 302.62 227.333 302.62 227.189ZM298.5 227.189C298.5 227.05 298.524 226.92 298.572 226.797C298.625 226.674 298.695 226.568 298.78 226.477C298.871 226.386 298.977 226.314 299.1 226.261C299.223 226.208 299.353 226.181 299.492 226.181C299.631 226.181 299.761 226.208 299.884 226.261C300.007 226.314 300.113 226.386 300.204 226.477C300.295 226.568 300.367 226.674 300.42 226.797C300.473 226.92 300.5 227.05 300.5 227.189C300.5 227.333 300.473 227.466 300.42 227.589C300.367 227.706 300.295 227.81 300.204 227.901C300.113 227.992 300.007 228.061 299.884 228.109C299.761 228.162 299.631 228.189 299.492 228.189C299.353 228.189 299.223 228.162 299.1 228.109C298.977 228.061 298.871 227.992 298.78 227.901C298.695 227.81 298.625 227.706 298.572 227.589C298.524 227.466 298.5 227.333 298.5 227.189Z" fill="#3D466E"/>
</g>
<defs>
<clipPath id="clip0">
<rect width="430" height="256.069" fill="white"/>
</clipPath>
</defs>
</svg>
