<svg width="425" height="233" viewBox="0 0 425 233" fill="none" xmlns="http://www.w3.org/2000/svg">
<g clip-path="url(#clip0)">
<path d="M334.604 157.072H68.604C65.8426 157.072 63.604 159.311 63.604 162.072V228.072C63.604 230.834 65.8426 233.072 68.604 233.072H334.604C337.365 233.072 339.604 230.834 339.604 228.072V162.072C339.604 159.311 337.365 157.072 334.604 157.072Z" fill="white"/>
<path d="M331.604 154.072H65.604C62.8426 154.072 60.604 156.311 60.604 159.072V225.072C60.604 227.834 62.8426 230.072 65.604 230.072H331.604C334.365 230.072 336.604 227.834 336.604 225.072V159.072C336.604 156.311 334.365 154.072 331.604 154.072Z" fill="#F5F9FF"/>
<path d="M332.219 154.683C332.168 154.356 332.036 154.046 331.834 153.783C331.449 153.183 329.909 152.283 327.215 151.983C325.557 151.777 323.883 151.727 322.215 151.833H300.656C277.176 151.833 243.689 151.833 202.118 151.983H65.8579C62.7789 152.133 60.4689 153.183 60.0839 154.389L60.0839 224.295C60.0839 225.648 63.1639 226.851 66.6279 226.851L326.061 226.851C327.248 226.786 328.418 226.533 329.525 226.099C330.287 225.85 330.957 225.379 331.45 224.746C331.835 224.295 331.45 223.694 331.835 223.092V207.005C331.835 190.767 332.22 177.537 332.22 168.516V168.82C332.22 177.991 332.22 191.072 332.605 207.309V223.393C332.663 224.019 332.529 224.647 332.22 225.193C331.638 225.968 330.831 226.546 329.91 226.847C328.544 227.33 327.12 227.632 325.676 227.747C324.136 227.897 322.597 227.747 321.057 227.747L65.8579 227.747C61.2389 227.753 57.3899 226.099 57.3899 224.295L57.3899 154.232C57.3899 152.732 60.8539 151.375 64.7029 151.075C68.5519 150.925 71.6309 151.075 75.0959 151.075H201.348C242.919 151.075 276.791 151.225 299.886 151.225H321.441C323.109 151.188 324.778 151.238 326.441 151.375C329.52 151.826 330.675 152.728 331.06 153.329C332.219 154.232 332.219 154.683 332.219 154.683Z" fill="#14365B"/>
<path d="M97.719 187.722C98.549 187.722 99.279 187.612 99.909 187.392C100.549 187.172 101.084 186.867 101.514 186.477C101.954 186.077 102.284 185.602 102.504 185.052C102.724 184.502 102.834 183.897 102.834 183.237C102.834 181.867 102.409 180.797 101.559 180.027C100.719 179.257 99.439 178.872 97.719 178.872H94.269V187.722H97.719ZM97.719 176.577C99.079 176.577 100.259 176.737 101.259 177.057C102.269 177.367 103.104 177.812 103.764 178.392C104.424 178.972 104.914 179.672 105.234 180.492C105.564 181.312 105.729 182.227 105.729 183.237C105.729 184.237 105.554 185.152 105.204 185.982C104.854 186.812 104.339 187.527 103.659 188.127C102.989 188.727 102.154 189.197 101.154 189.537C100.164 189.867 99.019 190.032 97.719 190.032H94.269V198.072H91.374V176.577H97.719Z" fill="#3D466E"/>
<path d="M111.004 185.922C111.484 184.882 112.074 184.072 112.774 183.492C113.474 182.902 114.329 182.607 115.339 182.607C115.659 182.607 115.964 182.642 116.254 182.712C116.554 182.782 116.819 182.892 117.049 183.042L116.854 185.037C116.794 185.287 116.644 185.412 116.404 185.412C116.264 185.412 116.059 185.382 115.789 185.322C115.519 185.262 115.214 185.232 114.874 185.232C114.394 185.232 113.964 185.302 113.584 185.442C113.214 185.582 112.879 185.792 112.579 186.072C112.289 186.342 112.024 186.682 111.784 187.092C111.554 187.492 111.344 187.952 111.154 188.472V198.072H108.469V182.877H109.999C110.289 182.877 110.489 182.932 110.599 183.042C110.709 183.152 110.784 183.342 110.824 183.612L111.004 185.922Z" fill="#3D466E"/>
<path d="M125.186 182.637C126.296 182.637 127.296 182.822 128.186 183.192C129.076 183.562 129.836 184.087 130.466 184.767C131.096 185.447 131.576 186.272 131.906 187.242C132.246 188.202 132.416 189.277 132.416 190.467C132.416 191.667 132.246 192.747 131.906 193.707C131.576 194.667 131.096 195.487 130.466 196.167C129.836 196.847 129.076 197.372 128.186 197.742C127.296 198.102 126.296 198.282 125.186 198.282C124.066 198.282 123.056 198.102 122.156 197.742C121.266 197.372 120.506 196.847 119.876 196.167C119.246 195.487 118.761 194.667 118.421 193.707C118.091 192.747 117.926 191.667 117.926 190.467C117.926 189.277 118.091 188.202 118.421 187.242C118.761 186.272 119.246 185.447 119.876 184.767C120.506 184.087 121.266 183.562 122.156 183.192C123.056 182.822 124.066 182.637 125.186 182.637ZM125.186 196.197C126.686 196.197 127.806 195.697 128.546 194.697C129.286 193.687 129.656 192.282 129.656 190.482C129.656 188.672 129.286 187.262 128.546 186.252C127.806 185.242 126.686 184.737 125.186 184.737C124.426 184.737 123.761 184.867 123.191 185.127C122.631 185.387 122.161 185.762 121.781 186.252C121.411 186.742 121.131 187.347 120.941 188.067C120.761 188.777 120.671 189.582 120.671 190.482C120.671 192.282 121.041 193.687 121.781 194.697C122.531 195.697 123.666 196.197 125.186 196.197Z" fill="#3D466E"/>
<path d="M145.703 186.492C145.203 185.822 144.663 185.357 144.083 185.097C143.503 184.827 142.853 184.692 142.133 184.692C140.723 184.692 139.638 185.197 138.878 186.207C138.118 187.217 137.738 188.657 137.738 190.527C137.738 191.517 137.823 192.367 137.993 193.077C138.163 193.777 138.413 194.357 138.743 194.817C139.073 195.267 139.478 195.597 139.958 195.807C140.438 196.017 140.983 196.122 141.593 196.122C142.473 196.122 143.238 195.922 143.888 195.522C144.548 195.122 145.153 194.557 145.703 193.827V186.492ZM148.373 175.977V198.072H146.783C146.403 198.072 146.163 197.887 146.063 197.517L145.823 195.672C145.173 196.452 144.433 197.082 143.603 197.562C142.773 198.042 141.813 198.282 140.723 198.282C139.853 198.282 139.063 198.117 138.353 197.787C137.643 197.447 137.038 196.952 136.538 196.302C136.038 195.652 135.653 194.842 135.383 193.872C135.113 192.902 134.978 191.787 134.978 190.527C134.978 189.407 135.128 188.367 135.428 187.407C135.728 186.437 136.158 185.597 136.718 184.887C137.278 184.177 137.963 183.622 138.773 183.222C139.593 182.812 140.513 182.607 141.533 182.607C142.463 182.607 143.258 182.767 143.918 183.087C144.588 183.397 145.183 183.832 145.703 184.392V175.977H148.373Z" fill="#3D466E"/>
<path d="M165.085 182.877V198.072H163.495C163.115 198.072 162.875 197.887 162.775 197.517L162.565 195.882C161.905 196.612 161.165 197.202 160.345 197.652C159.525 198.092 158.585 198.312 157.525 198.312C156.695 198.312 155.96 198.177 155.32 197.907C154.69 197.627 154.16 197.237 153.73 196.737C153.3 196.237 152.975 195.632 152.755 194.922C152.545 194.212 152.44 193.427 152.44 192.567V182.877H155.11V192.567C155.11 193.717 155.37 194.607 155.89 195.237C156.42 195.867 157.225 196.182 158.305 196.182C159.095 196.182 159.83 195.997 160.51 195.627C161.2 195.247 161.835 194.727 162.415 194.067V182.877H165.085Z" fill="#3D466E"/>
<path d="M179.893 185.577C179.813 185.687 179.733 185.772 179.653 185.832C179.573 185.892 179.463 185.922 179.323 185.922C179.173 185.922 179.008 185.862 178.828 185.742C178.648 185.612 178.423 185.472 178.153 185.322C177.893 185.172 177.568 185.037 177.178 184.917C176.798 184.787 176.328 184.722 175.768 184.722C175.018 184.722 174.358 184.857 173.788 185.127C173.218 185.387 172.738 185.767 172.348 186.267C171.968 186.767 171.678 187.372 171.478 188.082C171.288 188.792 171.193 189.587 171.193 190.467C171.193 191.387 171.298 192.207 171.508 192.927C171.718 193.637 172.013 194.237 172.393 194.727C172.783 195.207 173.248 195.577 173.788 195.837C174.338 196.087 174.953 196.212 175.633 196.212C176.283 196.212 176.818 196.137 177.238 195.987C177.658 195.827 178.003 195.652 178.273 195.462C178.553 195.272 178.783 195.102 178.963 194.952C179.153 194.792 179.338 194.712 179.518 194.712C179.738 194.712 179.908 194.797 180.028 194.967L180.778 195.942C180.448 196.352 180.073 196.702 179.653 196.992C179.233 197.282 178.778 197.527 178.288 197.727C177.808 197.917 177.303 198.057 176.773 198.147C176.243 198.237 175.703 198.282 175.153 198.282C174.203 198.282 173.318 198.107 172.498 197.757C171.688 197.407 170.983 196.902 170.383 196.242C169.783 195.572 169.313 194.752 168.973 193.782C168.633 192.812 168.463 191.707 168.463 190.467C168.463 189.337 168.618 188.292 168.928 187.332C169.248 186.372 169.708 185.547 170.308 184.857C170.918 184.157 171.663 183.612 172.543 183.222C173.433 182.832 174.453 182.637 175.603 182.637C176.673 182.637 177.613 182.812 178.423 183.162C179.243 183.502 179.968 183.987 180.598 184.617L179.893 185.577Z" fill="#3D466E"/>
<path d="M188.309 198.312C187.109 198.312 186.184 197.977 185.534 197.307C184.894 196.637 184.574 195.672 184.574 194.412V185.112H182.744C182.584 185.112 182.449 185.067 182.339 184.977C182.229 184.877 182.174 184.727 182.174 184.527V183.462L184.664 183.147L185.279 178.452C185.309 178.302 185.374 178.182 185.474 178.092C185.584 177.992 185.724 177.942 185.894 177.942H187.244V183.177H191.639V185.112H187.244V194.232C187.244 194.872 187.399 195.347 187.709 195.657C188.019 195.967 188.419 196.122 188.909 196.122C189.189 196.122 189.429 196.087 189.629 196.017C189.839 195.937 190.019 195.852 190.169 195.762C190.319 195.672 190.444 195.592 190.544 195.522C190.654 195.442 190.749 195.402 190.829 195.402C190.969 195.402 191.094 195.487 191.204 195.657L191.984 196.932C191.524 197.362 190.969 197.702 190.319 197.952C189.669 198.192 188.999 198.312 188.309 198.312Z" fill="#3D466E"/>
<path d="M204.607 185.922C205.087 184.882 205.677 184.072 206.377 183.492C207.077 182.902 207.932 182.607 208.942 182.607C209.262 182.607 209.567 182.642 209.857 182.712C210.157 182.782 210.422 182.892 210.652 183.042L210.457 185.037C210.397 185.287 210.247 185.412 210.007 185.412C209.867 185.412 209.662 185.382 209.392 185.322C209.122 185.262 208.817 185.232 208.477 185.232C207.997 185.232 207.567 185.302 207.187 185.442C206.817 185.582 206.482 185.792 206.182 186.072C205.892 186.342 205.627 186.682 205.387 187.092C205.157 187.492 204.947 187.952 204.757 188.472V198.072H202.072V182.877H203.602C203.892 182.877 204.092 182.932 204.202 183.042C204.312 183.152 204.387 183.342 204.427 183.612L204.607 185.922Z" fill="#3D466E"/>
<path d="M222.555 188.817C222.555 188.197 222.465 187.632 222.285 187.122C222.115 186.602 221.86 186.157 221.52 185.787C221.19 185.407 220.785 185.117 220.305 184.917C219.825 184.707 219.28 184.602 218.67 184.602C217.39 184.602 216.375 184.977 215.625 185.727C214.885 186.467 214.425 187.497 214.245 188.817H222.555ZM224.715 195.942C224.385 196.342 223.99 196.692 223.53 196.992C223.07 197.282 222.575 197.522 222.045 197.712C221.525 197.902 220.985 198.042 220.425 198.132C219.865 198.232 219.31 198.282 218.76 198.282C217.71 198.282 216.74 198.107 215.85 197.757C214.97 197.397 214.205 196.877 213.555 196.197C212.915 195.507 212.415 194.657 212.055 193.647C211.695 192.637 211.515 191.477 211.515 190.167C211.515 189.107 211.675 188.117 211.995 187.197C212.325 186.277 212.795 185.482 213.405 184.812C214.015 184.132 214.76 183.602 215.64 183.222C216.52 182.832 217.51 182.637 218.61 182.637C219.52 182.637 220.36 182.792 221.13 183.102C221.91 183.402 222.58 183.842 223.14 184.422C223.71 184.992 224.155 185.702 224.475 186.552C224.795 187.392 224.955 188.352 224.955 189.432C224.955 189.852 224.91 190.132 224.82 190.272C224.73 190.412 224.56 190.482 224.31 190.482H214.155C214.185 191.442 214.315 192.277 214.545 192.987C214.785 193.697 215.115 194.292 215.535 194.772C215.955 195.242 216.455 195.597 217.035 195.837C217.615 196.067 218.265 196.182 218.985 196.182C219.655 196.182 220.23 196.107 220.71 195.957C221.2 195.797 221.62 195.627 221.97 195.447C222.32 195.267 222.61 195.102 222.84 194.952C223.08 194.792 223.285 194.712 223.455 194.712C223.675 194.712 223.845 194.797 223.965 194.967L224.715 195.942Z" fill="#3D466E"/>
<path d="M240.932 182.877L234.737 198.072H232.337L226.142 182.877H228.317C228.537 182.877 228.717 182.932 228.857 183.042C228.997 183.152 229.092 183.282 229.142 183.432L232.997 193.212C233.117 193.582 233.222 193.942 233.312 194.292C233.402 194.642 233.487 194.992 233.567 195.342C233.647 194.992 233.732 194.642 233.822 194.292C233.912 193.942 234.022 193.582 234.152 193.212L238.052 183.432C238.112 183.272 238.212 183.142 238.352 183.042C238.492 182.932 238.657 182.877 238.847 182.877H240.932Z" fill="#3D466E"/>
<path d="M246.201 182.877V198.072H243.531V182.877H246.201ZM246.771 178.107C246.771 178.367 246.716 178.612 246.606 178.842C246.506 179.062 246.366 179.262 246.186 179.442C246.016 179.612 245.811 179.747 245.571 179.847C245.341 179.947 245.096 179.997 244.836 179.997C244.576 179.997 244.331 179.947 244.101 179.847C243.881 179.747 243.686 179.612 243.516 179.442C243.346 179.262 243.211 179.062 243.111 178.842C243.011 178.612 242.961 178.367 242.961 178.107C242.961 177.847 243.011 177.602 243.111 177.372C243.211 177.132 243.346 176.927 243.516 176.757C243.686 176.577 243.881 176.437 244.101 176.337C244.331 176.237 244.576 176.187 244.836 176.187C245.096 176.187 245.341 176.237 245.571 176.337C245.811 176.437 246.016 176.577 246.186 176.757C246.366 176.927 246.506 177.132 246.606 177.372C246.716 177.602 246.771 177.847 246.771 178.107Z" fill="#3D466E"/>
<path d="M260.758 188.817C260.758 188.197 260.668 187.632 260.488 187.122C260.318 186.602 260.063 186.157 259.723 185.787C259.393 185.407 258.988 185.117 258.508 184.917C258.028 184.707 257.483 184.602 256.873 184.602C255.593 184.602 254.578 184.977 253.828 185.727C253.088 186.467 252.628 187.497 252.448 188.817H260.758ZM262.918 195.942C262.588 196.342 262.193 196.692 261.733 196.992C261.273 197.282 260.778 197.522 260.248 197.712C259.728 197.902 259.188 198.042 258.628 198.132C258.068 198.232 257.513 198.282 256.963 198.282C255.913 198.282 254.943 198.107 254.053 197.757C253.173 197.397 252.408 196.877 251.758 196.197C251.118 195.507 250.618 194.657 250.258 193.647C249.898 192.637 249.718 191.477 249.718 190.167C249.718 189.107 249.878 188.117 250.198 187.197C250.528 186.277 250.998 185.482 251.608 184.812C252.218 184.132 252.963 183.602 253.843 183.222C254.723 182.832 255.713 182.637 256.813 182.637C257.723 182.637 258.563 182.792 259.333 183.102C260.113 183.402 260.783 183.842 261.343 184.422C261.913 184.992 262.358 185.702 262.678 186.552C262.998 187.392 263.158 188.352 263.158 189.432C263.158 189.852 263.113 190.132 263.023 190.272C262.933 190.412 262.763 190.482 262.513 190.482H252.358C252.388 191.442 252.518 192.277 252.748 192.987C252.988 193.697 253.318 194.292 253.738 194.772C254.158 195.242 254.658 195.597 255.238 195.837C255.818 196.067 256.468 196.182 257.188 196.182C257.858 196.182 258.433 196.107 258.913 195.957C259.403 195.797 259.823 195.627 260.173 195.447C260.523 195.267 260.813 195.102 261.043 194.952C261.283 194.792 261.488 194.712 261.658 194.712C261.878 194.712 262.048 194.797 262.168 194.967L262.918 195.942Z" fill="#3D466E"/>
<path d="M287.246 182.877L282.326 198.072H280.211C279.951 198.072 279.771 197.902 279.671 197.562L276.311 187.257C276.231 187.027 276.166 186.797 276.116 186.567C276.066 186.327 276.016 186.092 275.966 185.862C275.916 186.092 275.866 186.327 275.816 186.567C275.766 186.797 275.701 187.032 275.621 187.272L272.201 197.562C272.111 197.902 271.911 198.072 271.601 198.072H269.591L264.671 182.877H266.771C266.981 182.877 267.156 182.932 267.296 183.042C267.446 183.152 267.546 183.282 267.596 183.432L270.506 193.212C270.676 193.932 270.811 194.612 270.911 195.252C271.001 194.922 271.091 194.587 271.181 194.247C271.281 193.907 271.386 193.562 271.496 193.212L274.706 183.372C274.756 183.222 274.841 183.097 274.961 182.997C275.091 182.897 275.246 182.847 275.426 182.847H276.596C276.796 182.847 276.961 182.897 277.091 182.997C277.221 183.097 277.311 183.222 277.361 183.372L280.496 193.212C280.606 193.562 280.706 193.907 280.796 194.247C280.886 194.587 280.971 194.922 281.051 195.252C281.101 194.922 281.161 194.592 281.231 194.262C281.311 193.922 281.396 193.572 281.486 193.212L284.456 183.432C284.506 183.272 284.601 183.142 284.741 183.042C284.881 182.932 285.046 182.877 285.236 182.877H287.246Z" fill="#3D466E"/>
<path d="M298.578 185.382C298.458 185.602 298.273 185.712 298.023 185.712C297.873 185.712 297.703 185.657 297.513 185.547C297.323 185.437 297.088 185.317 296.808 185.187C296.538 185.047 296.213 184.922 295.833 184.812C295.453 184.692 295.003 184.632 294.483 184.632C294.033 184.632 293.628 184.692 293.268 184.812C292.908 184.922 292.598 185.077 292.338 185.277C292.088 185.477 291.893 185.712 291.753 185.982C291.623 186.242 291.558 186.527 291.558 186.837C291.558 187.227 291.668 187.552 291.888 187.812C292.118 188.072 292.418 188.297 292.788 188.487C293.158 188.677 293.578 188.847 294.048 188.997C294.518 189.137 294.998 189.292 295.488 189.462C295.988 189.622 296.473 189.802 296.943 190.002C297.413 190.202 297.833 190.452 298.203 190.752C298.573 191.052 298.868 191.422 299.088 191.862C299.318 192.292 299.433 192.812 299.433 193.422C299.433 194.122 299.308 194.772 299.058 195.372C298.808 195.962 298.438 196.477 297.948 196.917C297.458 197.347 296.858 197.687 296.148 197.937C295.438 198.187 294.618 198.312 293.688 198.312C292.628 198.312 291.668 198.142 290.808 197.802C289.948 197.452 289.218 197.007 288.618 196.467L289.248 195.447C289.328 195.317 289.423 195.217 289.533 195.147C289.643 195.077 289.783 195.042 289.953 195.042C290.133 195.042 290.323 195.112 290.523 195.252C290.723 195.392 290.963 195.547 291.243 195.717C291.533 195.887 291.883 196.042 292.293 196.182C292.703 196.322 293.213 196.392 293.823 196.392C294.343 196.392 294.798 196.327 295.188 196.197C295.578 196.057 295.903 195.872 296.163 195.642C296.423 195.412 296.613 195.147 296.733 194.847C296.863 194.547 296.928 194.227 296.928 193.887C296.928 193.467 296.813 193.122 296.583 192.852C296.363 192.572 296.068 192.337 295.698 192.147C295.328 191.947 294.903 191.777 294.423 191.637C293.953 191.487 293.468 191.332 292.968 191.172C292.478 191.012 291.993 190.832 291.513 190.632C291.043 190.422 290.623 190.162 290.253 189.852C289.883 189.542 289.583 189.162 289.353 188.712C289.133 188.252 289.023 187.697 289.023 187.047C289.023 186.467 289.143 185.912 289.383 185.382C289.623 184.842 289.973 184.372 290.433 183.972C290.893 183.562 291.458 183.237 292.128 182.997C292.798 182.757 293.563 182.637 294.423 182.637C295.423 182.637 296.318 182.797 297.108 183.117C297.908 183.427 298.598 183.857 299.178 184.407L298.578 185.382Z" fill="#3D466E"/>
<path d="M415.604 31.0724H204.604C201.843 31.0724 199.604 33.311 199.604 36.0724V91.0724C199.604 93.8338 201.843 96.0724 204.604 96.0724H415.604C418.365 96.0724 420.604 93.8338 420.604 91.0724V36.0724C420.604 33.311 418.365 31.0724 415.604 31.0724Z" fill="white"/>
<path d="M412.604 28.0724H201.604C198.843 28.0724 196.604 30.311 196.604 33.0724V88.0724C196.604 90.8338 198.843 93.0724 201.604 93.0724H412.604C415.365 93.0724 417.604 90.8338 417.604 88.0724V33.0724C417.604 30.311 415.365 28.0724 412.604 28.0724Z" fill="#F5F9FF"/>
<path d="M413.411 28.1374C413.371 27.86 413.265 27.5962 413.102 27.3684C412.793 26.8554 411.558 26.0864 409.402 25.8294C408.072 25.6533 406.727 25.6105 405.388 25.7014H388.095C369.262 25.7014 342.402 25.7014 309.059 25.8294L199.766 25.8294C197.296 25.9574 195.444 26.8554 195.135 27.8814V87.5124C195.135 88.6664 197.605 89.6924 200.384 89.6924L408.474 89.6924C409.43 89.6365 410.369 89.4198 411.253 89.0514C411.873 88.8322 412.411 88.4297 412.797 87.8974C413.106 87.5124 412.797 86.9974 413.106 86.4864V72.7654C413.106 58.9154 413.415 47.6304 413.415 39.9354V40.1914C413.415 48.0144 413.415 59.1714 413.724 73.0214V86.7434C413.772 87.2755 413.665 87.81 413.415 88.2824C412.96 88.934 412.312 89.4272 411.563 89.6934C410.47 90.1046 409.326 90.3633 408.163 90.4624C406.931 90.5264 405.696 90.5264 404.463 90.4624L199.766 90.4624C196.061 90.4624 192.974 89.0514 192.974 87.5124V27.7524C192.974 26.4704 195.753 25.3194 198.84 25.0594C201.927 24.9314 204.397 25.0594 207.176 25.0594H308.441C341.784 25.0594 368.953 25.1874 387.477 25.1874H404.766C406.105 25.1551 407.446 25.1979 408.78 25.3154C411.25 25.7004 412.18 26.4694 412.48 26.9824C413.411 27.7524 413.411 28.1374 413.411 28.1374Z" fill="#14365B"/>
<path d="M220.118 56.7925C220.782 56.7925 221.366 56.7045 221.87 56.5285C222.382 56.3525 222.81 56.1085 223.154 55.7965C223.506 55.4765 223.77 55.0965 223.946 54.6565C224.122 54.2165 224.21 53.7325 224.21 53.2045C224.21 52.1085 223.87 51.2525 223.19 50.6365C222.518 50.0205 221.494 49.7125 220.118 49.7125H217.358V56.7925H220.118ZM220.118 47.8765C221.206 47.8765 222.15 48.0045 222.95 48.2605C223.758 48.5085 224.426 48.8645 224.954 49.3285C225.482 49.7925 225.874 50.3525 226.13 51.0085C226.394 51.6645 226.526 52.3965 226.526 53.2045C226.526 54.0045 226.386 54.7365 226.106 55.4005C225.826 56.0645 225.414 56.6365 224.87 57.1165C224.334 57.5965 223.666 57.9725 222.866 58.2445C222.074 58.5085 221.158 58.6405 220.118 58.6405H217.358V65.0725H215.042V47.8765H220.118Z" fill="#3D466E"/>
<path d="M230.746 55.3525C231.13 54.5205 231.602 53.8725 232.162 53.4085C232.722 52.9365 233.406 52.7005 234.214 52.7005C234.47 52.7005 234.714 52.7285 234.946 52.7845C235.186 52.8405 235.398 52.9285 235.582 53.0485L235.426 54.6445C235.378 54.8445 235.258 54.9445 235.066 54.9445C234.954 54.9445 234.79 54.9205 234.574 54.8725C234.358 54.8245 234.114 54.8005 233.842 54.8005C233.458 54.8005 233.114 54.8565 232.81 54.9685C232.514 55.0805 232.246 55.2485 232.006 55.4725C231.774 55.6885 231.562 55.9605 231.37 56.2885C231.186 56.6085 231.018 56.9765 230.866 57.3925V65.0725H228.718V52.9165H229.942C230.174 52.9165 230.334 52.9605 230.422 53.0485C230.51 53.1365 230.57 53.2885 230.602 53.5045L230.746 55.3525Z" fill="#3D466E"/>
<path d="M242.092 52.7245C242.98 52.7245 243.78 52.8725 244.492 53.1685C245.204 53.4645 245.812 53.8845 246.316 54.4285C246.82 54.9725 247.204 55.6325 247.468 56.4085C247.74 57.1765 247.876 58.0365 247.876 58.9885C247.876 59.9485 247.74 60.8125 247.468 61.5805C247.204 62.3485 246.82 63.0045 246.316 63.5485C245.812 64.0925 245.204 64.5125 244.492 64.8085C243.78 65.0965 242.98 65.2405 242.092 65.2405C241.196 65.2405 240.388 65.0965 239.668 64.8085C238.956 64.5125 238.348 64.0925 237.844 63.5485C237.34 63.0045 236.952 62.3485 236.68 61.5805C236.416 60.8125 236.284 59.9485 236.284 58.9885C236.284 58.0365 236.416 57.1765 236.68 56.4085C236.952 55.6325 237.34 54.9725 237.844 54.4285C238.348 53.8845 238.956 53.4645 239.668 53.1685C240.388 52.8725 241.196 52.7245 242.092 52.7245ZM242.092 63.5725C243.292 63.5725 244.188 63.1725 244.78 62.3725C245.372 61.5645 245.668 60.4405 245.668 59.0005C245.668 57.5525 245.372 56.4245 244.78 55.6165C244.188 54.8085 243.292 54.4045 242.092 54.4045C241.484 54.4045 240.952 54.5085 240.496 54.7165C240.048 54.9245 239.672 55.2245 239.368 55.6165C239.072 56.0085 238.848 56.4925 238.696 57.0685C238.552 57.6365 238.48 58.2805 238.48 59.0005C238.48 60.4405 238.776 61.5645 239.368 62.3725C239.968 63.1725 240.876 63.5725 242.092 63.5725Z" fill="#3D466E"/>
<path d="M258.505 55.8085C258.105 55.2725 257.673 54.9005 257.209 54.6925C256.745 54.4765 256.225 54.3685 255.649 54.3685C254.521 54.3685 253.653 54.7725 253.045 55.5805C252.437 56.3885 252.133 57.5405 252.133 59.0365C252.133 59.8285 252.201 60.5085 252.337 61.0765C252.473 61.6365 252.673 62.1005 252.937 62.4685C253.201 62.8285 253.525 63.0925 253.909 63.2605C254.293 63.4285 254.729 63.5125 255.217 63.5125C255.921 63.5125 256.533 63.3525 257.053 63.0325C257.581 62.7125 258.065 62.2605 258.505 61.6765V55.8085ZM260.641 47.3965V65.0725H259.369C259.065 65.0725 258.873 64.9245 258.793 64.6285L258.601 63.1525C258.081 63.7765 257.489 64.2805 256.825 64.6645C256.161 65.0485 255.393 65.2405 254.521 65.2405C253.825 65.2405 253.193 65.1085 252.625 64.8445C252.057 64.5725 251.573 64.1765 251.173 63.6565C250.773 63.1365 250.465 62.4885 250.249 61.7125C250.033 60.9365 249.925 60.0445 249.925 59.0365C249.925 58.1405 250.045 57.3085 250.285 56.5405C250.525 55.7645 250.869 55.0925 251.317 54.5245C251.765 53.9565 252.313 53.5125 252.961 53.1925C253.617 52.8645 254.353 52.7005 255.169 52.7005C255.913 52.7005 256.549 52.8285 257.077 53.0845C257.613 53.3325 258.089 53.6805 258.505 54.1285V47.3965H260.641Z" fill="#3D466E"/>
<path d="M274.011 52.9165V65.0725H272.739C272.435 65.0725 272.243 64.9245 272.163 64.6285L271.995 63.3205C271.467 63.9045 270.875 64.3765 270.219 64.7365C269.563 65.0885 268.811 65.2645 267.963 65.2645C267.299 65.2645 266.711 65.1565 266.199 64.9405C265.695 64.7165 265.271 64.4045 264.927 64.0045C264.583 63.6045 264.323 63.1205 264.147 62.5525C263.979 61.9845 263.895 61.3565 263.895 60.6685V52.9165H266.031V60.6685C266.031 61.5885 266.239 62.3005 266.655 62.8045C267.079 63.3085 267.723 63.5605 268.587 63.5605C269.219 63.5605 269.807 63.4125 270.351 63.1165C270.903 62.8125 271.411 62.3965 271.875 61.8685V52.9165H274.011Z" fill="#3D466E"/>
<path d="M285.858 55.0765C285.794 55.1645 285.73 55.2325 285.666 55.2805C285.602 55.3285 285.514 55.3525 285.402 55.3525C285.282 55.3525 285.15 55.3045 285.006 55.2085C284.862 55.1045 284.682 54.9925 284.466 54.8725C284.258 54.7525 283.998 54.6445 283.686 54.5485C283.382 54.4445 283.006 54.3925 282.558 54.3925C281.958 54.3925 281.43 54.5005 280.974 54.7165C280.518 54.9245 280.134 55.2285 279.822 55.6285C279.518 56.0285 279.286 56.5125 279.126 57.0805C278.974 57.6485 278.898 58.2845 278.898 58.9885C278.898 59.7245 278.982 60.3805 279.15 60.9565C279.318 61.5245 279.554 62.0045 279.858 62.3965C280.17 62.7805 280.542 63.0765 280.974 63.2845C281.414 63.4845 281.906 63.5845 282.45 63.5845C282.97 63.5845 283.398 63.5245 283.734 63.4045C284.07 63.2765 284.346 63.1365 284.562 62.9845C284.786 62.8325 284.97 62.6965 285.114 62.5765C285.266 62.4485 285.414 62.3845 285.558 62.3845C285.734 62.3845 285.87 62.4525 285.966 62.5885L286.566 63.3685C286.302 63.6965 286.002 63.9765 285.666 64.2085C285.33 64.4405 284.966 64.6365 284.574 64.7965C284.19 64.9485 283.786 65.0605 283.362 65.1325C282.938 65.2045 282.506 65.2405 282.066 65.2405C281.306 65.2405 280.598 65.1005 279.942 64.8205C279.294 64.5405 278.73 64.1365 278.25 63.6085C277.77 63.0725 277.394 62.4165 277.122 61.6405C276.85 60.8645 276.714 59.9805 276.714 58.9885C276.714 58.0845 276.838 57.2485 277.086 56.4805C277.342 55.7125 277.71 55.0525 278.19 54.5005C278.678 53.9405 279.274 53.5045 279.978 53.1925C280.69 52.8805 281.506 52.7245 282.426 52.7245C283.282 52.7245 284.034 52.8645 284.682 53.1445C285.338 53.4165 285.918 53.8045 286.422 54.3085L285.858 55.0765Z" fill="#3D466E"/>
<path d="M292.591 65.2645C291.631 65.2645 290.891 64.9965 290.371 64.4605C289.859 63.9245 289.603 63.1525 289.603 62.1445V54.7045H288.139C288.011 54.7045 287.903 54.6685 287.815 54.5965C287.727 54.5165 287.683 54.3965 287.683 54.2365V53.3845L289.675 53.1325L290.167 49.3765C290.191 49.2565 290.243 49.1605 290.323 49.0885C290.411 49.0085 290.523 48.9685 290.659 48.9685H291.739V53.1565H295.255V54.7045H291.739V62.0005C291.739 62.5125 291.863 62.8925 292.111 63.1405C292.359 63.3885 292.679 63.5125 293.071 63.5125C293.295 63.5125 293.487 63.4845 293.647 63.4285C293.815 63.3645 293.959 63.2965 294.079 63.2245C294.199 63.1525 294.299 63.0885 294.379 63.0325C294.467 62.9685 294.543 62.9365 294.607 62.9365C294.719 62.9365 294.819 63.0045 294.907 63.1405L295.531 64.1605C295.163 64.5045 294.719 64.7765 294.199 64.9765C293.679 65.1685 293.143 65.2645 292.591 65.2645Z" fill="#3D466E"/>
<path d="M312.061 55.0765C311.997 55.1645 311.933 55.2325 311.869 55.2805C311.805 55.3285 311.717 55.3525 311.605 55.3525C311.485 55.3525 311.353 55.3045 311.209 55.2085C311.065 55.1045 310.885 54.9925 310.669 54.8725C310.461 54.7525 310.201 54.6445 309.889 54.5485C309.585 54.4445 309.209 54.3925 308.761 54.3925C308.161 54.3925 307.633 54.5005 307.177 54.7165C306.721 54.9245 306.337 55.2285 306.025 55.6285C305.721 56.0285 305.489 56.5125 305.329 57.0805C305.177 57.6485 305.101 58.2845 305.101 58.9885C305.101 59.7245 305.185 60.3805 305.353 60.9565C305.521 61.5245 305.757 62.0045 306.061 62.3965C306.373 62.7805 306.745 63.0765 307.177 63.2845C307.617 63.4845 308.109 63.5845 308.653 63.5845C309.173 63.5845 309.601 63.5245 309.937 63.4045C310.273 63.2765 310.549 63.1365 310.765 62.9845C310.989 62.8325 311.173 62.6965 311.317 62.5765C311.469 62.4485 311.617 62.3845 311.761 62.3845C311.937 62.3845 312.073 62.4525 312.169 62.5885L312.769 63.3685C312.505 63.6965 312.205 63.9765 311.869 64.2085C311.533 64.4405 311.169 64.6365 310.777 64.7965C310.393 64.9485 309.989 65.0605 309.565 65.1325C309.141 65.2045 308.709 65.2405 308.269 65.2405C307.509 65.2405 306.801 65.1005 306.145 64.8205C305.497 64.5405 304.933 64.1365 304.453 63.6085C303.973 63.0725 303.597 62.4165 303.325 61.6405C303.053 60.8645 302.917 59.9805 302.917 58.9885C302.917 58.0845 303.041 57.2485 303.289 56.4805C303.545 55.7125 303.913 55.0525 304.393 54.5005C304.881 53.9405 305.477 53.5045 306.181 53.1925C306.893 52.8805 307.709 52.7245 308.629 52.7245C309.485 52.7245 310.237 52.8645 310.885 53.1445C311.541 53.4165 312.121 53.8045 312.625 54.3085L312.061 55.0765Z" fill="#3D466E"/>
<path d="M321.65 59.6005C320.666 59.6325 319.826 59.7125 319.13 59.8405C318.442 59.9605 317.878 60.1205 317.438 60.3205C317.006 60.5205 316.69 60.7565 316.49 61.0285C316.298 61.3005 316.202 61.6045 316.202 61.9405C316.202 62.2605 316.254 62.5365 316.358 62.7685C316.462 63.0005 316.602 63.1925 316.778 63.3445C316.962 63.4885 317.174 63.5965 317.414 63.6685C317.662 63.7325 317.926 63.7645 318.206 63.7645C318.582 63.7645 318.926 63.7285 319.238 63.6565C319.55 63.5765 319.842 63.4645 320.114 63.3205C320.394 63.1765 320.658 63.0045 320.906 62.8045C321.162 62.6045 321.41 62.3765 321.65 62.1205V59.6005ZM314.75 54.6325C315.422 53.9845 316.146 53.5005 316.922 53.1805C317.698 52.8605 318.558 52.7005 319.502 52.7005C320.182 52.7005 320.786 52.8125 321.314 53.0365C321.842 53.2605 322.286 53.5725 322.646 53.9725C323.006 54.3725 323.278 54.8565 323.462 55.4245C323.646 55.9925 323.738 56.6165 323.738 57.2965V65.0725H322.79C322.582 65.0725 322.422 65.0405 322.31 64.9765C322.198 64.9045 322.11 64.7685 322.046 64.5685L321.806 63.4165C321.486 63.7125 321.174 63.9765 320.87 64.2085C320.566 64.4325 320.246 64.6245 319.91 64.7845C319.574 64.9365 319.214 65.0525 318.83 65.1325C318.454 65.2205 318.034 65.2645 317.57 65.2645C317.098 65.2645 316.654 65.2005 316.238 65.0725C315.822 64.9365 315.458 64.7365 315.146 64.4725C314.842 64.2085 314.598 63.8765 314.414 63.4765C314.238 63.0685 314.15 62.5885 314.15 62.0365C314.15 61.5565 314.282 61.0965 314.546 60.6565C314.81 60.2085 315.238 59.8125 315.83 59.4685C316.422 59.1245 317.194 58.8445 318.146 58.6285C319.098 58.4045 320.266 58.2765 321.65 58.2445V57.2965C321.65 56.3525 321.446 55.6405 321.038 55.1605C320.63 54.6725 320.034 54.4285 319.25 54.4285C318.722 54.4285 318.278 54.4965 317.918 54.6325C317.566 54.7605 317.258 54.9085 316.994 55.0765C316.738 55.2365 316.514 55.3845 316.322 55.5205C316.138 55.6485 315.954 55.7125 315.77 55.7125C315.626 55.7125 315.502 55.6765 315.398 55.6045C315.294 55.5245 315.206 55.4285 315.134 55.3165L314.75 54.6325Z" fill="#3D466E"/>
<path d="M330.559 65.2645C329.599 65.2645 328.859 64.9965 328.339 64.4605C327.827 63.9245 327.571 63.1525 327.571 62.1445V54.7045H326.107C325.979 54.7045 325.871 54.6685 325.783 54.5965C325.695 54.5165 325.651 54.3965 325.651 54.2365V53.3845L327.643 53.1325L328.135 49.3765C328.159 49.2565 328.211 49.1605 328.291 49.0885C328.379 49.0085 328.491 48.9685 328.627 48.9685H329.707V53.1565H333.223V54.7045H329.707V62.0005C329.707 62.5125 329.831 62.8925 330.079 63.1405C330.327 63.3885 330.647 63.5125 331.039 63.5125C331.263 63.5125 331.455 63.4845 331.615 63.4285C331.783 63.3645 331.927 63.2965 332.047 63.2245C332.167 63.1525 332.267 63.0885 332.347 63.0325C332.435 62.9685 332.511 62.9365 332.575 62.9365C332.687 62.9365 332.787 63.0045 332.875 63.1405L333.499 64.1605C333.131 64.5045 332.687 64.7765 332.167 64.9765C331.647 65.1685 331.111 65.2645 330.559 65.2645Z" fill="#3D466E"/>
<path d="M343.495 57.6685C343.495 57.1725 343.423 56.7205 343.279 56.3125C343.143 55.8965 342.939 55.5405 342.667 55.2445C342.403 54.9405 342.079 54.7085 341.695 54.5485C341.311 54.3805 340.875 54.2965 340.387 54.2965C339.363 54.2965 338.551 54.5965 337.951 55.1965C337.359 55.7885 336.991 56.6125 336.847 57.6685H343.495ZM345.223 63.3685C344.959 63.6885 344.643 63.9685 344.275 64.2085C343.907 64.4405 343.511 64.6325 343.087 64.7845C342.671 64.9365 342.239 65.0485 341.791 65.1205C341.343 65.2005 340.899 65.2405 340.459 65.2405C339.619 65.2405 338.843 65.1005 338.131 64.8205C337.427 64.5325 336.815 64.1165 336.295 63.5725C335.783 63.0205 335.383 62.3405 335.095 61.5325C334.807 60.7245 334.663 59.7965 334.663 58.7485C334.663 57.9005 334.791 57.1085 335.047 56.3725C335.311 55.6365 335.687 55.0005 336.175 54.4645C336.663 53.9205 337.259 53.4965 337.963 53.1925C338.667 52.8805 339.459 52.7245 340.339 52.7245C341.067 52.7245 341.739 52.8485 342.355 53.0965C342.979 53.3365 343.515 53.6885 343.963 54.1525C344.419 54.6085 344.775 55.1765 345.031 55.8565C345.287 56.5285 345.415 57.2965 345.415 58.1605C345.415 58.4965 345.379 58.7205 345.307 58.8325C345.235 58.9445 345.099 59.0005 344.899 59.0005H336.775C336.799 59.7685 336.903 60.4365 337.087 61.0045C337.279 61.5725 337.543 62.0485 337.879 62.4325C338.215 62.8085 338.615 63.0925 339.079 63.2845C339.543 63.4685 340.063 63.5605 340.639 63.5605C341.175 63.5605 341.635 63.5005 342.019 63.3805C342.411 63.2525 342.747 63.1165 343.027 62.9725C343.307 62.8285 343.539 62.6965 343.723 62.5765C343.915 62.4485 344.079 62.3845 344.215 62.3845C344.391 62.3845 344.527 62.4525 344.623 62.5885L345.223 63.3685Z" fill="#3D466E"/>
<path d="M352.274 59.1325C352.706 59.1325 353.086 59.0725 353.414 58.9525C353.742 58.8325 354.018 58.6645 354.242 58.4485C354.466 58.2325 354.634 57.9765 354.746 57.6805C354.858 57.3765 354.914 57.0445 354.914 56.6845C354.914 55.9405 354.686 55.3485 354.23 54.9085C353.782 54.4685 353.13 54.2485 352.274 54.2485C351.41 54.2485 350.75 54.4685 350.294 54.9085C349.846 55.3485 349.622 55.9405 349.622 56.6845C349.622 57.0445 349.678 57.3765 349.79 57.6805C349.91 57.9765 350.082 58.2325 350.306 58.4485C350.53 58.6645 350.806 58.8325 351.134 58.9525C351.462 59.0725 351.842 59.1325 352.274 59.1325ZM356.126 65.7325C356.126 65.4365 356.042 65.1965 355.874 65.0125C355.706 64.8285 355.478 64.6845 355.19 64.5805C354.91 64.4765 354.582 64.4045 354.206 64.3645C353.83 64.3165 353.43 64.2805 353.006 64.2565C352.59 64.2325 352.166 64.2085 351.734 64.1845C351.302 64.1605 350.886 64.1205 350.486 64.0645C350.038 64.2725 349.67 64.5365 349.382 64.8565C349.102 65.1685 348.962 65.5365 348.962 65.9605C348.962 66.2325 349.03 66.4845 349.166 66.7165C349.31 66.9565 349.526 67.1605 349.814 67.3285C350.102 67.5045 350.462 67.6405 350.894 67.7365C351.334 67.8405 351.85 67.8925 352.442 67.8925C353.018 67.8925 353.534 67.8405 353.99 67.7365C354.446 67.6325 354.83 67.4845 355.142 67.2925C355.462 67.1005 355.706 66.8725 355.874 66.6085C356.042 66.3445 356.126 66.0525 356.126 65.7325ZM358.298 53.3965V54.1885C358.298 54.4525 358.13 54.6205 357.794 54.6925L356.414 54.8725C356.686 55.4005 356.822 55.9845 356.822 56.6245C356.822 57.2165 356.706 57.7565 356.474 58.2445C356.25 58.7245 355.938 59.1365 355.538 59.4805C355.138 59.8245 354.658 60.0885 354.098 60.2725C353.538 60.4565 352.93 60.5485 352.274 60.5485C351.706 60.5485 351.17 60.4805 350.666 60.3445C350.41 60.5045 350.214 60.6765 350.078 60.8605C349.942 61.0365 349.874 61.2165 349.874 61.4005C349.874 61.6885 349.99 61.9085 350.222 62.0605C350.462 62.2045 350.774 62.3085 351.158 62.3725C351.542 62.4365 351.978 62.4765 352.466 62.4925C352.962 62.5085 353.466 62.5365 353.978 62.5765C354.498 62.6085 355.002 62.6685 355.49 62.7565C355.986 62.8445 356.426 62.9885 356.81 63.1885C357.194 63.3885 357.502 63.6645 357.734 64.0165C357.974 64.3685 358.094 64.8245 358.094 65.3845C358.094 65.9045 357.962 66.4085 357.698 66.8965C357.442 67.3845 357.07 67.8165 356.582 68.1925C356.094 68.5765 355.494 68.8805 354.782 69.1045C354.078 69.3365 353.282 69.4525 352.394 69.4525C351.506 69.4525 350.73 69.3645 350.066 69.1885C349.402 69.0125 348.85 68.7765 348.41 68.4805C347.97 68.1845 347.638 67.8405 347.414 67.4485C347.198 67.0645 347.09 66.6605 347.09 66.2365C347.09 65.6365 347.278 65.1285 347.654 64.7125C348.03 64.2965 348.546 63.9645 349.202 63.7165C348.842 63.5565 348.554 63.3445 348.338 63.0805C348.13 62.8085 348.026 62.4445 348.026 61.9885C348.026 61.8125 348.058 61.6325 348.122 61.4485C348.186 61.2565 348.282 61.0685 348.41 60.8845C348.546 60.6925 348.71 60.5125 348.902 60.3445C349.094 60.1765 349.318 60.0285 349.574 59.9005C348.974 59.5645 348.506 59.1205 348.17 58.5685C347.834 58.0085 347.666 57.3605 347.666 56.6245C347.666 56.0325 347.778 55.4965 348.002 55.0165C348.234 54.5285 348.554 54.1165 348.962 53.7805C349.37 53.4365 349.854 53.1725 350.414 52.9885C350.982 52.8045 351.602 52.7125 352.274 52.7125C352.802 52.7125 353.294 52.7725 353.75 52.8925C354.206 53.0045 354.622 53.1725 354.998 53.3965H358.298Z" fill="#3D466E"/>
<path d="M365.443 52.7245C366.331 52.7245 367.131 52.8725 367.843 53.1685C368.555 53.4645 369.163 53.8845 369.667 54.4285C370.171 54.9725 370.555 55.6325 370.819 56.4085C371.091 57.1765 371.227 58.0365 371.227 58.9885C371.227 59.9485 371.091 60.8125 370.819 61.5805C370.555 62.3485 370.171 63.0045 369.667 63.5485C369.163 64.0925 368.555 64.5125 367.843 64.8085C367.131 65.0965 366.331 65.2405 365.443 65.2405C364.547 65.2405 363.739 65.0965 363.019 64.8085C362.307 64.5125 361.699 64.0925 361.195 63.5485C360.691 63.0045 360.303 62.3485 360.031 61.5805C359.767 60.8125 359.635 59.9485 359.635 58.9885C359.635 58.0365 359.767 57.1765 360.031 56.4085C360.303 55.6325 360.691 54.9725 361.195 54.4285C361.699 53.8845 362.307 53.4645 363.019 53.1685C363.739 52.8725 364.547 52.7245 365.443 52.7245ZM365.443 63.5725C366.643 63.5725 367.539 63.1725 368.131 62.3725C368.723 61.5645 369.019 60.4405 369.019 59.0005C369.019 57.5525 368.723 56.4245 368.131 55.6165C367.539 54.8085 366.643 54.4045 365.443 54.4045C364.835 54.4045 364.303 54.5085 363.847 54.7165C363.399 54.9245 363.023 55.2245 362.719 55.6165C362.423 56.0085 362.199 56.4925 362.047 57.0685C361.903 57.6365 361.831 58.2805 361.831 59.0005C361.831 60.4405 362.127 61.5645 362.719 62.3725C363.319 63.1725 364.227 63.5725 365.443 63.5725Z" fill="#3D466E"/>
<path d="M375.965 55.3525C376.349 54.5205 376.821 53.8725 377.381 53.4085C377.941 52.9365 378.625 52.7005 379.433 52.7005C379.689 52.7005 379.933 52.7285 380.165 52.7845C380.405 52.8405 380.617 52.9285 380.801 53.0485L380.645 54.6445C380.597 54.8445 380.477 54.9445 380.285 54.9445C380.173 54.9445 380.009 54.9205 379.793 54.8725C379.577 54.8245 379.333 54.8005 379.061 54.8005C378.677 54.8005 378.333 54.8565 378.029 54.9685C377.733 55.0805 377.465 55.2485 377.225 55.4725C376.993 55.6885 376.781 55.9605 376.589 56.2885C376.405 56.6085 376.237 56.9765 376.085 57.3925V65.0725H373.937V52.9165H375.161C375.393 52.9165 375.553 52.9605 375.641 53.0485C375.729 53.1365 375.789 53.2885 375.821 53.5045L375.965 55.3525Z" fill="#3D466E"/>
<path d="M393.167 52.9165L386.387 68.6605C386.315 68.8205 386.223 68.9485 386.111 69.0445C386.007 69.1405 385.843 69.1885 385.619 69.1885H384.035L386.255 64.3645L381.239 52.9165H383.087C383.271 52.9165 383.415 52.9645 383.519 53.0605C383.631 53.1485 383.707 53.2485 383.747 53.3605L386.999 61.0165C387.127 61.3525 387.235 61.7045 387.323 62.0725C387.435 61.6965 387.555 61.3405 387.683 61.0045L390.839 53.3605C390.887 53.2325 390.967 53.1285 391.079 53.0485C391.199 52.9605 391.331 52.9165 391.475 52.9165H393.167Z" fill="#3D466E"/>
<path d="M215.604 84.0724H11.604C8.84258 84.0724 6.604 86.311 6.604 89.0724V143.072C6.604 145.834 8.84258 148.072 11.604 148.072H215.604C218.365 148.072 220.604 145.834 220.604 143.072V89.0724C220.604 86.311 218.365 84.0724 215.604 84.0724Z" fill="white"/>
<path d="M212.604 81.0724H8.604C5.84258 81.0724 3.604 83.311 3.604 86.0724V140.072C3.604 142.834 5.84258 145.072 8.604 145.072H212.604C215.365 145.072 217.604 142.834 217.604 140.072V86.0724C217.604 83.311 215.365 81.0724 212.604 81.0724Z" fill="#F5F9FF"/>
<path d="M213.047 81.2813C213.008 81.0106 212.906 80.7531 212.747 80.5303C212.447 80.0303 211.255 79.2793 209.166 79.0303C207.88 78.8585 206.581 78.8166 205.287 78.9053H188.577C170.377 78.9053 144.416 78.9053 112.191 79.0303H6.564C4.177 79.1553 2.387 80.0303 2.088 81.0303L2.088 139.221C2.089 140.347 4.476 141.349 7.161 141.349H208.272C209.196 141.294 210.104 141.083 210.957 140.723C211.557 140.508 212.078 140.116 212.449 139.597C212.749 139.222 212.449 138.721 212.749 138.22V124.83C212.749 111.315 213.049 100.303 213.049 92.7943V93.0443C213.049 100.678 213.049 111.565 213.349 125.08V138.47C213.394 138.989 213.29 139.509 213.049 139.97C212.61 140.605 211.985 141.086 211.259 141.347C210.205 141.748 209.1 142.001 207.977 142.098C206.784 142.161 205.589 142.161 204.396 142.098H6.564C2.984 142.099 0 140.723 0 139.221L0 80.9063C0 79.6553 2.685 78.5283 5.669 78.2783C8.653 78.1533 11.04 78.2783 13.725 78.2783H111.6C143.826 78.2783 170.083 78.4033 187.986 78.4033H204.696C205.99 78.3719 207.285 78.4136 208.575 78.5283C210.962 78.9033 211.857 79.6543 212.156 80.1553C213.047 80.9063 213.047 81.2813 213.047 81.2813Z" fill="#14365B"/>
<path d="M34.244 107.792C34.908 107.792 35.492 107.704 35.996 107.528C36.508 107.352 36.936 107.108 37.28 106.796C37.632 106.476 37.896 106.096 38.072 105.656C38.248 105.216 38.336 104.732 38.336 104.204C38.336 103.108 37.996 102.252 37.316 101.636C36.644 101.02 35.62 100.712 34.244 100.712H31.484V107.792H34.244ZM34.244 98.8764C35.332 98.8764 36.276 99.0044 37.076 99.2604C37.884 99.5084 38.552 99.8644 39.08 100.328C39.608 100.792 40 101.352 40.256 102.008C40.52 102.664 40.652 103.396 40.652 104.204C40.652 105.004 40.512 105.736 40.232 106.4C39.952 107.064 39.54 107.636 38.996 108.116C38.46 108.596 37.792 108.972 36.992 109.244C36.2 109.508 35.284 109.64 34.244 109.64H31.484V116.072H29.168V98.8764H34.244Z" fill="#3D466E"/>
<path d="M44.8717 106.352C45.2557 105.52 45.7277 104.872 46.2877 104.408C46.8477 103.936 47.5317 103.7 48.3397 103.7C48.5957 103.7 48.8397 103.728 49.0717 103.784C49.3117 103.84 49.5237 103.928 49.7077 104.048L49.5517 105.644C49.5037 105.844 49.3837 105.944 49.1917 105.944C49.0797 105.944 48.9157 105.92 48.6997 105.872C48.4837 105.824 48.2397 105.8 47.9677 105.8C47.5837 105.8 47.2397 105.856 46.9357 105.968C46.6397 106.08 46.3717 106.248 46.1317 106.472C45.8997 106.688 45.6877 106.96 45.4957 107.288C45.3117 107.608 45.1437 107.976 44.9917 108.392V116.072H42.8437V103.916H44.0677C44.2997 103.916 44.4597 103.96 44.5477 104.048C44.6357 104.136 44.6957 104.288 44.7277 104.504L44.8717 106.352Z" fill="#3D466E"/>
<path d="M56.2177 103.724C57.1057 103.724 57.9057 103.872 58.6177 104.168C59.3297 104.464 59.9377 104.884 60.4417 105.428C60.9457 105.972 61.3297 106.632 61.5937 107.408C61.8657 108.176 62.0017 109.036 62.0017 109.988C62.0017 110.948 61.8657 111.812 61.5937 112.58C61.3297 113.348 60.9457 114.004 60.4417 114.548C59.9377 115.092 59.3297 115.512 58.6177 115.808C57.9057 116.096 57.1057 116.24 56.2177 116.24C55.3217 116.24 54.5137 116.096 53.7937 115.808C53.0817 115.512 52.4737 115.092 51.9697 114.548C51.4657 114.004 51.0777 113.348 50.8057 112.58C50.5417 111.812 50.4097 110.948 50.4097 109.988C50.4097 109.036 50.5417 108.176 50.8057 107.408C51.0777 106.632 51.4657 105.972 51.9697 105.428C52.4737 104.884 53.0817 104.464 53.7937 104.168C54.5137 103.872 55.3217 103.724 56.2177 103.724ZM56.2177 114.572C57.4177 114.572 58.3137 114.172 58.9057 113.372C59.4977 112.564 59.7937 111.44 59.7937 110C59.7937 108.552 59.4977 107.424 58.9057 106.616C58.3137 105.808 57.4177 105.404 56.2177 105.404C55.6097 105.404 55.0777 105.508 54.6217 105.716C54.1737 105.924 53.7977 106.224 53.4937 106.616C53.1977 107.008 52.9737 107.492 52.8217 108.068C52.6777 108.636 52.6057 109.28 52.6057 110C52.6057 111.44 52.9017 112.564 53.4937 113.372C54.0937 114.172 55.0017 114.572 56.2177 114.572Z" fill="#3D466E"/>
<path d="M72.6308 106.808C72.2308 106.272 71.7988 105.9 71.3348 105.692C70.8708 105.476 70.3508 105.368 69.7748 105.368C68.6468 105.368 67.7788 105.772 67.1708 106.58C66.5628 107.388 66.2588 108.54 66.2588 110.036C66.2588 110.828 66.3268 111.508 66.4628 112.076C66.5988 112.636 66.7988 113.1 67.0628 113.468C67.3268 113.828 67.6508 114.092 68.0348 114.26C68.4188 114.428 68.8548 114.512 69.3428 114.512C70.0468 114.512 70.6588 114.352 71.1788 114.032C71.7068 113.712 72.1908 113.26 72.6308 112.676V106.808ZM74.7668 98.3964V116.072H73.4948C73.1908 116.072 72.9988 115.924 72.9188 115.628L72.7268 114.152C72.2068 114.776 71.6148 115.28 70.9508 115.664C70.2868 116.048 69.5188 116.24 68.6468 116.24C67.9508 116.24 67.3188 116.108 66.7508 115.844C66.1828 115.572 65.6988 115.176 65.2988 114.656C64.8988 114.136 64.5908 113.488 64.3748 112.712C64.1588 111.936 64.0508 111.044 64.0508 110.036C64.0508 109.14 64.1708 108.308 64.4108 107.54C64.6508 106.764 64.9948 106.092 65.4428 105.524C65.8908 104.956 66.4388 104.512 67.0868 104.192C67.7428 103.864 68.4788 103.7 69.2948 103.7C70.0388 103.7 70.6748 103.828 71.2028 104.084C71.7388 104.332 72.2148 104.68 72.6308 105.128V98.3964H74.7668Z" fill="#3D466E"/>
<path d="M88.1365 103.916V116.072H86.8645C86.5605 116.072 86.3685 115.924 86.2885 115.628L86.1205 114.32C85.5925 114.904 85.0005 115.376 84.3445 115.736C83.6885 116.088 82.9365 116.264 82.0885 116.264C81.4245 116.264 80.8365 116.156 80.3245 115.94C79.8205 115.716 79.3965 115.404 79.0525 115.004C78.7085 114.604 78.4485 114.12 78.2725 113.552C78.1045 112.984 78.0205 112.356 78.0205 111.668V103.916H80.1565V111.668C80.1565 112.588 80.3645 113.3 80.7805 113.804C81.2045 114.308 81.8485 114.56 82.7125 114.56C83.3445 114.56 83.9325 114.412 84.4765 114.116C85.0285 113.812 85.5365 113.396 86.0005 112.868V103.916H88.1365Z" fill="#3D466E"/>
<path d="M99.9833 106.076C99.9193 106.164 99.8553 106.232 99.7913 106.28C99.7273 106.328 99.6393 106.352 99.5273 106.352C99.4073 106.352 99.2753 106.304 99.1313 106.208C98.9874 106.104 98.8074 105.992 98.5913 105.872C98.3833 105.752 98.1234 105.644 97.8113 105.548C97.5073 105.444 97.1313 105.392 96.6833 105.392C96.0833 105.392 95.5553 105.5 95.0993 105.716C94.6433 105.924 94.2593 106.228 93.9473 106.628C93.6433 107.028 93.4113 107.512 93.2513 108.08C93.0993 108.648 93.0233 109.284 93.0233 109.988C93.0233 110.724 93.1073 111.38 93.2753 111.956C93.4433 112.524 93.6793 113.004 93.9833 113.396C94.2953 113.78 94.6673 114.076 95.0993 114.284C95.5393 114.484 96.0313 114.584 96.5753 114.584C97.0953 114.584 97.5233 114.524 97.8593 114.404C98.1953 114.276 98.4713 114.136 98.6873 113.984C98.9113 113.832 99.0953 113.696 99.2393 113.576C99.3913 113.448 99.5393 113.384 99.6833 113.384C99.8593 113.384 99.9953 113.452 100.091 113.588L100.691 114.368C100.427 114.696 100.127 114.976 99.7913 115.208C99.4553 115.44 99.0913 115.636 98.6993 115.796C98.3153 115.948 97.9113 116.06 97.4873 116.132C97.0633 116.204 96.6313 116.24 96.1913 116.24C95.4313 116.24 94.7233 116.1 94.0673 115.82C93.4193 115.54 92.8553 115.136 92.3753 114.608C91.8953 114.072 91.5193 113.416 91.2473 112.64C90.9753 111.864 90.8393 110.98 90.8393 109.988C90.8393 109.084 90.9633 108.248 91.2113 107.48C91.4673 106.712 91.8353 106.052 92.3153 105.5C92.8033 104.94 93.3993 104.504 94.1033 104.192C94.8153 103.88 95.6313 103.724 96.5513 103.724C97.4073 103.724 98.1593 103.864 98.8073 104.144C99.4633 104.416 100.043 104.804 100.547 105.308L99.9833 106.076Z" fill="#3D466E"/>
<path d="M106.716 116.264C105.756 116.264 105.016 115.996 104.496 115.46C103.984 114.924 103.728 114.152 103.728 113.144V105.704H102.264C102.136 105.704 102.028 105.668 101.94 105.596C101.852 105.516 101.808 105.396 101.808 105.236V104.384L103.8 104.132L104.292 100.376C104.316 100.256 104.368 100.16 104.448 100.088C104.536 100.008 104.648 99.9684 104.784 99.9684H105.864V104.156H109.38V105.704H105.864V113C105.864 113.512 105.988 113.892 106.236 114.14C106.484 114.388 106.804 114.512 107.196 114.512C107.42 114.512 107.612 114.484 107.772 114.428C107.94 114.364 108.084 114.296 108.204 114.224C108.324 114.152 108.424 114.088 108.504 114.032C108.592 113.968 108.668 113.936 108.732 113.936C108.844 113.936 108.944 114.004 109.032 114.14L109.656 115.16C109.288 115.504 108.844 115.776 108.324 115.976C107.804 116.168 107.268 116.264 106.716 116.264Z" fill="#3D466E"/>
<path d="M119.754 106.352C120.138 105.52 120.61 104.872 121.17 104.408C121.73 103.936 122.414 103.7 123.222 103.7C123.478 103.7 123.722 103.728 123.954 103.784C124.194 103.84 124.406 103.928 124.59 104.048L124.434 105.644C124.386 105.844 124.266 105.944 124.074 105.944C123.962 105.944 123.798 105.92 123.582 105.872C123.366 105.824 123.122 105.8 122.85 105.8C122.466 105.8 122.122 105.856 121.818 105.968C121.522 106.08 121.254 106.248 121.014 106.472C120.782 106.688 120.57 106.96 120.378 107.288C120.194 107.608 120.026 107.976 119.874 108.392V116.072H117.726V103.916H118.95C119.182 103.916 119.342 103.96 119.43 104.048C119.518 104.136 119.578 104.288 119.61 104.504L119.754 106.352Z" fill="#3D466E"/>
<path d="M134.112 108.668C134.112 108.172 134.04 107.72 133.896 107.312C133.76 106.896 133.556 106.54 133.284 106.244C133.02 105.94 132.696 105.708 132.312 105.548C131.928 105.38 131.492 105.296 131.004 105.296C129.98 105.296 129.168 105.596 128.568 106.196C127.976 106.788 127.608 107.612 127.464 108.668H134.112ZM135.84 114.368C135.576 114.688 135.26 114.968 134.892 115.208C134.524 115.44 134.128 115.632 133.704 115.784C133.288 115.936 132.856 116.048 132.408 116.12C131.96 116.2 131.516 116.24 131.076 116.24C130.236 116.24 129.46 116.1 128.748 115.82C128.044 115.532 127.432 115.116 126.912 114.572C126.4 114.02 126 113.34 125.712 112.532C125.424 111.724 125.28 110.796 125.28 109.748C125.28 108.9 125.408 108.108 125.664 107.372C125.928 106.636 126.304 106 126.792 105.464C127.28 104.92 127.876 104.496 128.58 104.192C129.284 103.88 130.076 103.724 130.956 103.724C131.684 103.724 132.356 103.848 132.972 104.096C133.596 104.336 134.132 104.688 134.58 105.152C135.036 105.608 135.392 106.176 135.648 106.856C135.904 107.528 136.032 108.296 136.032 109.16C136.032 109.496 135.996 109.72 135.924 109.832C135.852 109.944 135.716 110 135.516 110H127.392C127.416 110.768 127.52 111.436 127.704 112.004C127.896 112.572 128.16 113.048 128.496 113.432C128.832 113.808 129.232 114.092 129.696 114.284C130.16 114.468 130.68 114.56 131.256 114.56C131.792 114.56 132.252 114.5 132.636 114.38C133.028 114.252 133.364 114.116 133.644 113.972C133.924 113.828 134.156 113.696 134.34 113.576C134.532 113.448 134.696 113.384 134.832 113.384C135.008 113.384 135.144 113.452 135.24 113.588L135.84 114.368Z" fill="#3D466E"/>
<path d="M148.814 103.916L143.858 116.072H141.938L136.982 103.916H138.722C138.898 103.916 139.042 103.96 139.154 104.048C139.266 104.136 139.342 104.24 139.382 104.36L142.466 112.184C142.562 112.48 142.646 112.768 142.718 113.048C142.79 113.328 142.858 113.608 142.922 113.888C142.986 113.608 143.054 113.328 143.126 113.048C143.198 112.768 143.286 112.48 143.39 112.184L146.51 104.36C146.558 104.232 146.638 104.128 146.75 104.048C146.862 103.96 146.994 103.916 147.146 103.916H148.814Z" fill="#3D466E"/>
<path d="M153.029 103.916V116.072H150.893V103.916H153.029ZM153.485 100.1C153.485 100.308 153.441 100.504 153.353 100.688C153.273 100.864 153.161 101.024 153.017 101.168C152.881 101.304 152.717 101.412 152.525 101.492C152.341 101.572 152.145 101.612 151.937 101.612C151.729 101.612 151.533 101.572 151.349 101.492C151.173 101.412 151.017 101.304 150.881 101.168C150.745 101.024 150.637 100.864 150.557 100.688C150.477 100.504 150.437 100.308 150.437 100.1C150.437 99.8924 150.477 99.6964 150.557 99.5124C150.637 99.3204 150.745 99.1564 150.881 99.0204C151.017 98.8764 151.173 98.7644 151.349 98.6844C151.533 98.6044 151.729 98.5644 151.937 98.5644C152.145 98.5644 152.341 98.6044 152.525 98.6844C152.717 98.7644 152.881 98.8764 153.017 99.0204C153.161 99.1564 153.273 99.3204 153.353 99.5124C153.441 99.6964 153.485 99.8924 153.485 100.1Z" fill="#3D466E"/>
<path d="M164.675 108.668C164.675 108.172 164.603 107.72 164.459 107.312C164.323 106.896 164.119 106.54 163.847 106.244C163.583 105.94 163.259 105.708 162.875 105.548C162.491 105.38 162.055 105.296 161.567 105.296C160.543 105.296 159.731 105.596 159.131 106.196C158.539 106.788 158.171 107.612 158.027 108.668H164.675ZM166.403 114.368C166.139 114.688 165.823 114.968 165.455 115.208C165.087 115.44 164.691 115.632 164.267 115.784C163.851 115.936 163.419 116.048 162.971 116.12C162.523 116.2 162.079 116.24 161.639 116.24C160.799 116.24 160.023 116.1 159.311 115.82C158.607 115.532 157.995 115.116 157.475 114.572C156.963 114.02 156.563 113.34 156.275 112.532C155.987 111.724 155.843 110.796 155.843 109.748C155.843 108.9 155.971 108.108 156.227 107.372C156.491 106.636 156.867 106 157.355 105.464C157.843 104.92 158.439 104.496 159.143 104.192C159.847 103.88 160.639 103.724 161.519 103.724C162.247 103.724 162.919 103.848 163.535 104.096C164.159 104.336 164.695 104.688 165.143 105.152C165.599 105.608 165.955 106.176 166.211 106.856C166.467 107.528 166.595 108.296 166.595 109.16C166.595 109.496 166.559 109.72 166.487 109.832C166.415 109.944 166.279 110 166.079 110H157.955C157.979 110.768 158.083 111.436 158.267 112.004C158.459 112.572 158.723 113.048 159.059 113.432C159.395 113.808 159.795 114.092 160.259 114.284C160.723 114.468 161.243 114.56 161.819 114.56C162.355 114.56 162.815 114.5 163.199 114.38C163.591 114.252 163.927 114.116 164.207 113.972C164.487 113.828 164.719 113.696 164.903 113.576C165.095 113.448 165.259 113.384 165.395 113.384C165.571 113.384 165.707 113.452 165.803 113.588L166.403 114.368Z" fill="#3D466E"/>
<path d="M185.865 103.916L181.929 116.072H180.237C180.029 116.072 179.885 115.936 179.805 115.664L177.117 107.42C177.053 107.236 177.001 107.052 176.961 106.868C176.921 106.676 176.881 106.488 176.841 106.304C176.801 106.488 176.761 106.676 176.721 106.868C176.681 107.052 176.629 107.24 176.565 107.432L173.829 115.664C173.757 115.936 173.597 116.072 173.349 116.072H171.741L167.805 103.916H169.485C169.653 103.916 169.793 103.96 169.905 104.048C170.025 104.136 170.105 104.24 170.145 104.36L172.473 112.184C172.609 112.76 172.717 113.304 172.797 113.816C172.869 113.552 172.941 113.284 173.013 113.012C173.093 112.74 173.177 112.464 173.265 112.184L175.833 104.312C175.873 104.192 175.941 104.092 176.037 104.012C176.141 103.932 176.265 103.892 176.409 103.892H177.345C177.505 103.892 177.637 103.932 177.741 104.012C177.845 104.092 177.917 104.192 177.957 104.312L180.465 112.184C180.553 112.464 180.633 112.74 180.705 113.012C180.777 113.284 180.845 113.552 180.909 113.816C180.949 113.552 180.997 113.288 181.053 113.024C181.117 112.752 181.185 112.472 181.257 112.184L183.633 104.36C183.673 104.232 183.749 104.128 183.861 104.048C183.973 103.96 184.105 103.916 184.257 103.916H185.865Z" fill="#3D466E"/>
<path d="M419.604 114.072H286.604C283.843 114.072 281.604 116.311 281.604 119.072V165.072C281.604 167.834 283.843 170.072 286.604 170.072H419.604C422.365 170.072 424.604 167.834 424.604 165.072V119.072C424.604 116.311 422.365 114.072 419.604 114.072Z" fill="white"/>
<path d="M417.604 112.072H284.604C281.843 112.072 279.604 114.311 279.604 117.072V163.072C279.604 165.834 281.843 168.072 284.604 168.072H417.604C420.365 168.072 422.604 165.834 422.604 163.072V117.072C422.604 114.311 420.365 112.072 417.604 112.072Z" fill="#F5F9FF"/>
<path d="M420.22 112.669C420.196 112.44 420.128 112.218 420.02 112.014C419.74 111.632 419.379 111.316 418.962 111.09C418.546 110.863 418.084 110.732 417.611 110.705C416.749 110.556 415.872 110.519 415.001 110.596H403.756C391.508 110.596 374.041 110.596 352.356 110.705H281.28C279.674 110.814 278.469 111.578 278.268 112.451V163.19C278.268 164.172 279.875 165.048 281.682 165.048H417.007C417.641 164.996 418.257 164.81 418.814 164.502C419.242 164.288 419.592 163.945 419.814 163.52C420.014 163.193 419.814 162.756 420.014 162.32V150.642C420.014 138.858 420.214 129.255 420.214 122.709V122.927C420.214 129.583 420.214 139.076 420.414 150.861V162.535C420.446 162.981 420.378 163.428 420.214 163.844C419.952 164.362 419.532 164.783 419.014 165.044C418.321 165.389 417.574 165.611 416.805 165.699C416.003 165.754 415.198 165.754 414.396 165.699H281.28C278.871 165.699 276.863 164.499 276.863 163.19V112.342C276.863 111.248 278.67 110.269 280.678 110.048C282.686 109.939 284.292 110.048 286.099 110.048H351.955C373.639 110.048 391.308 110.157 403.355 110.157H414.599C415.471 110.13 416.343 110.166 417.209 110.266C418.815 110.593 419.418 111.248 419.618 111.684C420.22 112.342 420.22 112.669 420.22 112.669Z" fill="#14365B"/>
<path d="M308.064 136.552C308.507 136.552 308.896 136.494 309.232 136.376C309.573 136.259 309.859 136.096 310.088 135.888C310.323 135.675 310.499 135.422 310.616 135.128C310.733 134.835 310.792 134.512 310.792 134.16C310.792 133.43 310.565 132.859 310.112 132.448C309.664 132.038 308.981 131.832 308.064 131.832H306.224V136.552H308.064ZM308.064 130.608C308.789 130.608 309.419 130.694 309.952 130.864C310.491 131.03 310.936 131.267 311.288 131.576C311.64 131.886 311.901 132.259 312.072 132.696C312.248 133.134 312.336 133.622 312.336 134.16C312.336 134.694 312.243 135.182 312.056 135.624C311.869 136.067 311.595 136.448 311.232 136.768C310.875 137.088 310.429 137.339 309.896 137.52C309.368 137.696 308.757 137.784 308.064 137.784H306.224V142.072H304.68V130.608H308.064Z" fill="#3D466E"/>
<path d="M315.149 135.592C315.405 135.038 315.72 134.606 316.093 134.296C316.466 133.982 316.922 133.824 317.461 133.824C317.632 133.824 317.794 133.843 317.949 133.88C318.109 133.918 318.25 133.976 318.373 134.056L318.269 135.12C318.237 135.254 318.157 135.32 318.029 135.32C317.954 135.32 317.845 135.304 317.701 135.272C317.557 135.24 317.394 135.224 317.213 135.224C316.957 135.224 316.728 135.262 316.525 135.336C316.328 135.411 316.149 135.523 315.989 135.672C315.834 135.816 315.693 135.998 315.565 136.216C315.442 136.43 315.33 136.675 315.229 136.952V142.072H313.797V133.968H314.613C314.768 133.968 314.874 133.998 314.933 134.056C314.992 134.115 315.032 134.216 315.053 134.36L315.149 135.592Z" fill="#3D466E"/>
<path d="M322.713 133.84C323.305 133.84 323.838 133.939 324.313 134.136C324.788 134.334 325.193 134.614 325.529 134.976C325.865 135.339 326.121 135.779 326.297 136.296C326.478 136.808 326.569 137.382 326.569 138.016C326.569 138.656 326.478 139.232 326.297 139.744C326.121 140.256 325.865 140.694 325.529 141.056C325.193 141.419 324.788 141.699 324.313 141.896C323.838 142.088 323.305 142.184 322.713 142.184C322.116 142.184 321.577 142.088 321.097 141.896C320.622 141.699 320.217 141.419 319.881 141.056C319.545 140.694 319.286 140.256 319.105 139.744C318.929 139.232 318.841 138.656 318.841 138.016C318.841 137.382 318.929 136.808 319.105 136.296C319.286 135.779 319.545 135.339 319.881 134.976C320.217 134.614 320.622 134.334 321.097 134.136C321.577 133.939 322.116 133.84 322.713 133.84ZM322.713 141.072C323.513 141.072 324.11 140.806 324.505 140.272C324.9 139.734 325.097 138.984 325.097 138.024C325.097 137.059 324.9 136.307 324.505 135.768C324.11 135.23 323.513 134.96 322.713 134.96C322.308 134.96 321.953 135.03 321.649 135.168C321.35 135.307 321.1 135.507 320.897 135.768C320.7 136.03 320.55 136.352 320.449 136.736C320.353 137.115 320.305 137.544 320.305 138.024C320.305 138.984 320.502 139.734 320.897 140.272C321.297 140.806 321.902 141.072 322.713 141.072Z" fill="#3D466E"/>
<path d="M333.655 135.896C333.389 135.539 333.101 135.291 332.791 135.152C332.482 135.008 332.135 134.936 331.751 134.936C330.999 134.936 330.421 135.206 330.015 135.744C329.61 136.283 329.407 137.051 329.407 138.048C329.407 138.576 329.453 139.03 329.543 139.408C329.634 139.782 329.767 140.091 329.943 140.336C330.119 140.576 330.335 140.752 330.591 140.864C330.847 140.976 331.138 141.032 331.463 141.032C331.933 141.032 332.341 140.926 332.687 140.712C333.039 140.499 333.362 140.198 333.655 139.808V135.896ZM335.079 130.288V142.072H334.231C334.029 142.072 333.901 141.974 333.847 141.776L333.719 140.792C333.373 141.208 332.978 141.544 332.535 141.8C332.093 142.056 331.581 142.184 330.999 142.184C330.535 142.184 330.114 142.096 329.735 141.92C329.357 141.739 329.034 141.475 328.767 141.128C328.501 140.782 328.295 140.35 328.151 139.832C328.007 139.315 327.935 138.72 327.935 138.048C327.935 137.451 328.015 136.896 328.175 136.384C328.335 135.867 328.565 135.419 328.863 135.04C329.162 134.662 329.527 134.366 329.959 134.152C330.397 133.934 330.887 133.824 331.431 133.824C331.927 133.824 332.351 133.91 332.703 134.08C333.061 134.246 333.378 134.478 333.655 134.776V130.288H335.079Z" fill="#3D466E"/>
<path d="M343.992 133.968V142.072H343.144C342.942 142.072 342.814 141.974 342.76 141.776L342.648 140.904C342.296 141.294 341.902 141.608 341.464 141.848C341.027 142.083 340.526 142.2 339.96 142.2C339.518 142.2 339.126 142.128 338.784 141.984C338.448 141.835 338.166 141.627 337.936 141.36C337.707 141.094 337.534 140.771 337.416 140.392C337.304 140.014 337.248 139.595 337.248 139.136V133.968H338.672V139.136C338.672 139.75 338.811 140.224 339.088 140.56C339.371 140.896 339.8 141.064 340.376 141.064C340.798 141.064 341.19 140.966 341.552 140.768C341.92 140.566 342.259 140.288 342.568 139.936V133.968H343.992Z" fill="#3D466E"/>
<path d="M351.89 135.408C351.848 135.467 351.805 135.512 351.762 135.544C351.72 135.576 351.661 135.592 351.586 135.592C351.506 135.592 351.418 135.56 351.322 135.496C351.226 135.427 351.106 135.352 350.962 135.272C350.824 135.192 350.65 135.12 350.442 135.056C350.24 134.987 349.989 134.952 349.69 134.952C349.29 134.952 348.938 135.024 348.634 135.168C348.33 135.307 348.074 135.51 347.866 135.776C347.664 136.043 347.509 136.366 347.402 136.744C347.301 137.123 347.25 137.547 347.25 138.016C347.25 138.507 347.306 138.944 347.418 139.328C347.53 139.707 347.688 140.027 347.89 140.288C348.098 140.544 348.346 140.742 348.634 140.88C348.928 141.014 349.256 141.08 349.618 141.08C349.965 141.08 350.25 141.04 350.474 140.96C350.698 140.875 350.882 140.782 351.026 140.68C351.176 140.579 351.298 140.488 351.394 140.408C351.496 140.323 351.594 140.28 351.69 140.28C351.808 140.28 351.898 140.326 351.962 140.416L352.362 140.936C352.186 141.155 351.986 141.342 351.762 141.496C351.538 141.651 351.296 141.782 351.034 141.888C350.778 141.99 350.509 142.064 350.226 142.112C349.944 142.16 349.656 142.184 349.362 142.184C348.856 142.184 348.384 142.091 347.946 141.904C347.514 141.718 347.138 141.448 346.818 141.096C346.498 140.739 346.248 140.302 346.066 139.784C345.885 139.267 345.794 138.678 345.794 138.016C345.794 137.414 345.877 136.856 346.042 136.344C346.213 135.832 346.458 135.392 346.778 135.024C347.104 134.651 347.501 134.36 347.97 134.152C348.445 133.944 348.989 133.84 349.602 133.84C350.173 133.84 350.674 133.934 351.106 134.12C351.544 134.302 351.93 134.56 352.266 134.896L351.89 135.408Z" fill="#3D466E"/>
<path d="M356.379 142.2C355.739 142.2 355.245 142.022 354.899 141.664C354.557 141.307 354.387 140.792 354.387 140.12V135.16H353.411C353.325 135.16 353.253 135.136 353.195 135.088C353.136 135.035 353.107 134.955 353.107 134.848V134.28L354.435 134.112L354.763 131.608C354.779 131.528 354.813 131.464 354.867 131.416C354.925 131.363 355 131.336 355.091 131.336H355.811V134.128H358.155V135.16H355.811V140.024C355.811 140.366 355.893 140.619 356.059 140.784C356.224 140.95 356.437 141.032 356.699 141.032C356.848 141.032 356.976 141.014 357.083 140.976C357.195 140.934 357.291 140.888 357.371 140.84C357.451 140.792 357.517 140.75 357.571 140.712C357.629 140.67 357.68 140.648 357.723 140.648C357.797 140.648 357.864 140.694 357.923 140.784L358.339 141.464C358.093 141.694 357.797 141.875 357.451 142.008C357.104 142.136 356.747 142.2 356.379 142.2Z" fill="#3D466E"/>
<path d="M366.207 142.2C365.567 142.2 365.074 142.022 364.727 141.664C364.386 141.307 364.215 140.792 364.215 140.12V135.16H363.239C363.154 135.16 363.082 135.136 363.023 135.088C362.964 135.035 362.935 134.955 362.935 134.848V134.28L364.263 134.112L364.591 131.608C364.607 131.528 364.642 131.464 364.695 131.416C364.754 131.363 364.828 131.336 364.919 131.336H365.639V134.128H367.983V135.16H365.639V140.024C365.639 140.366 365.722 140.619 365.887 140.784C366.052 140.95 366.266 141.032 366.527 141.032C366.676 141.032 366.804 141.014 366.911 140.976C367.023 140.934 367.119 140.888 367.199 140.84C367.279 140.792 367.346 140.75 367.399 140.712C367.458 140.67 367.508 140.648 367.551 140.648C367.626 140.648 367.692 140.694 367.751 140.784L368.167 141.464C367.922 141.694 367.626 141.875 367.279 142.008C366.932 142.136 366.575 142.2 366.207 142.2Z" fill="#3D466E"/>
<path d="M376.445 133.968L371.925 144.464C371.877 144.571 371.816 144.656 371.741 144.72C371.672 144.784 371.563 144.816 371.413 144.816H370.357L371.837 141.6L368.493 133.968H369.725C369.848 133.968 369.944 134 370.013 134.064C370.088 134.123 370.139 134.19 370.165 134.264L372.333 139.368C372.419 139.592 372.491 139.827 372.549 140.072C372.624 139.822 372.704 139.584 372.789 139.36L374.893 134.264C374.925 134.179 374.979 134.11 375.053 134.056C375.133 133.998 375.221 133.968 375.317 133.968H376.445Z" fill="#3D466E"/>
<path d="M379.135 140.12C379.397 140.472 379.682 140.72 379.991 140.864C380.301 141.008 380.647 141.08 381.031 141.08C381.789 141.08 382.37 140.811 382.775 140.272C383.181 139.734 383.383 138.966 383.383 137.968C383.383 137.44 383.335 136.987 383.239 136.608C383.149 136.23 383.015 135.92 382.839 135.68C382.663 135.435 382.447 135.256 382.191 135.144C381.935 135.032 381.645 134.976 381.319 134.976C380.855 134.976 380.447 135.083 380.095 135.296C379.749 135.51 379.429 135.811 379.135 136.2V140.12ZM379.063 135.224C379.405 134.803 379.799 134.464 380.247 134.208C380.695 133.952 381.207 133.824 381.783 133.824C382.253 133.824 382.677 133.915 383.055 134.096C383.434 134.272 383.757 134.536 384.023 134.888C384.29 135.235 384.495 135.667 384.639 136.184C384.783 136.702 384.855 137.296 384.855 137.968C384.855 138.566 384.775 139.123 384.615 139.64C384.455 140.152 384.223 140.598 383.919 140.976C383.621 141.35 383.253 141.646 382.815 141.864C382.383 142.078 381.895 142.184 381.351 142.184C380.855 142.184 380.429 142.102 380.071 141.936C379.719 141.766 379.407 141.531 379.135 141.232V144.816H377.703V133.968H378.559C378.762 133.968 378.887 134.067 378.935 134.264L379.063 135.224Z" fill="#3D466E"/>
<path d="M392.096 137.136C392.096 136.806 392.048 136.504 391.952 136.232C391.861 135.955 391.725 135.718 391.544 135.52C391.368 135.318 391.152 135.163 390.896 135.056C390.64 134.944 390.349 134.888 390.024 134.888C389.341 134.888 388.8 135.088 388.4 135.488C388.005 135.883 387.76 136.432 387.664 137.136H392.096ZM393.248 140.936C393.072 141.15 392.861 141.336 392.616 141.496C392.371 141.651 392.107 141.779 391.824 141.88C391.547 141.982 391.259 142.056 390.96 142.104C390.661 142.158 390.365 142.184 390.072 142.184C389.512 142.184 388.995 142.091 388.52 141.904C388.051 141.712 387.643 141.435 387.296 141.072C386.955 140.704 386.688 140.251 386.496 139.712C386.304 139.174 386.208 138.555 386.208 137.856C386.208 137.291 386.293 136.763 386.464 136.272C386.64 135.782 386.891 135.358 387.216 135C387.541 134.638 387.939 134.355 388.408 134.152C388.877 133.944 389.405 133.84 389.992 133.84C390.477 133.84 390.925 133.923 391.336 134.088C391.752 134.248 392.109 134.483 392.408 134.792C392.712 135.096 392.949 135.475 393.12 135.928C393.291 136.376 393.376 136.888 393.376 137.464C393.376 137.688 393.352 137.838 393.304 137.912C393.256 137.987 393.165 138.024 393.032 138.024H387.616C387.632 138.536 387.701 138.982 387.824 139.36C387.952 139.739 388.128 140.056 388.352 140.312C388.576 140.563 388.843 140.752 389.152 140.88C389.461 141.003 389.808 141.064 390.192 141.064C390.549 141.064 390.856 141.024 391.112 140.944C391.373 140.859 391.597 140.768 391.784 140.672C391.971 140.576 392.125 140.488 392.248 140.408C392.376 140.323 392.485 140.28 392.576 140.28C392.693 140.28 392.784 140.326 392.848 140.416L393.248 140.936Z" fill="#3D466E"/>
<path d="M193.604 4.07239H99.604C96.8426 4.07239 94.604 6.31096 94.604 9.07239V55.0724C94.604 57.8338 96.8426 60.0724 99.604 60.0724H193.604C196.365 60.0724 198.604 57.8338 198.604 55.0724V9.07239C198.604 6.31096 196.365 4.07239 193.604 4.07239Z" fill="white"/>
<path d="M191.604 2.07239H97.604C94.8426 2.07239 92.604 4.31096 92.604 7.07239V53.0724C92.604 55.8338 94.8426 58.0724 97.604 58.0724H191.604C194.365 58.0724 196.604 55.8338 196.604 53.0724V7.07239C196.604 4.31096 194.365 2.07239 191.604 2.07239Z" fill="#F5F9FF"/>
<path d="M194.273 2.66944C194.242 2.16812 194.033 1.69433 193.683 1.334C193.334 0.973675 192.866 0.750668 192.366 0.705437C191.741 0.556118 191.094 0.519207 190.456 0.596436H182.225C173.262 0.596436 160.48 0.596436 144.611 0.705437H92.598C92.0921 0.720482 91.6046 0.89859 91.2081 1.21322C90.8117 1.52785 90.5275 1.96217 90.398 2.45144V53.1904C90.394 54.1724 91.566 55.0484 92.892 55.0484L191.922 55.0484C192.404 54.9889 192.861 54.8003 193.244 54.5024C193.583 54.2573 193.839 53.9148 193.979 53.5204C194.126 53.1934 193.979 52.7564 194.126 52.3204V40.6424C194.126 28.8584 194.273 19.2554 194.273 12.7094V12.9274C194.273 19.5834 194.273 29.0764 194.42 40.8614V52.5354C194.444 52.9769 194.394 53.4193 194.273 53.8444C194.108 54.3247 193.8 54.7433 193.391 55.0444C192.907 55.3794 192.355 55.6031 191.775 55.6994C191.189 55.754 190.598 55.754 190.012 55.6994L92.598 55.6994C90.835 55.6994 89.366 54.4994 89.366 53.1904V2.34244C89.366 1.24844 90.688 0.269436 92.158 0.0484352C93.627 -0.0605659 94.803 0.0484352 96.125 0.0484352H144.317C160.185 0.0484352 173.117 0.157436 181.931 0.157436H190.159C190.798 0.130131 191.438 0.166645 192.069 0.266438C192.458 0.335701 192.824 0.501911 193.132 0.749741C193.44 0.99757 193.681 1.31903 193.832 1.68444C194.063 1.96828 194.215 2.30804 194.273 2.66944Z" fill="#14365B"/>
<path d="M136.992 31.1924C136.992 31.0538 137.016 30.9231 137.064 30.8004C137.117 30.6778 137.187 30.5711 137.272 30.4804C137.363 30.3898 137.469 30.3178 137.592 30.2644C137.715 30.2111 137.845 30.1844 137.984 30.1844C138.123 30.1844 138.253 30.2111 138.376 30.2644C138.499 30.3178 138.605 30.3898 138.696 30.4804C138.787 30.5711 138.859 30.6778 138.912 30.8004C138.965 30.9231 138.992 31.0538 138.992 31.1924C138.992 31.3364 138.965 31.4698 138.912 31.5924C138.859 31.7098 138.787 31.8138 138.696 31.9044C138.605 31.9951 138.499 32.0644 138.376 32.1124C138.253 32.1658 138.123 32.1924 137.984 32.1924C137.845 32.1924 137.715 32.1658 137.592 32.1124C137.469 32.0644 137.363 31.9951 137.272 31.9044C137.187 31.8138 137.117 31.7098 137.064 31.5924C137.016 31.4698 136.992 31.3364 136.992 31.1924ZM145.224 31.1924C145.224 31.0538 145.248 30.9231 145.296 30.8004C145.349 30.6778 145.419 30.5711 145.504 30.4804C145.595 30.3898 145.701 30.3178 145.824 30.2644C145.947 30.2111 146.077 30.1844 146.216 30.1844C146.355 30.1844 146.485 30.2111 146.608 30.2644C146.731 30.3178 146.837 30.3898 146.928 30.4804C147.019 30.5711 147.091 30.6778 147.144 30.8004C147.197 30.9231 147.224 31.0538 147.224 31.1924C147.224 31.3364 147.197 31.4698 147.144 31.5924C147.091 31.7098 147.019 31.8138 146.928 31.9044C146.837 31.9951 146.731 32.0644 146.608 32.1124C146.485 32.1658 146.355 32.1924 146.216 32.1924C146.077 32.1924 145.947 32.1658 145.824 32.1124C145.701 32.0644 145.595 31.9951 145.504 31.9044C145.419 31.8138 145.349 31.7098 145.296 31.5924C145.248 31.4698 145.224 31.3364 145.224 31.1924ZM141.104 31.1924C141.104 31.0538 141.128 30.9231 141.176 30.8004C141.229 30.6778 141.299 30.5711 141.384 30.4804C141.475 30.3898 141.581 30.3178 141.704 30.2644C141.827 30.2111 141.957 30.1844 142.096 30.1844C142.235 30.1844 142.365 30.2111 142.488 30.2644C142.611 30.3178 142.717 30.3898 142.808 30.4804C142.899 30.5711 142.971 30.6778 143.024 30.8004C143.077 30.9231 143.104 31.0538 143.104 31.1924C143.104 31.3364 143.077 31.4698 143.024 31.5924C142.971 31.7098 142.899 31.8138 142.808 31.9044C142.717 31.9951 142.611 32.0644 142.488 32.1124C142.365 32.1658 142.235 32.1924 142.096 32.1924C141.957 32.1924 141.827 32.1658 141.704 32.1124C141.581 32.0644 141.475 31.9951 141.384 31.9044C141.299 31.8138 141.229 31.7098 141.176 31.5924C141.128 31.4698 141.104 31.3364 141.104 31.1924Z" fill="#3D466E"/>
</g>
<defs>
<clipPath id="clip0">
<rect width="425" height="233" fill="white"/>
</clipPath>
</defs>
</svg>
