<svg width="1117" height="455" viewBox="0 0 1117 455" fill="none" xmlns="http://www.w3.org/2000/svg">
<g clip-path="url(#clip0)">
<path d="M92.4917 364.211C109.519 347.184 109.519 319.578 92.4917 302.55C75.4644 285.523 47.8578 285.523 30.8306 302.55C13.8033 319.578 13.8033 347.184 30.8306 364.211C47.8578 381.239 75.4644 381.239 92.4917 364.211Z" fill="#FFD05D"/>
<path d="M84.473 296.168C89.7854 304.483 92.1207 314.354 91.0975 324.168C90.0743 333.982 85.7531 343.159 78.8398 350.199C71.9265 357.24 62.8298 361.728 53.036 362.929C43.2423 364.131 33.3304 361.976 24.9199 356.816C28.4524 362.335 33.1835 366.987 38.7615 370.426C44.3396 373.865 50.621 376.003 57.1389 376.68C63.6568 377.356 70.2434 376.556 76.4091 374.336C82.5748 372.117 88.1609 368.536 92.7521 363.861C97.3434 359.185 100.822 353.534 102.928 347.329C105.035 341.124 105.716 334.524 104.92 328.02C104.125 321.515 101.873 315.274 98.3332 309.759C94.7932 304.245 90.0557 299.599 84.473 296.168V296.168Z" fill="#FDC453"/>
<path d="M23.9857 337.981C23.9858 329.527 26.6329 321.285 31.5556 314.412C36.4783 307.538 43.4296 302.379 51.4339 299.657C59.4381 296.935 68.0937 296.788 76.1859 299.236C84.2782 301.684 91.401 306.604 96.5547 313.305C93.7916 308.498 90.0705 304.31 85.6221 301C81.1738 297.69 76.0929 295.33 70.6946 294.064C65.2963 292.799 59.6956 292.656 54.2398 293.644C48.7839 294.633 43.5893 296.731 38.9778 299.81C34.3664 302.888 30.4365 306.881 27.4317 311.541C24.427 316.201 22.4115 321.428 21.5101 326.899C20.6088 332.37 20.8409 337.968 22.192 343.345C23.5431 348.723 25.9845 353.765 29.3647 358.16C25.8298 352.024 23.9744 345.064 23.9857 337.981V337.981Z" fill="#FFD77F"/>
<path d="M45.5978 330.684C47.3723 330.684 48.8108 328.259 48.8108 325.269C48.8108 322.278 47.3723 319.854 45.5978 319.854C43.8233 319.854 42.3848 322.278 42.3848 325.269C42.3848 328.259 43.8233 330.684 45.5978 330.684Z" fill="#303030"/>
<path d="M80.9357 325.268C80.9357 328.258 79.4978 330.684 77.7228 330.684C75.9478 330.684 74.5107 328.258 74.5107 325.268C74.5107 322.278 75.9488 319.854 77.7228 319.854C79.4968 319.854 80.9357 322.277 80.9357 325.268Z" fill="#303030"/>
<path d="M44.8985 307.977L41.9746 310.9L51.7299 320.656L54.6537 317.732L44.8985 307.977Z" fill="#303030"/>
<path d="M81.3477 310.9L78.4238 307.977L68.6686 317.732L71.5925 320.656L81.3477 310.9Z" fill="#303030"/>
<path d="M77.7236 353.333C76.7926 343.704 69.9337 336.233 61.6237 336.25C53.3137 336.267 46.4877 343.768 45.5977 353.402L77.7236 353.333Z" fill="#695342"/>
<path d="M45.5977 353.402C45.5977 353.402 59.1216 339.832 77.7236 353.332L45.5977 353.402Z" fill="#F06669"/>
<path d="M1054.36 383.956C1082.58 355.74 1082.58 309.994 1054.36 281.779C1026.15 253.563 980.401 253.563 952.186 281.779C923.971 309.994 923.971 355.74 952.186 383.956C980.401 412.171 1026.15 412.171 1054.36 383.956Z" fill="#FFD05D"/>
<path d="M1041.08 271.201C1049.88 284.98 1053.76 301.337 1052.06 317.6C1050.37 333.864 1043.2 349.071 1031.75 360.738C1020.29 372.406 1005.22 379.842 988.988 381.834C972.759 383.825 956.333 380.253 942.396 371.701C948.248 380.853 956.088 388.567 965.333 394.271C974.577 399.974 984.989 403.52 995.793 404.644C1006.6 405.769 1017.52 404.442 1027.74 400.764C1037.96 397.087 1047.22 391.151 1054.83 383.401C1062.44 375.65 1068.2 366.283 1071.69 355.997C1075.19 345.711 1076.31 334.77 1074.99 323.988C1073.67 313.206 1069.93 302.861 1064.06 293.722C1058.19 284.583 1050.34 276.885 1041.08 271.201V271.201Z" fill="#FDC453"/>
<path d="M940.844 340.49C940.844 326.48 945.231 312.822 953.388 301.432C961.545 290.042 973.064 281.492 986.328 276.981C999.592 272.471 1013.94 272.227 1027.35 276.283C1040.76 280.34 1052.56 288.493 1061.1 299.599C1056.52 291.637 1050.35 284.701 1042.98 279.22C1035.61 273.74 1027.19 269.831 1018.25 267.736C1009.31 265.642 1000.03 265.406 990.99 267.044C981.952 268.682 973.346 272.158 965.707 277.257C958.067 282.357 951.556 288.971 946.578 296.69C941.599 304.408 938.258 313.067 936.762 322.13C935.267 331.192 935.648 340.466 937.883 349.375C940.118 358.284 944.158 366.639 949.754 373.923C943.898 363.755 940.825 352.224 940.844 340.49V340.49Z" fill="#FFD77F"/>
<path d="M981.977 315.338C981.977 320.293 979.593 324.311 976.654 324.311C973.715 324.311 971.33 320.293 971.33 315.338C971.33 310.383 973.714 306.365 976.654 306.365C979.594 306.365 981.977 310.382 981.977 315.338Z" fill="#303030"/>
<path d="M1035.22 315.338C1035.22 320.293 1032.83 324.311 1029.89 324.311C1026.95 324.311 1024.57 320.293 1024.57 315.338C1024.57 310.383 1026.95 306.365 1029.89 306.365C1032.83 306.365 1035.22 310.382 1035.22 315.338Z" fill="#303030"/>
<path d="M954.727 339.701C956.083 351.627 961.782 362.637 970.736 370.631C979.69 378.624 991.273 383.042 1003.28 383.042C1015.28 383.042 1026.86 378.624 1035.82 370.631C1044.77 362.637 1050.47 351.627 1051.83 339.701H954.727Z" fill="#695342"/>
<path d="M969.738 369.688C978.606 378.073 990.293 382.832 1002.5 383.027C1014.7 383.223 1026.53 378.84 1035.66 370.743L1035.22 369.693C1002.61 353.796 970.181 369.472 969.738 369.688Z" fill="#F06669"/>
<path d="M108 350.959C116.284 350.959 123 344.243 123 335.959C123 327.675 116.284 320.959 108 320.959C99.7157 320.959 93 327.675 93 335.959C93 344.243 99.7157 350.959 108 350.959Z" fill="#F98091"/>
<path d="M112.18 341.599V342.959H104.5V341.599H107.57V331.829C107.57 331.536 107.58 331.239 107.6 330.939L105.05 333.129C104.963 333.202 104.877 333.249 104.79 333.269C104.703 333.282 104.623 333.282 104.55 333.269C104.477 333.256 104.407 333.229 104.34 333.189C104.28 333.149 104.233 333.106 104.2 333.059L103.64 332.289L107.91 328.599H109.36V341.599H112.18Z" fill="white"/>
<path d="M640 428.959C691.362 428.959 733 387.321 733 335.959C733 284.597 691.362 242.959 640 242.959C588.638 242.959 547 284.597 547 335.959C547 387.321 588.638 428.959 640 428.959Z" fill="white"/>
<path opacity="0.428" d="M584.248 397.523C579.771 393.674 575.71 389.368 572.13 384.673C568.529 379.946 565.439 374.851 562.912 369.473C560.347 364.006 558.382 358.278 557.053 352.387C555.687 346.306 554.998 340.092 555 333.859C554.997 328.18 555.567 322.515 556.7 316.95C557.806 311.552 559.444 306.276 561.589 301.2C563.702 296.211 566.292 291.438 569.325 286.948C572.337 282.492 575.768 278.335 579.57 274.531C583.373 270.729 587.531 267.298 591.987 264.286C596.477 261.253 601.25 258.663 606.239 256.55C611.314 254.405 616.59 252.767 621.988 251.661C627.554 250.527 633.22 249.957 638.9 249.959C645.133 249.957 651.347 250.645 657.428 252.011C663.319 253.34 669.047 255.305 674.514 257.87C679.892 260.396 684.987 263.486 689.714 267.087C694.412 270.669 698.722 274.734 702.573 279.215C695.171 272.844 686.71 267.819 677.573 264.368C668.099 260.791 658.054 258.965 647.928 258.98C642.249 258.977 636.583 259.547 631.018 260.68C625.619 261.786 620.344 263.423 615.268 265.569C610.279 267.681 605.506 270.272 601.016 273.305C596.56 276.32 592.403 279.754 588.6 283.559C584.798 287.363 581.367 291.52 578.355 295.976C575.322 300.466 572.732 305.239 570.619 310.228C568.474 315.303 566.836 320.579 565.73 325.977C564.597 331.542 564.027 337.207 564.03 342.886C564.015 353.013 565.841 363.058 569.418 372.532C572.867 381.665 577.889 390.124 584.257 397.524L584.248 397.523Z" fill="#E8F0FF"/>
<path d="M578.726 344.856V352.96H577.302V344.856H578.726ZM579.03 342.312C579.03 342.45 579.001 342.581 578.942 342.704C578.889 342.821 578.814 342.928 578.718 343.024C578.627 343.114 578.518 343.186 578.39 343.24C578.267 343.293 578.137 343.32 577.998 343.32C577.859 343.32 577.729 343.293 577.606 343.24C577.489 343.186 577.385 343.114 577.294 343.024C577.203 342.928 577.131 342.821 577.078 342.704C577.025 342.581 576.998 342.45 576.998 342.312C576.998 342.173 577.025 342.042 577.078 341.92C577.131 341.792 577.203 341.682 577.294 341.592C577.385 341.496 577.489 341.421 577.606 341.368C577.729 341.314 577.859 341.288 577.998 341.288C578.137 341.288 578.267 341.314 578.39 341.368C578.518 341.421 578.627 341.496 578.718 341.592C578.814 341.682 578.889 341.792 578.942 341.92C579.001 342.042 579.03 342.173 579.03 342.312Z" fill="#3D466E"/>
<path d="M585.786 346.192C585.722 346.309 585.623 346.368 585.49 346.368C585.41 346.368 585.319 346.338 585.218 346.28C585.116 346.221 584.991 346.157 584.842 346.088C584.698 346.013 584.524 345.946 584.322 345.888C584.119 345.824 583.879 345.792 583.602 345.792C583.362 345.792 583.146 345.824 582.954 345.888C582.762 345.946 582.596 346.029 582.458 346.136C582.324 346.242 582.22 346.368 582.146 346.512C582.076 346.65 582.042 346.802 582.042 346.968C582.042 347.176 582.1 347.349 582.218 347.488C582.34 347.626 582.5 347.746 582.698 347.848C582.895 347.949 583.119 348.04 583.37 348.12C583.62 348.194 583.876 348.277 584.138 348.368C584.404 348.453 584.663 348.549 584.914 348.656C585.164 348.762 585.388 348.896 585.586 349.056C585.783 349.216 585.94 349.413 586.058 349.648C586.18 349.877 586.242 350.154 586.242 350.48C586.242 350.853 586.175 351.2 586.042 351.52C585.908 351.834 585.711 352.109 585.45 352.344C585.188 352.573 584.868 352.754 584.49 352.888C584.111 353.021 583.674 353.088 583.178 353.088C582.612 353.088 582.1 352.997 581.642 352.816C581.183 352.629 580.794 352.392 580.474 352.104L580.81 351.56C580.852 351.49 580.903 351.437 580.962 351.4C581.02 351.362 581.095 351.344 581.186 351.344C581.282 351.344 581.383 351.381 581.49 351.456C581.596 351.53 581.724 351.613 581.874 351.704C582.028 351.794 582.215 351.877 582.434 351.952C582.652 352.026 582.924 352.064 583.25 352.064C583.527 352.064 583.77 352.029 583.978 351.96C584.186 351.885 584.359 351.786 584.498 351.664C584.636 351.541 584.738 351.4 584.802 351.24C584.871 351.08 584.906 350.909 584.906 350.728C584.906 350.504 584.844 350.32 584.722 350.176C584.604 350.026 584.447 349.901 584.25 349.8C584.052 349.693 583.826 349.602 583.57 349.528C583.319 349.448 583.06 349.365 582.794 349.28C582.532 349.194 582.274 349.098 582.018 348.992C581.767 348.88 581.543 348.741 581.346 348.576C581.148 348.41 580.988 348.208 580.866 347.968C580.748 347.722 580.69 347.426 580.69 347.08C580.69 346.77 580.754 346.474 580.882 346.192C581.01 345.904 581.196 345.653 581.442 345.44C581.687 345.221 581.988 345.048 582.346 344.92C582.703 344.792 583.111 344.728 583.57 344.728C584.103 344.728 584.58 344.813 585.002 344.984C585.428 345.149 585.796 345.378 586.106 345.672L585.786 346.192Z" fill="#3D466E"/>
<path d="M593.513 345.936C593.86 345.568 594.244 345.274 594.665 345.056C595.087 344.837 595.572 344.728 596.121 344.728C596.564 344.728 596.953 344.802 597.289 344.952C597.631 345.096 597.913 345.304 598.137 345.576C598.367 345.842 598.54 346.165 598.657 346.544C598.775 346.922 598.833 347.341 598.833 347.8V352.96H597.401V347.8C597.401 347.186 597.26 346.712 596.977 346.376C596.7 346.034 596.276 345.864 595.705 345.864C595.284 345.864 594.889 345.965 594.521 346.168C594.159 346.37 593.823 346.645 593.513 346.992V352.96H592.081V341.176H593.513V345.936Z" fill="#3D466E"/>
<path d="M606.427 348.024C606.427 347.693 606.379 347.392 606.283 347.12C606.193 346.842 606.057 346.605 605.875 346.408C605.699 346.205 605.483 346.05 605.227 345.944C604.971 345.832 604.681 345.776 604.355 345.776C603.673 345.776 603.131 345.976 602.731 346.376C602.337 346.77 602.091 347.32 601.995 348.024H606.427ZM607.579 351.824C607.403 352.037 607.193 352.224 606.947 352.384C606.702 352.538 606.438 352.666 606.155 352.768C605.878 352.869 605.59 352.944 605.291 352.992C604.993 353.045 604.697 353.072 604.403 353.072C603.843 353.072 603.326 352.978 602.851 352.792C602.382 352.6 601.974 352.322 601.627 351.96C601.286 351.592 601.019 351.138 600.827 350.6C600.635 350.061 600.539 349.442 600.539 348.744C600.539 348.178 600.625 347.65 600.795 347.16C600.971 346.669 601.222 346.245 601.547 345.888C601.873 345.525 602.27 345.242 602.739 345.04C603.209 344.832 603.737 344.728 604.323 344.728C604.809 344.728 605.257 344.81 605.667 344.976C606.083 345.136 606.441 345.37 606.739 345.68C607.043 345.984 607.281 346.362 607.451 346.816C607.622 347.264 607.707 347.776 607.707 348.352C607.707 348.576 607.683 348.725 607.635 348.8C607.587 348.874 607.497 348.912 607.363 348.912H601.947C601.963 349.424 602.033 349.869 602.155 350.248C602.283 350.626 602.459 350.944 602.683 351.2C602.907 351.45 603.174 351.64 603.483 351.768C603.793 351.89 604.139 351.952 604.523 351.952C604.881 351.952 605.187 351.912 605.443 351.832C605.705 351.746 605.929 351.656 606.115 351.56C606.302 351.464 606.457 351.376 606.579 351.296C606.707 351.21 606.817 351.168 606.907 351.168C607.025 351.168 607.115 351.213 607.179 351.304L607.579 351.824Z" fill="#3D466E"/>
<path d="M610.808 346.48C611.064 345.925 611.379 345.493 611.752 345.184C612.126 344.869 612.582 344.712 613.12 344.712C613.291 344.712 613.454 344.73 613.608 344.768C613.768 344.805 613.91 344.864 614.032 344.944L613.928 346.008C613.896 346.141 613.816 346.208 613.688 346.208C613.614 346.208 613.504 346.192 613.36 346.16C613.216 346.128 613.054 346.112 612.872 346.112C612.616 346.112 612.387 346.149 612.184 346.224C611.987 346.298 611.808 346.41 611.648 346.56C611.494 346.704 611.352 346.885 611.224 347.104C611.102 347.317 610.99 347.562 610.888 347.84V352.96H609.456V344.856H610.272C610.427 344.856 610.534 344.885 610.592 344.944C610.651 345.002 610.691 345.104 610.712 345.248L610.808 346.48Z" fill="#3D466E"/>
<path d="M620.38 348.024C620.38 347.693 620.332 347.392 620.236 347.12C620.146 346.842 620.01 346.605 619.828 346.408C619.652 346.205 619.436 346.05 619.18 345.944C618.924 345.832 618.634 345.776 618.308 345.776C617.626 345.776 617.084 345.976 616.684 346.376C616.29 346.77 616.044 347.32 615.948 348.024H620.38ZM621.532 351.824C621.356 352.037 621.146 352.224 620.9 352.384C620.655 352.538 620.391 352.666 620.108 352.768C619.831 352.869 619.543 352.944 619.244 352.992C618.946 353.045 618.65 353.072 618.356 353.072C617.796 353.072 617.279 352.978 616.804 352.792C616.335 352.6 615.927 352.322 615.58 351.96C615.239 351.592 614.972 351.138 614.78 350.6C614.588 350.061 614.492 349.442 614.492 348.744C614.492 348.178 614.578 347.65 614.748 347.16C614.924 346.669 615.175 346.245 615.5 345.888C615.826 345.525 616.223 345.242 616.692 345.04C617.162 344.832 617.69 344.728 618.276 344.728C618.762 344.728 619.21 344.81 619.62 344.976C620.036 345.136 620.394 345.37 620.692 345.68C620.996 345.984 621.234 346.362 621.404 346.816C621.575 347.264 621.66 347.776 621.66 348.352C621.66 348.576 621.636 348.725 621.588 348.8C621.54 348.874 621.45 348.912 621.316 348.912H615.9C615.916 349.424 615.986 349.869 616.108 350.248C616.236 350.626 616.412 350.944 616.636 351.2C616.86 351.45 617.127 351.64 617.436 351.768C617.746 351.89 618.092 351.952 618.476 351.952C618.834 351.952 619.14 351.912 619.396 351.832C619.658 351.746 619.882 351.656 620.068 351.56C620.255 351.464 620.41 351.376 620.532 351.296C620.66 351.21 620.77 351.168 620.86 351.168C620.978 351.168 621.068 351.213 621.132 351.304L621.532 351.824Z" fill="#3D466E"/>
<path d="M629.991 353.088C629.351 353.088 628.858 352.909 628.511 352.552C628.17 352.194 627.999 351.68 627.999 351.008V346.048H627.023C626.938 346.048 626.866 346.024 626.807 345.976C626.749 345.922 626.719 345.842 626.719 345.736V345.168L628.047 345L628.375 342.496C628.391 342.416 628.426 342.352 628.479 342.304C628.538 342.25 628.613 342.224 628.703 342.224H629.423V345.016H631.767V346.048H629.423V350.912C629.423 351.253 629.506 351.506 629.671 351.672C629.837 351.837 630.05 351.92 630.311 351.92C630.461 351.92 630.589 351.901 630.695 351.864C630.807 351.821 630.903 351.776 630.983 351.728C631.063 351.68 631.13 351.637 631.183 351.6C631.242 351.557 631.293 351.536 631.335 351.536C631.41 351.536 631.477 351.581 631.535 351.672L631.951 352.352C631.706 352.581 631.41 352.762 631.063 352.896C630.717 353.024 630.359 353.088 629.991 353.088Z" fill="#3D466E"/>
<path d="M636.607 344.728C637.199 344.728 637.732 344.826 638.207 345.024C638.681 345.221 639.087 345.501 639.423 345.864C639.759 346.226 640.015 346.666 640.191 347.184C640.372 347.696 640.463 348.269 640.463 348.904C640.463 349.544 640.372 350.12 640.191 350.632C640.015 351.144 639.759 351.581 639.423 351.944C639.087 352.306 638.681 352.586 638.207 352.784C637.732 352.976 637.199 353.072 636.607 353.072C636.009 353.072 635.471 352.976 634.991 352.784C634.516 352.586 634.111 352.306 633.775 351.944C633.439 351.581 633.18 351.144 632.999 350.632C632.823 350.12 632.735 349.544 632.735 348.904C632.735 348.269 632.823 347.696 632.999 347.184C633.18 346.666 633.439 346.226 633.775 345.864C634.111 345.501 634.516 345.221 634.991 345.024C635.471 344.826 636.009 344.728 636.607 344.728ZM636.607 351.96C637.407 351.96 638.004 351.693 638.399 351.16C638.793 350.621 638.991 349.872 638.991 348.912C638.991 347.946 638.793 347.194 638.399 346.656C638.004 346.117 637.407 345.848 636.607 345.848C636.201 345.848 635.847 345.917 635.543 346.056C635.244 346.194 634.993 346.394 634.791 346.656C634.593 346.917 634.444 347.24 634.343 347.624C634.247 348.002 634.199 348.432 634.199 348.912C634.199 349.872 634.396 350.621 634.791 351.16C635.191 351.693 635.796 351.96 636.607 351.96Z" fill="#3D466E"/>
<path d="M647.795 345.936C648.141 345.568 648.525 345.274 648.947 345.056C649.368 344.837 649.853 344.728 650.403 344.728C650.845 344.728 651.235 344.802 651.571 344.952C651.912 345.096 652.195 345.304 652.419 345.576C652.648 345.842 652.821 346.165 652.939 346.544C653.056 346.922 653.115 347.341 653.115 347.8V352.96H651.683V347.8C651.683 347.186 651.541 346.712 651.259 346.376C650.981 346.034 650.557 345.864 649.987 345.864C649.565 345.864 649.171 345.965 648.803 346.168C648.44 346.37 648.104 346.645 647.795 346.992V352.96H646.363V341.176H647.795V345.936Z" fill="#3D466E"/>
<path d="M660.709 348.024C660.709 347.693 660.661 347.392 660.565 347.12C660.474 346.842 660.338 346.605 660.157 346.408C659.981 346.205 659.765 346.05 659.509 345.944C659.253 345.832 658.962 345.776 658.637 345.776C657.954 345.776 657.413 345.976 657.013 346.376C656.618 346.77 656.373 347.32 656.277 348.024H660.709ZM661.861 351.824C661.685 352.037 661.474 352.224 661.229 352.384C660.983 352.538 660.719 352.666 660.437 352.768C660.159 352.869 659.871 352.944 659.573 352.992C659.274 353.045 658.978 353.072 658.685 353.072C658.125 353.072 657.607 352.978 657.133 352.792C656.663 352.6 656.255 352.322 655.909 351.96C655.567 351.592 655.301 351.138 655.109 350.6C654.917 350.061 654.821 349.442 654.821 348.744C654.821 348.178 654.906 347.65 655.077 347.16C655.253 346.669 655.503 346.245 655.829 345.888C656.154 345.525 656.551 345.242 657.021 345.04C657.49 344.832 658.018 344.728 658.605 344.728C659.09 344.728 659.538 344.81 659.949 344.976C660.365 345.136 660.722 345.37 661.021 345.68C661.325 345.984 661.562 346.362 661.733 346.816C661.903 347.264 661.989 347.776 661.989 348.352C661.989 348.576 661.965 348.725 661.917 348.8C661.869 348.874 661.778 348.912 661.645 348.912H656.229C656.245 349.424 656.314 349.869 656.437 350.248C656.565 350.626 656.741 350.944 656.965 351.2C657.189 351.45 657.455 351.64 657.765 351.768C658.074 351.89 658.421 351.952 658.805 351.952C659.162 351.952 659.469 351.912 659.725 351.832C659.986 351.746 660.21 351.656 660.397 351.56C660.583 351.464 660.738 351.376 660.861 351.296C660.989 351.21 661.098 351.168 661.189 351.168C661.306 351.168 661.397 351.213 661.461 351.304L661.861 351.824Z" fill="#3D466E"/>
<path d="M665.21 341.176V352.96H663.786V341.176H665.21Z" fill="#3D466E"/>
<path d="M668.951 351.008C669.212 351.36 669.498 351.608 669.807 351.752C670.116 351.896 670.463 351.968 670.847 351.968C671.604 351.968 672.186 351.698 672.591 351.16C672.996 350.621 673.199 349.853 673.199 348.856C673.199 348.328 673.151 347.874 673.055 347.496C672.964 347.117 672.831 346.808 672.655 346.568C672.479 346.322 672.263 346.144 672.007 346.032C671.751 345.92 671.46 345.864 671.135 345.864C670.671 345.864 670.263 345.97 669.911 346.184C669.564 346.397 669.244 346.698 668.951 347.088V351.008ZM668.879 346.112C669.22 345.69 669.615 345.352 670.063 345.096C670.511 344.84 671.023 344.712 671.599 344.712C672.068 344.712 672.492 344.802 672.871 344.984C673.25 345.16 673.572 345.424 673.839 345.776C674.106 346.122 674.311 346.554 674.455 347.072C674.599 347.589 674.671 348.184 674.671 348.856C674.671 349.453 674.591 350.01 674.431 350.528C674.271 351.04 674.039 351.485 673.735 351.864C673.436 352.237 673.068 352.533 672.631 352.752C672.199 352.965 671.711 353.072 671.167 353.072C670.671 353.072 670.244 352.989 669.887 352.824C669.535 352.653 669.223 352.418 668.951 352.12V355.704H667.519V344.856H668.375C668.578 344.856 668.703 344.954 668.751 345.152L668.879 346.112Z" fill="#3D466E"/>
<path d="M550 351.959C558.284 351.959 565 345.243 565 336.959C565 328.675 558.284 321.959 550 321.959C541.716 321.959 535 328.675 535 336.959C535 345.243 541.716 351.959 550 351.959Z" fill="#F98091"/>
<path d="M553.87 342.269C554.063 342.269 554.217 342.326 554.33 342.439C554.443 342.552 554.5 342.699 554.5 342.879V343.959H544.94V343.349C544.94 343.222 544.967 343.092 545.02 342.959C545.073 342.826 545.157 342.702 545.27 342.589L549.86 337.979C550.24 337.592 550.587 337.222 550.9 336.869C551.213 336.509 551.48 336.149 551.7 335.789C551.92 335.429 552.09 335.066 552.21 334.699C552.33 334.326 552.39 333.929 552.39 333.509C552.39 333.089 552.323 332.722 552.19 332.409C552.057 332.089 551.873 331.826 551.64 331.619C551.413 331.412 551.143 331.259 550.83 331.159C550.517 331.052 550.18 330.999 549.82 330.999C549.453 330.999 549.117 331.052 548.81 331.159C548.503 331.266 548.23 331.416 547.99 331.609C547.757 331.796 547.56 332.019 547.4 332.279C547.24 332.539 547.127 332.826 547.06 333.139C546.98 333.372 546.87 333.529 546.73 333.609C546.597 333.682 546.407 333.702 546.16 333.669L545.23 333.509C545.323 332.856 545.503 332.279 545.77 331.779C546.043 331.272 546.383 330.849 546.79 330.509C547.203 330.169 547.673 329.912 548.2 329.739C548.727 329.559 549.297 329.469 549.91 329.469C550.517 329.469 551.083 329.559 551.61 329.739C552.137 329.919 552.593 330.182 552.98 330.529C553.367 330.869 553.67 331.286 553.89 331.779C554.11 332.272 554.22 332.832 554.22 333.459C554.22 333.992 554.14 334.489 553.98 334.949C553.82 335.402 553.603 335.836 553.33 336.249C553.057 336.662 552.74 337.066 552.38 337.459C552.027 337.852 551.65 338.249 551.25 338.649L547.47 342.509C547.737 342.436 548.007 342.379 548.28 342.339C548.553 342.292 548.817 342.269 549.07 342.269H553.87Z" fill="white"/>
<path d="M733 351.959C741.284 351.959 748 345.243 748 336.959C748 328.675 741.284 321.959 733 321.959C724.716 321.959 718 328.675 718 336.959C718 345.243 724.716 351.959 733 351.959Z" fill="#F98091"/>
<path d="M728.3 333.509C728.393 332.856 728.573 332.279 728.84 331.779C729.107 331.272 729.443 330.849 729.85 330.509C730.263 330.169 730.733 329.912 731.26 329.739C731.793 329.559 732.367 329.469 732.98 329.469C733.587 329.469 734.147 329.556 734.66 329.729C735.173 329.902 735.613 330.149 735.98 330.469C736.353 330.789 736.643 331.176 736.85 331.629C737.057 332.082 737.16 332.586 737.16 333.139C737.16 333.592 737.1 333.999 736.98 334.359C736.867 334.712 736.7 335.022 736.48 335.289C736.267 335.556 736.007 335.782 735.7 335.969C735.393 336.156 735.05 336.309 734.67 336.429C735.603 336.669 736.303 337.082 736.77 337.669C737.243 338.249 737.48 338.976 737.48 339.849C737.48 340.509 737.353 341.102 737.1 341.629C736.853 342.156 736.513 342.606 736.08 342.979C735.647 343.346 735.14 343.629 734.56 343.829C733.987 344.022 733.37 344.119 732.71 344.119C731.95 344.119 731.3 344.026 730.76 343.839C730.22 343.646 729.763 343.382 729.39 343.049C729.017 342.716 728.71 342.322 728.47 341.869C728.23 341.409 728.027 340.912 727.86 340.379L728.63 340.059C728.83 339.972 729.023 339.949 729.21 339.989C729.403 340.029 729.543 340.139 729.63 340.319C729.717 340.506 729.823 340.729 729.95 340.989C730.083 341.249 730.263 341.499 730.49 341.739C730.717 341.979 731.003 342.182 731.35 342.349C731.703 342.516 732.15 342.599 732.69 342.599C733.19 342.599 733.627 342.519 734 342.359C734.38 342.192 734.693 341.979 734.94 341.719C735.193 341.459 735.383 341.169 735.51 340.849C735.637 340.529 735.7 340.212 735.7 339.899C735.7 339.512 735.65 339.159 735.55 338.839C735.45 338.519 735.263 338.242 734.99 338.009C734.717 337.776 734.34 337.592 733.86 337.459C733.387 337.326 732.777 337.259 732.03 337.259V335.969C732.643 335.962 733.163 335.896 733.59 335.769C734.023 335.642 734.373 335.469 734.64 335.249C734.913 335.029 735.11 334.766 735.23 334.459C735.357 334.152 735.42 333.812 735.42 333.439C735.42 333.026 735.353 332.666 735.22 332.359C735.093 332.052 734.917 331.799 734.69 331.599C734.463 331.399 734.193 331.249 733.88 331.149C733.573 331.049 733.24 330.999 732.88 330.999C732.52 330.999 732.183 331.052 731.87 331.159C731.563 331.266 731.29 331.416 731.05 331.609C730.817 331.796 730.62 332.019 730.46 332.279C730.3 332.539 730.187 332.826 730.12 333.139C730.033 333.372 729.923 333.529 729.79 333.609C729.663 333.682 729.477 333.702 729.23 333.669L728.3 333.509Z" fill="white"/>
<path d="M643 264.959C651.284 264.959 658 258.243 658 249.959C658 241.675 651.284 234.959 643 234.959C634.716 234.959 628 241.675 628 249.959C628 258.243 634.716 264.959 643 264.959Z" fill="#F98091"/>
<path d="M648 249.799C648 251.052 647.863 252.139 647.59 253.059C647.323 253.972 646.957 254.729 646.49 255.329C646.023 255.929 645.47 256.376 644.83 256.669C644.197 256.962 643.517 257.109 642.79 257.109C642.057 257.109 641.373 256.962 640.74 256.669C640.113 256.376 639.567 255.929 639.1 255.329C638.633 254.729 638.267 253.972 638 253.059C637.733 252.139 637.6 251.052 637.6 249.799C637.6 248.546 637.733 247.459 638 246.539C638.267 245.619 638.633 244.859 639.1 244.259C639.567 243.652 640.113 243.202 640.74 242.909C641.373 242.616 642.057 242.469 642.79 242.469C643.517 242.469 644.197 242.616 644.83 242.909C645.47 243.202 646.023 243.652 646.49 244.259C646.957 244.859 647.323 245.619 647.59 246.539C647.863 247.459 648 248.546 648 249.799ZM646.15 249.799C646.15 248.706 646.057 247.789 645.87 247.049C645.69 246.302 645.443 245.702 645.13 245.249C644.823 244.796 644.467 244.472 644.06 244.279C643.653 244.079 643.23 243.979 642.79 243.979C642.35 243.979 641.927 244.079 641.52 244.279C641.113 244.472 640.757 244.796 640.45 245.249C640.143 245.702 639.897 246.302 639.71 247.049C639.53 247.789 639.44 248.706 639.44 249.799C639.44 250.892 639.53 251.809 639.71 252.549C639.897 253.289 640.143 253.886 640.45 254.339C640.757 254.792 641.113 255.119 641.52 255.319C641.927 255.512 642.35 255.609 642.79 255.609C643.23 255.609 643.653 255.512 644.06 255.319C644.467 255.119 644.823 254.792 645.13 254.339C645.443 253.886 645.69 253.289 645.87 252.549C646.057 251.809 646.15 250.892 646.15 249.799Z" fill="white"/>
<path d="M576.738 330.959H578.41V326.163C578.41 323.589 579.29 322.313 581.072 322.313C581.38 322.313 581.732 322.379 582.106 322.511L582.678 320.993C582.304 320.861 581.93 320.795 581.534 320.795C580.038 320.795 579.114 321.499 578.234 323.171V321.125H576.738V330.959Z" fill="#3C41E0"/>
<path d="M593.207 326.295C593.207 326.185 593.207 326.075 593.207 325.965C593.207 322.709 591.359 320.751 588.477 320.751C585.617 320.751 583.571 322.907 583.571 326.009C583.571 329.221 585.595 331.377 588.587 331.377C590.611 331.377 592.151 330.475 593.141 328.693L591.865 327.835C591.051 329.265 589.995 329.969 588.675 329.969C586.783 329.969 585.419 328.583 585.419 326.449C585.419 326.405 585.419 326.339 585.419 326.295H593.207ZM591.403 324.931H585.419C585.595 323.259 586.805 322.225 588.411 322.225C590.193 322.225 591.293 323.193 591.403 324.931Z" fill="#3C41E0"/>
<path d="M595.994 322.511V330.959H597.71V322.511H599.514V321.125H597.71V317.165H595.994V321.125H594.19V322.511H595.994Z" fill="#3C41E0"/>
<path d="M603.007 321.125H601.247V326.867C601.247 329.837 602.809 331.377 605.713 331.377C608.661 331.377 610.201 329.837 610.201 326.867V321.125H608.485V325.965C608.485 328.561 607.913 329.771 605.757 329.771C603.601 329.771 603.007 328.561 603.007 325.965V321.125Z" fill="#3C41E0"/>
<path d="M613.477 330.959H615.149V326.163C615.149 323.589 616.029 322.313 617.811 322.313C618.119 322.313 618.471 322.379 618.845 322.511L619.417 320.993C619.043 320.861 618.669 320.795 618.273 320.795C616.777 320.795 615.853 321.499 614.973 323.171V321.125H613.477V330.959Z" fill="#3C41E0"/>
<path d="M621.167 330.959H622.839V325.877C622.839 324.799 622.839 323.985 623.411 323.281C623.961 322.599 624.819 322.225 625.809 322.225C627.569 322.225 628.383 323.193 628.383 325.173V330.959H630.099V324.271C630.099 322.049 628.691 320.773 626.403 320.773C624.863 320.773 623.675 321.367 622.817 322.643V321.125H621.167V330.959Z" fill="#3C41E0"/>
<path d="M633.414 330.959H635.086V325.877C635.086 324.799 635.086 323.985 635.658 323.281C636.208 322.599 637.066 322.225 638.056 322.225C639.816 322.225 640.63 323.193 640.63 325.173V330.959H642.346V324.271C642.346 322.049 640.938 320.773 638.65 320.773C637.11 320.773 635.922 321.367 635.064 322.643V314.305H633.414V330.959Z" fill="#3C41E0"/>
<path d="M654.812 321.125H653.14V322.973C652.392 321.521 651.182 320.773 649.532 320.773C646.782 320.773 644.912 322.775 644.912 326.075C644.912 329.287 646.804 331.377 649.62 331.377C651.138 331.377 652.392 330.607 653.184 329.177V330.959H654.812V321.125ZM653.184 326.141C653.184 328.407 651.952 329.705 649.972 329.705C647.882 329.705 646.694 328.363 646.694 325.987C646.694 323.743 647.882 322.445 649.906 322.445C651.798 322.445 653.184 323.853 653.184 326.141Z" fill="#3C41E0"/>
<path d="M658.185 330.959H659.857V325.877C659.857 324.799 659.857 323.985 660.429 323.281C660.979 322.599 661.837 322.225 662.827 322.225C664.587 322.225 665.401 323.193 665.401 325.173V330.959H667.117V324.271C667.117 322.049 665.709 320.773 663.421 320.773C661.881 320.773 660.693 321.367 659.835 322.643V321.125H658.185V330.959Z" fill="#3C41E0"/>
<path d="M679.583 314.305H677.911V322.973C677.163 321.521 675.953 320.773 674.325 320.773C671.575 320.773 669.683 322.775 669.683 326.075C669.683 329.287 671.575 331.377 674.391 331.377C675.909 331.377 677.185 330.585 677.955 329.177V330.959H679.583V314.305ZM677.955 326.097C677.955 328.429 676.679 329.749 674.655 329.749C672.697 329.749 671.465 328.341 671.465 325.877C671.465 323.699 672.675 322.445 674.633 322.445C676.613 322.445 677.955 323.875 677.955 326.097Z" fill="#3C41E0"/>
<path d="M683.109 330.959H684.825V314.305H683.109V330.959Z" fill="#3C41E0"/>
<path d="M697.127 326.295C697.127 326.185 697.127 326.075 697.127 325.965C697.127 322.709 695.279 320.751 692.397 320.751C689.537 320.751 687.491 322.907 687.491 326.009C687.491 329.221 689.515 331.377 692.507 331.377C694.531 331.377 696.071 330.475 697.061 328.693L695.785 327.835C694.971 329.265 693.915 329.969 692.595 329.969C690.703 329.969 689.339 328.583 689.339 326.449C689.339 326.405 689.339 326.339 689.339 326.295H697.127ZM695.323 324.931H689.339C689.515 323.259 690.725 322.225 692.331 322.225C694.113 322.225 695.213 323.193 695.323 324.931Z" fill="#3C41E0"/>
<path d="M699.672 330.959H701.344V326.163C701.344 323.589 702.224 322.313 704.006 322.313C704.314 322.313 704.666 322.379 705.04 322.511L705.612 320.993C705.238 320.861 704.864 320.795 704.468 320.795C702.972 320.795 702.048 321.499 701.168 323.171V321.125H699.672V330.959Z" fill="#3C41E0"/>
<path d="M528.117 338.373C528.086 338.968 527.85 339.534 527.448 339.973C526.085 341.983 524.711 343.986 523.327 345.982C522.141 347.69 520.994 349.43 519.708 351.06C519.231 351.783 518.568 352.364 517.789 352.741C517.38 352.907 517.235 352.994 516.962 352.659C516.571 352.178 516.41 352.303 516.42 352.88C516.42 352.94 516.24 353.016 516.134 353.065C515.128 353.522 513.895 353.495 513.149 354.549C513.03 354.717 512.335 354.686 512.1 354.501C511.9 354.34 511.953 353.833 511.92 353.476C511.916 353.418 511.923 353.359 511.941 353.303C511.96 353.247 511.989 353.196 512.028 353.152C512.192 353.011 512.297 352.813 512.321 352.598C512.345 352.383 512.287 352.167 512.158 351.993C511.892 352.221 511.621 352.444 511.363 352.68C511.267 352.753 511.197 352.855 511.163 352.971C511.165 353.188 511.081 353.397 510.93 353.553C510.779 353.709 510.573 353.8 510.356 353.805C509.99 353.822 509.356 352.916 509.262 352.474C509.163 351.811 509.325 351.136 509.714 350.59C510.171 349.877 510.7 349.213 511.292 348.608C513.405 346.338 515.543 344.093 517.673 341.839C517.862 341.674 518.036 341.494 518.194 341.299C518.275 341.146 518.304 340.97 518.277 340.799C518.27 340.733 518.09 340.647 517.984 340.639C517.671 340.65 517.358 340.644 517.046 340.622C516.517 340.532 516.006 341.552 515.479 340.642C514.942 341.301 514.207 340.942 513.559 340.998C512.936 341.049 512.306 341.008 511.678 341.008H505.656C505.029 341.008 504.401 340.988 503.775 341.014C503.125 341.041 502.517 340.865 501.821 340.947C499.559 341.214 497.321 340.457 495.021 340.577C494.288 340.616 493.579 339.888 492.76 339.72C492.57 339.681 492.372 339.259 492.331 338.99C492.298 338.731 492.32 338.468 492.395 338.218C492.47 337.967 492.596 337.735 492.765 337.537C492.934 337.338 493.143 337.176 493.379 337.063C493.614 336.949 493.87 336.886 494.131 336.877C495.387 336.678 496.654 336.554 497.925 336.504C499.39 336.457 500.792 335.956 502.287 336.083C503.719 336.279 505.172 336.268 506.601 336.052C508.359 335.78 510.138 335.676 511.915 335.74C513.671 335.705 515.428 335.733 517.184 335.733C517.497 335.755 517.81 335.748 518.121 335.711C518.214 335.693 518.355 335.319 518.306 335.268C517.68 334.615 517.198 333.968 517.934 333.079C517.968 333.039 517.834 332.779 517.809 332.784C517.599 332.813 517.22 332.884 517.218 332.945C517.19 333.71 516.818 333.46 516.65 333.093C515.972 331.562 514.818 330.331 514.033 328.9C513.318 327.838 512.762 326.677 512.383 325.453C512.291 325.025 511.948 324.446 512.842 324.379C512.882 324.379 512.782 323.66 513.042 323.32C513.098 323.218 513.137 323.109 513.16 322.995C513.248 323.095 513.316 323.24 513.427 323.295C513.915 323.53 513.451 324.508 514.327 324.444C514.335 324.444 514.418 324.736 514.366 324.785C514.214 324.898 514.049 324.991 513.873 325.062C514.102 325.124 514.337 325.158 514.573 325.162C514.651 325.145 514.723 325.108 514.783 325.056C514.843 325.003 514.889 324.937 514.916 324.862C514.961 324.49 514.905 324.108 514.942 323.735C514.99 323.469 515.061 323.207 515.155 322.953C515.332 323.13 515.649 323.299 515.66 323.487C515.694 324.074 515.742 324.003 516.244 323.757C516.636 323.565 517.259 322.733 517.762 323.688C517.995 324.133 518.953 323.867 518.741 324.781C518.688 325.006 519.141 325.338 519.341 325.636C519.618 326.051 519.808 325.8 520.009 325.568C519.977 326.101 520.794 326.284 520.521 326.974C520.321 327.474 520.437 327.542 520.826 327.374C520.987 327.307 521.141 327.058 521.254 327.084C521.432 327.164 521.584 327.291 521.695 327.451C521.35 327.925 521.483 328.074 522.003 328.351C522.503 328.62 522.824 329.233 523.298 329.829C523.175 329.8 523.109 329.702 523.048 329.704C522.884 329.72 522.721 329.75 522.561 329.792C522.583 329.874 522.605 330.029 522.626 330.029C522.865 330.033 523.1 329.963 523.298 329.829C523.474 330.055 523.709 330.429 523.982 330.769C524.207 331.05 524.548 331.256 524.714 331.563C524.942 331.985 525.507 332.463 524.742 332.948C524.704 332.973 524.833 333.263 524.884 333.429C525.084 333.358 525.452 333.299 525.458 333.215C525.515 332.375 525.824 332.849 526.047 333.099C526.165 333.231 526.229 333.402 526.226 333.578C526.126 334.338 526.386 334.721 527.203 334.636C527.289 334.78 527.341 334.942 527.355 335.109C527.362 335.167 527.216 335.241 527.14 335.309C526.923 334.992 526.687 334.946 526.482 335.303C526.363 335.502 526.285 335.723 526.252 335.953C526.267 336.127 526.316 336.297 526.395 336.453C526.485 336.327 526.557 336.188 526.608 336.042C526.708 335.561 527.081 335.754 527.351 335.742C527.851 335.712 527.736 336.106 527.742 336.389C527.753 336.951 527.726 337.516 527.762 338.076C527.764 338.184 527.992 338.273 528.117 338.373ZM523.05 335.735H523.218C523.194 335.635 523.156 335.538 523.104 335.449C523.086 335.426 522.955 335.488 522.876 335.511C522.96 335.625 523.081 335.704 523.218 335.735C523.422 336.013 523.663 336.26 523.936 336.469C524.219 336.63 524.584 335.816 524.925 336.477C525.103 336.3 525.425 336.119 525.425 335.946C525.302 335.33 525.27 334.699 525.331 334.074C525.245 334.255 525.17 334.441 525.108 334.631C525.093 334.747 525.091 334.865 525.102 334.981C525.228 334.894 525.423 334.831 525.461 334.715C525.499 334.599 525.407 334.406 525.102 334.981C524.984 335.141 524.857 335.293 524.721 335.438C524.634 335.514 524.532 335.57 524.421 335.602C523.936 334.905 523.625 335.76 523.05 335.737V335.735ZM520.399 333.083C520.327 333.195 520.191 333.328 520.217 333.383C520.311 333.557 520.435 333.712 520.585 333.841C520.606 333.859 520.791 333.691 520.9 333.609L520.399 333.083ZM516.512 325.361L516.306 324.866C516.224 324.974 516.106 325.072 516.071 325.193C516.048 325.279 516.144 325.393 516.187 325.5L516.512 325.361ZM520.803 330.406C520.703 330.554 520.584 330.656 520.593 330.743C520.631 330.907 520.69 331.065 520.769 331.213C520.831 331.113 520.948 331.02 520.945 330.927C520.919 330.749 520.871 330.575 520.803 330.408V330.406ZM521.257 334.242C521.119 334.328 520.967 334.383 520.97 334.428C520.993 334.596 521.032 334.761 521.086 334.921C521.168 334.874 521.318 334.831 521.321 334.779C521.317 334.599 521.295 334.42 521.257 334.244V334.242ZM522.14 335.581C521.992 335.481 521.891 335.361 521.803 335.371C521.64 335.408 521.482 335.467 521.334 335.546C521.434 335.609 521.526 335.725 521.619 335.723C521.798 335.697 521.973 335.65 522.14 335.583V335.581ZM519.073 329.14C519.031 329.098 518.98 329.015 518.949 329.022C518.86 329.051 518.776 329.091 518.696 329.14C518.738 329.182 518.789 329.265 518.82 329.258C518.909 329.23 518.994 329.191 519.073 329.142V329.14ZM521.899 330.082C521.857 330.124 521.774 330.175 521.781 330.206C521.81 330.295 521.85 330.38 521.899 330.459C521.941 330.417 522.024 330.366 522.017 330.335C521.988 330.247 521.948 330.163 521.899 330.084V330.082ZM518.562 331.644L518.319 331.778C518.361 331.82 518.412 331.903 518.443 331.896C518.532 331.867 518.617 331.827 518.696 331.778L518.562 331.644ZM524.349 332.531C524.307 332.49 524.256 332.407 524.225 332.414C524.136 332.443 524.052 332.482 523.972 332.531C524.014 332.573 524.065 332.656 524.096 332.649C524.185 332.621 524.27 332.582 524.349 332.533V332.531ZM522.975 334.55L523.218 334.416C523.176 334.374 523.125 334.291 523.094 334.298C523.006 334.327 522.921 334.367 522.841 334.416L522.975 334.55Z" fill="#3D466E"/>
<path d="M432.777 339.128C430.141 339.128 427.501 339.045 424.871 339.162C423.56 339.101 422.269 338.825 421.048 338.343C419.948 338.036 419.717 337.036 420.34 336.043C420.695 335.477 421.428 335.469 421.876 335.424C423.326 335.277 424.776 335.053 426.224 334.901C428.691 334.642 431.183 334.889 433.595 334.525C435.548 334.312 437.513 334.217 439.477 334.241C441.42 334.134 443.368 334.145 445.309 334.274C446.666 334.34 447.994 334.688 449.209 335.295C450.083 335.769 449.652 336.317 449.681 336.795C449.696 337.053 449.199 337.558 448.906 337.58C447.823 337.558 446.765 337.913 445.915 338.586C445.709 338.704 445.472 338.758 445.235 338.744C443.404 338.878 441.575 339.044 439.742 339.112C437.909 339.18 436.102 339.125 434.282 339.125L432.777 339.128Z" fill="#3D466E"/>
<path d="M284.777 339.128C282.141 339.128 279.501 339.045 276.871 339.162C275.56 339.101 274.269 338.825 273.048 338.343C271.948 338.036 271.717 337.036 272.34 336.043C272.695 335.477 273.428 335.469 273.876 335.424C275.326 335.277 276.776 335.053 278.224 334.901C280.691 334.642 283.183 334.889 285.595 334.525C287.548 334.312 289.513 334.217 291.477 334.241C293.42 334.134 295.368 334.145 297.309 334.274C298.666 334.34 299.994 334.688 301.209 335.295C302.083 335.769 301.652 336.317 301.681 336.795C301.696 337.053 301.199 337.558 300.906 337.58C299.823 337.558 298.765 337.913 297.915 338.586C297.709 338.704 297.472 338.758 297.235 338.744C295.404 338.878 293.575 339.044 291.742 339.112C289.909 339.18 288.102 339.125 286.282 339.125L284.777 339.128Z" fill="#3D466E"/>
<path d="M173.777 339.128C171.141 339.128 168.501 339.045 165.871 339.162C164.56 339.101 163.269 338.825 162.048 338.343C160.948 338.036 160.717 337.036 161.34 336.043C161.695 335.477 162.428 335.469 162.876 335.424C164.326 335.277 165.776 335.053 167.224 334.901C169.691 334.642 172.183 334.889 174.595 334.525C176.548 334.312 178.513 334.217 180.477 334.241C182.42 334.134 184.368 334.145 186.309 334.274C187.666 334.34 188.994 334.688 190.209 335.295C191.083 335.769 190.652 336.317 190.681 336.795C190.696 337.053 190.199 337.558 189.906 337.58C188.823 337.558 187.765 337.913 186.915 338.586C186.709 338.704 186.472 338.758 186.235 338.744C184.404 338.878 182.575 339.044 180.742 339.112C178.909 339.18 177.102 339.125 175.282 339.125L173.777 339.128Z" fill="#3D466E"/>
<path d="M395.777 339.128C393.141 339.128 390.501 339.045 387.871 339.162C386.56 339.101 385.269 338.825 384.048 338.343C382.948 338.036 382.717 337.036 383.34 336.043C383.695 335.477 384.428 335.469 384.876 335.424C386.326 335.277 387.776 335.053 389.224 334.901C391.691 334.642 394.183 334.889 396.595 334.525C398.548 334.312 400.513 334.217 402.477 334.241C404.42 334.134 406.368 334.145 408.309 334.274C409.666 334.34 410.994 334.688 412.209 335.295C413.083 335.769 412.652 336.317 412.681 336.795C412.696 337.053 412.199 337.558 411.906 337.58C410.823 337.558 409.765 337.913 408.915 338.586C408.709 338.704 408.472 338.758 408.235 338.744C406.404 338.878 404.575 339.044 402.742 339.112C400.909 339.18 399.102 339.125 397.282 339.125L395.777 339.128Z" fill="#3D466E"/>
<path d="M247.777 339.128C245.141 339.128 242.501 339.045 239.871 339.162C238.56 339.101 237.269 338.825 236.048 338.343C234.948 338.036 234.717 337.036 235.34 336.043C235.695 335.477 236.428 335.469 236.876 335.424C238.326 335.277 239.776 335.053 241.224 334.901C243.691 334.642 246.183 334.889 248.595 334.525C250.548 334.312 252.513 334.217 254.477 334.241C256.42 334.134 258.368 334.145 260.309 334.274C261.666 334.34 262.994 334.688 264.209 335.295C265.083 335.769 264.652 336.317 264.681 336.795C264.696 337.053 264.199 337.558 263.906 337.58C262.823 337.558 261.765 337.913 260.915 338.586C260.709 338.704 260.472 338.758 260.235 338.744C258.404 338.878 256.575 339.044 254.742 339.112C252.909 339.18 251.102 339.125 249.282 339.125L247.777 339.128Z" fill="#3D466E"/>
<path d="M358.777 339.128C356.141 339.128 353.501 339.045 350.871 339.162C349.56 339.101 348.269 338.825 347.048 338.343C345.948 338.036 345.717 337.036 346.34 336.043C346.695 335.477 347.428 335.469 347.876 335.424C349.326 335.277 350.776 335.053 352.224 334.901C354.691 334.642 357.183 334.889 359.595 334.525C361.548 334.312 363.513 334.217 365.477 334.241C367.42 334.134 369.368 334.145 371.309 334.274C372.666 334.34 373.994 334.688 375.209 335.295C376.083 335.769 375.652 336.317 375.681 336.795C375.696 337.053 375.199 337.558 374.906 337.58C373.823 337.558 372.765 337.913 371.915 338.586C371.709 338.704 371.472 338.758 371.235 338.744C369.404 338.878 367.575 339.044 365.742 339.112C363.909 339.18 362.102 339.125 360.282 339.125L358.777 339.128Z" fill="#3D466E"/>
<path d="M479.77 339.786C479.111 340.077 479.176 339.186 478.98 339.214C478.622 339.267 478.341 339.723 477.972 339.856C477.672 339.965 477.323 339.981 477.196 339.39C477.091 338.906 476.235 339.001 476.196 339.3C476.096 340.008 475.688 339.916 475.286 339.872C473.959 339.728 472.569 340.267 471.301 339.504C470.377 340.543 469.115 338.804 468.195 339.881C467.652 339.704 466.763 340.381 466.613 339.236C466.524 339.252 466.388 339.236 466.355 339.29C466.238 339.475 466.169 339.846 466.06 339.854C465.387 340.007 464.687 339.998 464.017 339.829C463.279 339.552 462.488 339.445 461.702 339.514C461.279 339.504 460.95 339.482 461.02 338.93C460.949 338.871 460.859 338.84 460.767 338.843C460.505 338.969 460.218 339.037 459.927 339.042C459.635 339.046 459.347 338.988 459.08 338.87C458.854 338.797 458.618 338.759 458.38 338.757C458.245 338.776 458.107 338.767 457.976 338.73C457.845 338.693 457.722 338.629 457.617 338.543C457.512 338.456 457.426 338.348 457.364 338.226C457.303 338.104 457.268 337.971 457.261 337.834C457.161 337.292 457.53 336.928 457.629 336.477C457.739 335.983 458.082 336.204 458.329 336.103C458.888 335.873 459.479 335.489 460.044 335.765C460.633 336.053 461.105 334.986 461.628 335.736C462.29 335.449 463.007 335.312 463.728 335.336C464.523 335.198 465.216 335.711 466.074 335.42C466.938 335.268 467.82 335.249 468.689 335.364H476.78C477.595 335.364 478.554 335.096 479.188 335.435C479.905 335.819 480.709 334.745 481.205 335.735C482.23 334.648 483.205 336.143 484.305 335.811C484.811 335.658 485.565 336.279 486.185 336.592C486.285 336.641 486.309 336.926 486.291 337.092C486.226 337.485 486.048 337.85 485.777 338.142C485.506 338.434 485.156 338.64 484.769 338.734C484.028 338.778 483.254 338.621 482.79 339.427C482.771 339.449 482.747 339.467 482.721 339.48C482.694 339.493 482.666 339.501 482.636 339.502C481.677 339.599 480.721 339.694 479.77 339.786ZM479.261 338.696L479.504 338.562C479.462 338.52 479.411 338.437 479.38 338.444C479.291 338.473 479.207 338.513 479.127 338.562L479.261 338.696Z" fill="#3D466E"/>
<path d="M331.77 339.786C331.111 340.077 331.176 339.186 330.98 339.214C330.622 339.267 330.341 339.723 329.972 339.856C329.672 339.965 329.323 339.981 329.196 339.39C329.091 338.906 328.235 339.001 328.196 339.3C328.096 340.008 327.688 339.916 327.286 339.872C325.959 339.728 324.569 340.267 323.301 339.504C322.377 340.543 321.115 338.804 320.195 339.881C319.652 339.704 318.763 340.381 318.613 339.236C318.524 339.252 318.388 339.236 318.355 339.29C318.238 339.475 318.169 339.846 318.06 339.854C317.387 340.007 316.687 339.998 316.017 339.829C315.279 339.552 314.488 339.445 313.702 339.514C313.279 339.504 312.95 339.482 313.02 338.93C312.949 338.871 312.859 338.84 312.767 338.843C312.505 338.969 312.218 339.037 311.927 339.042C311.635 339.046 311.347 338.988 311.08 338.87C310.854 338.797 310.618 338.759 310.38 338.757C310.245 338.776 310.107 338.767 309.976 338.73C309.845 338.693 309.722 338.629 309.617 338.543C309.512 338.456 309.426 338.348 309.364 338.226C309.303 338.104 309.268 337.971 309.261 337.834C309.161 337.292 309.53 336.928 309.629 336.477C309.739 335.983 310.082 336.204 310.329 336.103C310.888 335.873 311.479 335.489 312.044 335.765C312.633 336.053 313.105 334.986 313.628 335.736C314.29 335.449 315.007 335.312 315.728 335.336C316.523 335.198 317.216 335.711 318.074 335.42C318.938 335.268 319.82 335.249 320.689 335.364H328.78C329.595 335.364 330.554 335.096 331.188 335.435C331.905 335.819 332.709 334.745 333.205 335.735C334.23 334.648 335.205 336.143 336.305 335.811C336.811 335.658 337.565 336.279 338.185 336.592C338.285 336.641 338.309 336.926 338.291 337.092C338.226 337.485 338.048 337.85 337.777 338.142C337.506 338.434 337.156 338.64 336.769 338.734C336.028 338.778 335.254 338.621 334.79 339.427C334.771 339.449 334.747 339.467 334.721 339.48C334.694 339.493 334.666 339.501 334.636 339.502C333.677 339.599 332.721 339.694 331.77 339.786ZM331.261 338.696L331.504 338.562C331.462 338.52 331.411 338.437 331.38 338.444C331.291 338.473 331.207 338.513 331.127 338.562L331.261 338.696Z" fill="#3D466E"/>
<path d="M220.77 339.786C220.111 340.077 220.176 339.186 219.98 339.214C219.622 339.267 219.341 339.723 218.972 339.856C218.672 339.965 218.323 339.981 218.196 339.39C218.091 338.906 217.235 339.001 217.196 339.3C217.096 340.008 216.688 339.916 216.286 339.872C214.959 339.728 213.569 340.267 212.301 339.504C211.377 340.543 210.115 338.804 209.195 339.881C208.652 339.704 207.763 340.381 207.613 339.236C207.524 339.252 207.388 339.236 207.355 339.29C207.238 339.475 207.169 339.846 207.06 339.854C206.387 340.007 205.687 339.998 205.017 339.829C204.279 339.552 203.488 339.445 202.702 339.514C202.279 339.504 201.95 339.482 202.02 338.93C201.949 338.871 201.859 338.84 201.767 338.843C201.505 338.969 201.218 339.037 200.927 339.042C200.635 339.046 200.347 338.988 200.08 338.87C199.854 338.797 199.618 338.759 199.38 338.757C199.245 338.776 199.107 338.767 198.976 338.73C198.845 338.693 198.722 338.629 198.617 338.543C198.512 338.456 198.426 338.348 198.364 338.226C198.303 338.104 198.268 337.971 198.261 337.834C198.161 337.292 198.53 336.928 198.629 336.477C198.739 335.983 199.082 336.204 199.329 336.103C199.888 335.873 200.479 335.489 201.044 335.765C201.633 336.053 202.105 334.986 202.628 335.736C203.29 335.449 204.007 335.312 204.728 335.336C205.523 335.198 206.216 335.711 207.074 335.42C207.938 335.268 208.82 335.249 209.689 335.364H217.78C218.595 335.364 219.554 335.096 220.188 335.435C220.905 335.819 221.709 334.745 222.205 335.735C223.23 334.648 224.205 336.143 225.305 335.811C225.811 335.658 226.565 336.279 227.185 336.592C227.285 336.641 227.309 336.926 227.291 337.092C227.226 337.485 227.048 337.85 226.777 338.142C226.506 338.434 226.156 338.64 225.769 338.734C225.028 338.778 224.254 338.621 223.79 339.427C223.771 339.449 223.747 339.467 223.721 339.48C223.694 339.493 223.666 339.501 223.636 339.502C222.677 339.599 221.721 339.694 220.77 339.786ZM220.261 338.696L220.504 338.562C220.462 338.52 220.411 338.437 220.38 338.444C220.291 338.473 220.207 338.513 220.127 338.562L220.261 338.696Z" fill="#3D466E"/>
<path d="M148.77 339.786C148.111 340.077 148.176 339.186 147.98 339.214C147.622 339.267 147.341 339.723 146.972 339.856C146.672 339.965 146.323 339.981 146.196 339.39C146.091 338.906 145.235 339.001 145.196 339.3C145.096 340.008 144.688 339.916 144.286 339.872C142.959 339.728 141.569 340.267 140.301 339.504C139.377 340.543 138.115 338.804 137.195 339.881C136.652 339.704 135.763 340.381 135.613 339.236C135.524 339.252 135.388 339.236 135.355 339.29C135.238 339.475 135.169 339.846 135.06 339.854C134.387 340.007 133.687 339.998 133.017 339.829C132.279 339.552 131.488 339.445 130.702 339.514C130.279 339.504 129.95 339.482 130.02 338.93C129.949 338.871 129.859 338.84 129.767 338.843C129.505 338.969 129.218 339.037 128.927 339.042C128.635 339.046 128.347 338.988 128.08 338.87C127.854 338.797 127.618 338.759 127.38 338.757C127.245 338.776 127.107 338.767 126.976 338.73C126.845 338.693 126.722 338.629 126.617 338.543C126.512 338.456 126.426 338.348 126.364 338.226C126.303 338.104 126.268 337.971 126.261 337.834C126.161 337.292 126.53 336.928 126.629 336.477C126.739 335.983 127.082 336.204 127.329 336.103C127.888 335.873 128.479 335.489 129.044 335.765C129.633 336.053 130.105 334.986 130.628 335.736C131.29 335.449 132.007 335.312 132.728 335.336C133.523 335.198 134.216 335.711 135.074 335.42C135.938 335.268 136.82 335.249 137.689 335.364H145.78C146.595 335.364 147.554 335.096 148.188 335.435C148.905 335.819 149.709 334.745 150.205 335.735C151.23 334.648 152.205 336.143 153.305 335.811C153.811 335.658 154.565 336.279 155.185 336.592C155.285 336.641 155.309 336.926 155.291 337.092C155.226 337.485 155.048 337.85 154.777 338.142C154.506 338.434 154.156 338.64 153.769 338.734C153.028 338.778 152.254 338.621 151.79 339.427C151.771 339.449 151.747 339.467 151.721 339.48C151.694 339.493 151.666 339.501 151.636 339.502C150.677 339.599 149.721 339.694 148.77 339.786ZM148.261 338.696L148.504 338.562C148.462 338.52 148.411 338.437 148.38 338.444C148.291 338.473 148.207 338.513 148.127 338.562L148.261 338.696Z" fill="#3D466E"/>
<path d="M528.344 337.473C528.421 337.805 528.518 337.982 528.475 338.114C528.437 338.229 528.242 338.293 528.116 338.38C528.106 338.263 528.107 338.146 528.121 338.03C528.184 337.84 528.259 337.654 528.344 337.473V337.473Z" fill="#3D466E"/>
<path d="M873.525 314.317C874.364 314.017 874.373 314 874.591 314.946C874.617 315.058 874.713 315.241 874.781 315.246C875.382 315.305 875.965 315.485 876.494 315.774C877.024 316.064 877.489 316.458 877.862 316.933C878.529 317.551 879.227 318.133 879.955 318.678C880.606 319.22 881.033 320.023 881.925 320.292C882.158 320.396 882.344 320.582 882.45 320.814C882.612 321.187 882.749 321.57 882.862 321.961C883.343 321.636 883.84 321.861 883.842 322.289C883.847 323.003 884.501 322.689 884.723 323.035C884.988 323.377 885.305 323.676 885.661 323.922C885.984 324.184 886.361 324.381 886.672 324.652C887.051 324.98 887.388 325.352 887.743 325.711C888.054 326.022 888.312 326.446 888.686 326.618C889.372 326.935 889.678 327.654 890.177 327.991C890.747 328.377 891.166 328.883 891.685 329.291C892.509 329.862 893.234 330.563 893.831 331.368C894.411 331.977 894.762 332.768 894.824 333.606C894.815 333.765 894.917 334.063 895 334.075C896.38 334.275 896.007 335.891 896.939 336.495C897.139 336.624 896.982 337.387 896.886 337.836C896.855 337.983 896.595 338.489 896.228 338C896.043 338.065 895.873 338.167 895.728 338.3C895.679 338.349 895.762 338.565 895.828 338.683C895.894 338.801 896.011 338.854 896.085 338.954C896.296 339.241 896.73 339.649 896.654 339.807C896.454 340.223 895.972 340.873 895.707 340.827C894.348 340.592 893.757 341.755 892.907 342.303C890.507 343.851 888.307 345.721 885.907 347.262C883.024 349.11 880.151 350.968 877.329 352.906C877.004 353.161 876.654 353.381 876.283 353.563C875.144 353.93 874.109 354.563 873.263 355.41C872.571 356.191 871.468 355.988 870.502 355.926C870.433 355.926 870.323 355.613 870.338 355.457C870.358 355.242 870.421 354.938 870.571 354.847C870.912 354.64 871.351 354.588 871.683 354.371C871.82 354.281 871.783 353.929 871.831 353.697C872.052 353.47 872.225 353.202 872.34 352.907C872.382 352.717 872.285 352.927 872.218 353.147C872.206 353.184 872.325 353.261 872.384 353.32C872.56 353.115 872.737 352.91 872.914 352.707C872.814 352.66 872.714 352.613 872.34 352.907C872.225 353.202 872.052 353.47 871.831 353.697C871.308 353.809 870.762 353.509 870.231 353.933C869.888 354.206 869.969 353.724 869.959 353.563C869.945 353.336 870.546 353.246 870.085 352.873C869.726 352.581 869.219 352.273 869.825 351.673C869.925 351.58 869.618 351.052 870.025 350.773C870.578 350.396 870.062 349.292 870.99 349.191C871.81 349.102 871.711 348.314 872.117 347.917C872.5 347.542 872.926 347.722 873.334 347.666V348.417C873.234 348.441 873.138 348.479 873.049 348.531C873.025 348.549 873.088 348.68 873.111 348.759C873.206 348.693 873.282 348.604 873.334 348.501C873.438 348.357 873.565 348.232 873.711 348.132L873.334 347.663C873.379 347.43 873.343 347.123 873.48 346.977C874.673 345.662 876.018 344.492 877.487 343.494C877.964 343.069 878.39 342.589 878.755 342.064C878.938 341.864 878.869 341.694 878.705 341.514C878.338 341.114 877.895 341.267 877.485 341.264C875.099 341.249 872.712 341.294 870.327 341.237C869.427 341.216 868.468 341.571 867.609 340.996C866.827 341.262 865.996 341.351 865.176 341.258C860.761 341.427 856.376 340.709 851.956 340.849C847.502 340.99 843.041 340.88 838.582 340.88C835.708 340.191 832.782 340.58 829.882 340.516C826.931 340.456 823.947 340.78 821.036 340.438C816.744 339.933 812.436 340.525 808.196 340.045C805.276 339.715 802.385 339.93 799.489 339.738C798.72 339.687 757.964 339.447 757.195 339.387C756.383 339.324 755.558 339.432 754.749 339.355C754.392 339.308 754.047 339.189 753.737 339.007C753.426 338.824 753.155 338.58 752.94 338.291C752.829 338.093 752.75 337.879 752.707 337.656C752.918 337.609 753.133 337.59 753.349 337.598C753.684 337.699 754.023 337.783 754.366 337.85C754.791 337.846 755.215 337.81 755.634 337.744C755.271 337.401 754.873 337.096 754.447 336.835C754.147 336.685 753.683 336.853 753.373 336.707C753.217 336.632 753.078 336.526 752.965 336.394C752.852 336.262 752.768 336.108 752.719 335.942C752.646 335.457 753.132 335.67 753.393 335.597C753.529 335.539 753.656 335.462 753.77 335.369C753.658 335.337 753.553 335.288 753.457 335.222C753.311 335.082 753.051 334.858 753.087 334.762C753.286 334.216 753.537 333.691 753.836 333.193C753.927 333.045 754.251 333.043 754.465 332.965C755.887 332.452 797.365 332.597 798.83 332.592C801.907 332.582 804.984 332.592 808.061 332.58C808.337 332.547 808.607 332.479 808.866 332.38C808.58 332.301 808.287 332.249 807.992 332.223C805.544 332.21 803.092 332.215 800.646 332.215C800.332 332.215 800.017 332.229 799.705 332.205C799.636 332.199 799.57 332.064 799.522 331.978C799.514 331.962 799.598 331.863 799.649 331.854C799.772 331.838 799.896 331.833 800.02 331.839C803.344 331.99 806.674 331.963 809.996 331.76C813.225 331.413 816.43 331.51 819.644 331.479C825.734 331.42 831.825 331.466 837.916 331.459C839.445 331.596 840.986 331.475 842.475 331.101C842.663 331.037 842.927 331.192 843.156 331.246C842.942 331.446 842.756 331.767 842.509 331.812C842.011 331.866 841.509 331.875 841.009 331.839H815.956C815.456 331.839 814.956 331.829 814.45 331.848C814.358 331.848 814.271 331.973 814.183 332.04C814.283 332.099 814.383 332.204 814.483 332.208C814.983 332.225 815.483 332.215 815.99 332.215H838.218C841.169 332.215 844.118 332.225 847.072 332.206C847.529 332.171 847.982 332.101 848.428 331.997C848.013 331.924 847.595 331.874 847.175 331.846C846.108 331.824 845.04 331.855 843.975 331.819C843.832 331.814 843.698 331.538 843.56 331.388C843.684 331.288 843.803 331.108 843.933 331.099C844.433 331.065 844.933 331.085 845.439 331.085C854.921 331.085 864.403 331.08 873.884 331.071C874.524 331.071 875.26 331.381 875.794 330.722C876.453 331.672 877.094 330.652 877.749 330.697C878.439 330.732 879.13 330.732 879.82 330.697C879.876 330.697 879.997 330.429 879.967 330.397C879.658 330 879.301 329.643 878.904 329.334C877.42 328.278 876.005 327.127 874.67 325.888C873.583 324.839 872.409 323.885 871.159 323.037C870.605 322.624 870.108 322.138 869.684 321.592C869.397 321.286 869.542 321.06 870.072 320.911C870.283 320.841 870.49 320.761 870.693 320.67C870.593 320.461 870.54 320.193 870.378 320.055C869.925 319.667 869.411 319.355 868.949 318.973C868.813 318.901 868.696 318.798 868.606 318.674C868.516 318.549 868.456 318.405 868.431 318.253C868.406 318.101 868.416 317.945 868.461 317.798C868.505 317.651 868.584 317.516 868.689 317.404C868.917 317.089 869.16 316.414 868.263 316.38C868.19 316.38 868.058 316.197 868.063 316.113C868.097 315.823 868.216 315.541 868.235 315.251C868.213 315.065 868.158 314.885 868.073 314.719C868.343 314.649 868.61 314.57 868.882 314.51C869.361 314.403 869.124 314.022 869.29 313.581C869.327 313.467 869.254 313.526 869.181 313.586L869.349 313.754C869.411 313.683 869.467 313.607 869.516 313.527C869.524 313.513 869.444 313.452 869.29 313.581C868.49 313.608 868.749 313.059 868.89 312.771C869.063 312.42 869.39 312.629 869.626 312.871C869.665 312.889 869.707 312.898 869.75 312.897C869.792 312.895 869.834 312.884 869.871 312.863C870.234 312.123 870.871 312.503 871.412 312.405C871.825 312.331 872.2 312.096 872.544 312.429C872.858 312.633 873.113 312.916 873.283 313.249C873.453 313.583 873.533 313.955 873.515 314.329C873.222 314.676 873.693 313.822 872.952 313.762C872.89 313.762 872.799 313.734 872.77 313.762C872.615 313.93 872.754 314.331 873.17 314.915C873.247 315.013 873.335 315.101 873.433 315.178C873.469 315.204 873.513 315.217 873.557 315.216C873.62 315.107 873.664 315.001 873.525 314.317ZM822.809 337.867H804.724C804.224 337.867 803.719 337.859 803.217 337.874C803.111 337.874 803.007 337.967 802.902 338.017C803.034 338.093 803.165 338.233 803.297 338.234C805.055 338.249 806.815 338.195 808.571 338.258C810.28 338.319 811.983 338.586 813.69 338.604C818.525 338.653 823.361 338.621 828.196 338.621C828.887 338.621 829.577 338.613 830.268 338.621C830.885 338.562 831.508 338.593 832.116 338.714C832.666 338.897 833.204 338.55 833.797 338.932C834.147 339.157 834.906 338.732 835.484 338.622C835.688 338.576 835.9 338.582 836.101 338.641C836.301 338.699 836.483 338.808 836.63 338.957C836.981 338.421 837.53 338.64 837.997 338.626C838.876 338.6 839.755 338.619 840.635 338.619C841.508 338.522 842.39 338.539 843.259 338.668C844.025 338.877 844.837 338.845 845.584 338.578C846.053 338.421 846.231 339.302 846.652 338.734C847.022 338.234 847.361 339.208 847.867 338.734C848.078 338.605 848.317 338.531 848.564 338.519C848.81 338.507 849.056 338.556 849.278 338.664C850.043 339.186 850.827 338.942 851.599 338.99C852.35 339.036 853.106 339 853.859 339H855.932C856.676 338.891 857.434 338.909 858.172 339.052C858.909 339.333 859.481 338.837 860.144 338.984C860.6 339.084 861.136 338.861 861.483 339.357C861.824 338.811 862.376 338.984 862.842 339.014C863.675 339.069 864.577 338.699 865.332 339.367C865.388 339.386 865.448 339.39 865.505 339.379C865.563 339.368 865.618 339.343 865.663 339.306C865.923 338.819 866.548 339.664 866.74 339C867.266 339.046 867.858 338.811 868.27 339.354C868.611 338.808 869.159 339.009 869.63 339.007C872.83 338.993 876.03 338.998 879.237 339.002C879.779 338.971 880.319 339.08 880.807 339.318C881.16 339.502 881.807 339.134 882.315 338.994C882.458 338.937 882.595 338.864 882.722 338.777C882.617 338.726 882.514 338.633 882.409 338.63C881.844 338.615 881.278 338.623 880.709 338.623C880.209 338.623 879.472 338.828 879.252 338.579C878.828 338.099 878.362 338.711 877.93 338.292C877.671 338.041 876.97 338.246 876.468 338.246H874.768C866.605 338.246 858.442 338.246 850.278 338.246C849.719 338.246 849.16 338.22 848.6 338.206C848.3 337.267 847.5 338.637 847.158 337.894C845.984 338.473 844.63 338.57 843.385 338.164C841.937 337.924 840.469 337.83 839.002 337.884C833.61 337.847 828.209 337.867 822.809 337.867V337.867ZM839.409 333.345H855.599C856.038 333.345 856.478 333.353 856.916 333.334C856.969 333.334 857.028 333.182 857.056 333.092C857.064 333.067 856.976 332.978 856.928 332.974C856.741 332.96 856.552 332.968 856.364 332.968H822.858C822.67 332.955 822.482 332.959 822.295 332.98C822.233 332.991 822.182 333.131 822.154 333.222C822.146 333.247 822.235 333.338 822.282 333.339C822.658 333.349 823.035 333.345 823.411 333.345H839.409ZM870.327 331.461H860.355C859.978 331.461 859.601 331.451 859.226 331.472C859.17 331.472 859.11 331.622 859.078 331.711C859.07 331.736 859.159 331.831 859.205 331.832C859.644 331.841 860.083 331.838 860.522 331.838H879.714C880.09 331.838 880.468 331.857 880.841 331.826C880.962 331.816 881.071 331.673 881.186 331.59C881.086 331.53 880.977 331.488 880.863 331.466C877.352 331.46 873.841 331.458 870.33 331.461H870.327ZM859.072 332.931L857.94 333.097C858.283 333.586 858.786 333.297 859.21 333.328C859.629 333.329 860.047 333.291 860.459 333.216C860.119 332.726 859.609 333.088 859.075 332.931H859.072ZM857.501 331.838C857.859 331.757 858.301 332.043 858.573 331.588C858.219 331.545 857.867 331.496 857.512 331.464C857.328 331.442 857.142 331.445 856.958 331.472C856.897 331.483 856.847 331.623 856.819 331.713C856.811 331.74 856.897 331.828 856.945 331.832C857.132 331.846 857.318 331.838 857.504 331.838H857.501ZM870.539 351.117C870.479 351.156 870.324 351.238 870.331 351.255C870.388 351.452 870.486 351.635 870.62 351.791C870.674 351.841 870.914 351.691 871.07 351.625L870.539 351.117ZM889.823 337.923C889.623 338.406 889.517 338.561 889.55 338.603C889.683 338.748 889.83 338.88 889.989 338.997C890.052 338.897 890.189 338.777 890.165 338.697C890.071 338.431 889.957 338.172 889.823 337.924V337.923ZM850.294 331.991C850.442 332.091 850.544 332.21 850.631 332.201C850.794 332.163 850.952 332.104 851.1 332.025C851 331.962 850.908 331.846 850.815 331.849C850.637 331.876 850.463 331.924 850.296 331.992L850.294 331.991ZM854.794 331.474C854.656 331.56 854.504 331.616 854.507 331.66C854.53 331.828 854.569 331.993 854.623 332.154C854.705 332.107 854.855 332.063 854.858 332.011C854.854 331.831 854.834 331.651 854.796 331.475L854.794 331.474ZM856.364 331.537C856.187 331.498 856.007 331.477 855.826 331.472C855.775 331.472 855.726 331.625 855.684 331.708C855.845 331.762 856.01 331.801 856.178 331.824C856.22 331.828 856.275 331.676 856.362 331.538L856.364 331.537ZM871.782 332.937L871.452 333.156C871.6 333.235 871.758 333.293 871.921 333.331C872.009 333.341 872.11 333.218 872.206 333.156L871.782 332.937ZM876.774 332.937L876.351 333.156C876.451 333.218 876.551 333.341 876.636 333.331C876.799 333.293 876.957 333.234 877.105 333.156L876.774 332.937ZM864.674 333.156C864.716 333.197 864.767 333.28 864.798 333.273C864.887 333.244 864.972 333.205 865.051 333.156C865.009 333.114 864.958 333.031 864.927 333.038C864.836 333.066 864.748 333.106 864.667 333.157L864.674 333.156ZM869.384 332.967C869.342 333.009 869.26 333.06 869.267 333.091C869.295 333.18 869.335 333.265 869.384 333.344C869.426 333.302 869.509 333.251 869.502 333.22C869.471 333.131 869.429 333.047 869.377 332.968L869.384 332.967ZM872.91 354.582L872.776 354.447C872.727 354.526 872.687 354.611 872.658 354.7C872.651 354.731 872.734 354.782 872.776 354.824L872.91 354.582ZM878.86 333.29L878.994 333.156C878.915 333.107 878.83 333.067 878.741 333.038C878.71 333.031 878.659 333.114 878.617 333.156L878.86 333.29ZM883.085 336.116L882.951 335.982C882.902 336.061 882.862 336.146 882.833 336.235C882.826 336.266 882.909 336.317 882.951 336.359L883.085 336.116ZM884.136 323.869L884.27 323.734C884.191 323.685 884.106 323.646 884.017 323.617C883.986 323.61 883.935 323.693 883.893 323.734L884.136 323.869Z" fill="#3D466E"/>
<path d="M990.414 237.643C990.707 235.695 990.652 233.843 991.74 232.125C993.909 228.701 997.001 229.55 999.992 231.058C1003.03 232.586 1005.89 233.504 1009.19 232.075C1014.39 229.822 1016.7 222.118 1011.86 218.398C1010.29 217.19 1008.67 219.179 1008.9 220.669C1009.23 222.769 1010.25 225.081 1008.46 226.884C1006.05 229.298 1003.23 227.277 1000.83 226.194C999.593 225.583 998.243 225.236 996.866 225.175C995.489 225.114 994.114 225.341 992.829 225.84C988.229 227.693 984.891 233.924 988.542 238.14C988.681 238.276 988.853 238.374 989.042 238.424C989.23 238.474 989.428 238.474 989.616 238.424C989.805 238.375 989.977 238.277 990.116 238.141C990.256 238.004 990.357 237.834 990.411 237.647L990.414 237.643Z" fill="#6E3281"/>
<path d="M896.593 249.171C897.081 252.332 900.358 258.994 903.814 259.916C905.646 260.402 907.009 259.194 908.433 258.216C911.026 256.429 913.59 254.599 916.153 252.773C916.647 252.473 917.005 251.994 917.152 251.435C917.298 250.877 917.222 250.283 916.939 249.78C914.669 246.285 912.399 242.792 910.129 239.301C909.832 238.804 909.353 238.444 908.793 238.297C908.234 238.15 907.639 238.228 907.136 238.515C904.2 240.413 901.376 242.48 898.678 244.703C896.909 246.293 899.168 248.997 901.155 247.912C903.991 246.197 906.725 244.321 909.346 242.294L906.353 241.508L913.161 251.987L913.947 248.994C912.407 250.094 910.863 251.181 909.328 252.284C908.558 252.836 905.409 255.708 904.573 255.522C903.581 255.299 901.98 252.438 901.353 251.694C900.35 250.376 899.166 249.205 897.836 248.217C897.159 247.754 896.492 248.517 896.594 249.171H896.593Z" fill="#EDC483"/>
<path d="M918.761 301.582C920.256 295.206 921.196 288.713 921.57 282.176C921.659 280.176 918.402 279.676 918.028 281.697C916.912 288.157 916.36 294.703 916.377 301.259C916.386 301.548 916.496 301.824 916.69 302.039C916.883 302.254 917.146 302.393 917.433 302.432C917.719 302.47 918.01 302.406 918.253 302.25C918.497 302.094 918.677 301.857 918.761 301.581V301.582Z" fill="#E8947E"/>
<path d="M982.329 451.583C980.393 451.222 978.541 451.212 976.863 450.065C973.518 447.778 974.475 444.719 976.086 441.784C977.719 438.802 978.736 435.975 977.424 432.629C975.355 427.355 967.74 424.776 963.854 429.487C962.592 431.012 964.523 432.699 966.019 432.517C968.129 432.262 970.474 431.322 972.212 433.179C974.54 435.668 972.422 438.417 971.256 440.777C970.603 441.991 970.209 443.327 970.1 444.701C969.991 446.074 970.169 447.456 970.622 448.757C972.313 453.417 978.421 456.97 982.76 453.47C982.901 453.336 983.005 453.168 983.062 452.981C983.118 452.795 983.125 452.597 983.082 452.407C983.039 452.217 982.947 452.041 982.816 451.897C982.685 451.754 982.518 451.646 982.333 451.586L982.329 451.583Z" fill="#6E3281"/>
<path d="M935.654 219.455C941.373 222.639 947.367 225.303 953.563 227.416C955.489 228.036 956.794 225.043 954.955 224.116C949.05 221.277 942.903 218.974 936.587 217.233C936.306 217.165 936.009 217.2 935.751 217.33C935.493 217.461 935.29 217.679 935.177 217.946C935.065 218.212 935.052 218.51 935.139 218.786C935.226 219.062 935.409 219.298 935.654 219.451V219.455Z" fill="#E3707F"/>
<path d="M1098.77 343.157C1103.47 341.637 1107.03 337.439 1105.77 332.247C1105.14 329.828 1103.62 327.734 1101.52 326.38C1099.42 325.025 1096.89 324.507 1094.42 324.929C1082.47 327.402 1085.5 344.182 1096.12 346.187C1096.53 346.249 1096.94 346.166 1097.29 345.952C1097.64 345.738 1097.9 345.407 1098.03 345.018C1098.16 344.628 1098.15 344.206 1097.99 343.826C1097.84 343.445 1097.56 343.132 1097.19 342.942C1094.53 341.448 1091.65 339.916 1090.39 336.928C1089.79 335.396 1089.8 333.687 1090.43 332.165C1091.06 330.643 1092.26 329.427 1093.78 328.775C1101.95 324.983 1106.31 338.553 1098.21 341.557C1098 341.63 1097.83 341.785 1097.73 341.987C1097.63 342.189 1097.61 342.423 1097.69 342.635C1097.76 342.848 1097.92 343.023 1098.12 343.122C1098.32 343.22 1098.55 343.234 1098.77 343.161L1098.77 343.157Z" fill="#8AA9FC"/>
<path d="M907.51 363.938C906.811 368.838 909.025 373.875 914.244 375.022C916.695 375.515 919.242 375.07 921.381 373.776C923.521 372.481 925.097 370.432 925.798 368.031C928.817 356.205 912.406 351.567 905.946 360.234C905.712 360.571 905.605 360.98 905.644 361.388C905.683 361.796 905.865 362.177 906.159 362.464C906.453 362.75 906.838 362.923 907.248 362.951C907.657 362.98 908.063 362.862 908.393 362.619C910.905 360.879 913.545 358.962 916.781 359.144C918.425 359.27 919.954 360.033 921.046 361.269C922.137 362.505 922.703 364.117 922.625 365.764C922.45 374.771 908.337 372.743 909.191 364.144C909.218 363.921 909.155 363.696 909.017 363.518C908.878 363.341 908.675 363.226 908.451 363.199C908.228 363.171 908.003 363.234 907.825 363.372C907.648 363.511 907.533 363.715 907.506 363.938L907.51 363.938Z" fill="#8AA9FC"/>
<path d="M1054.55 415.444C1053.32 421.834 1052.27 428.235 1051.29 434.67C1051.21 434.996 1051.22 435.338 1051.31 435.661C1051.4 435.984 1051.57 436.279 1051.81 436.517C1052.05 436.754 1052.34 436.927 1052.67 437.018C1052.99 437.108 1053.33 437.115 1053.66 437.036C1059.7 436.157 1065.73 435.347 1071.69 434.027C1071.95 433.952 1072.19 433.818 1072.39 433.636C1072.6 433.454 1072.76 433.228 1072.86 432.975C1072.96 432.722 1073.01 432.449 1072.99 432.176C1072.97 431.904 1072.89 431.639 1072.76 431.402C1069.38 425.453 1065.07 417.169 1058.71 413.924C1057.11 413.102 1054.82 414.88 1056.03 416.61C1057.92 419.333 1060.72 421.374 1062.92 423.867C1065.52 426.715 1067.78 429.848 1069.67 433.206L1071.21 430.515C1064.97 431.133 1058.82 432.254 1052.64 433.326L1055.07 435.179C1055.82 428.712 1056.48 422.259 1056.97 415.769C1056.96 415.476 1056.85 415.195 1056.65 414.977C1056.46 414.759 1056.19 414.618 1055.9 414.578C1055.61 414.539 1055.31 414.604 1055.07 414.763C1054.82 414.921 1054.64 415.161 1054.55 415.442V415.444Z" fill="#E3707F"/>
<path d="M1095.56 372.615C1102.02 373.606 1108.55 374.035 1115.08 373.898C1115.55 373.883 1115.99 373.686 1116.32 373.349C1116.64 373.013 1116.82 372.563 1116.82 372.094C1116.82 371.626 1116.64 371.176 1116.32 370.839C1115.99 370.503 1115.55 370.306 1115.08 370.29C1108.69 369.717 1102.27 369.698 1095.88 370.233C1094.62 370.324 1094.12 372.413 1095.56 372.615H1095.56Z" fill="#EDC483"/>
<path d="M1061.84 243.41L1061.51 243.122C1060.83 242.439 1059.9 242.055 1058.94 242.055C1057.97 242.055 1057.04 242.439 1056.36 243.122C1055.68 243.806 1055.29 244.733 1055.29 245.7C1055.29 246.667 1055.68 247.594 1056.36 248.277L1056.65 248.604C1056.99 248.945 1057.39 249.216 1057.84 249.4C1058.28 249.585 1058.76 249.68 1059.24 249.68C1059.73 249.68 1060.2 249.585 1060.65 249.4C1061.09 249.216 1061.5 248.945 1061.84 248.604C1062.18 248.263 1062.45 247.859 1062.64 247.413C1062.82 246.968 1062.92 246.49 1062.92 246.008C1062.92 245.526 1062.82 245.048 1062.64 244.603C1062.45 244.157 1062.18 243.752 1061.84 243.411L1061.84 243.41Z" fill="#251A51"/>
<path d="M1093.56 276.422C1099.9 277.875 1106.25 279.149 1112.65 280.35C1112.97 280.441 1113.31 280.446 1113.64 280.367C1113.97 280.287 1114.27 280.125 1114.51 279.896C1114.76 279.667 1114.94 279.379 1115.04 279.059C1115.14 278.739 1115.16 278.398 1115.1 278.069C1114.43 272.005 1113.83 265.955 1112.72 259.955C1112.65 259.69 1112.53 259.443 1112.35 259.234C1112.18 259.024 1111.96 258.857 1111.71 258.745C1111.46 258.633 1111.19 258.58 1110.92 258.588C1110.64 258.597 1110.38 258.667 1110.14 258.794C1104.07 261.964 1095.65 265.971 1092.18 272.211C1091.31 273.788 1093 276.13 1094.77 274.988C1097.56 273.191 1099.7 270.465 1102.26 268.355C1105.2 265.863 1108.41 263.712 1111.83 261.942L1109.2 260.306C1109.59 266.568 1110.5 272.748 1111.35 278.96L1113.29 276.593C1106.85 275.624 1100.43 274.734 1093.97 274.021C1093.67 274.019 1093.39 274.121 1093.16 274.309C1092.94 274.496 1092.79 274.758 1092.74 275.047C1092.69 275.335 1092.74 275.632 1092.89 275.884C1093.04 276.136 1093.28 276.326 1093.55 276.422L1093.56 276.422Z" fill="#E3707F"/>
<path d="M606.008 140.91C605.758 140.805 605.497 140.491 605.218 140.89C604.14 142.428 601.377 153.405 603.516 151.566C605.298 149.978 606.951 148.251 608.457 146.4C609.642 145.045 610.739 143.617 611.742 142.122C612.566 140.84 613.297 139.47 614.027 138.115C615.225 135.89 615.639 133.45 616.475 131.134C616.947 129.396 617.25 127.617 617.38 125.82C617.703 122.09 617.351 118.332 616.343 114.725C615.781 113.169 615.11 111.655 614.336 110.193C613.591 108.425 612.596 106.773 611.381 105.289C609.772 103.472 608.394 101.476 606.781 99.6679C605.486 98.2145 604.297 96.6652 603.029 95.1818C602.223 94.4116 601.463 93.595 600.752 92.7363C599.485 90.8546 597.915 89.2054 596.658 87.2902C595.417 85.3649 594.289 83.3687 593.281 81.3118C591.976 78.7651 591.12 76.0126 590.75 73.175C590.508 71.1417 590.488 69.0881 590.692 67.0505C591.05 64.9886 591.566 62.9573 592.236 60.9744C592.429 60.0521 592.71 59.1502 593.074 58.2808C593.807 56.3932 594.719 54.5799 595.797 52.8654C596.248 52.2388 596.271 51.4344 596.857 50.802C597.442 50.1695 597.562 49.1448 598.071 48.4219C598.539 47.7547 598.682 46.8604 599.441 46.3982C599.954 44.3245 601.415 42.7385 602.399 40.9238C603.169 39.1461 604.175 37.4801 605.389 35.9705C605.802 34.6599 606.456 33.4374 607.315 32.3651C608.619 30.2741 609.821 28.117 611.036 25.9843C612.204 23.9362 613.662 22.0688 614.644 19.9169C614.807 19.6763 615.001 19.4582 615.221 19.2682C615.333 19.1363 615.423 18.9851 615.526 18.8386C615.648 19.0443 615.888 19.2632 615.875 19.4536C615.731 21.3536 616.413 23.1336 616.624 24.9791C617.058 28.7329 617.618 32.467 618.338 36.1766C618.573 37.4441 618.885 38.6962 619.271 39.926C619.351 40.1682 619.482 40.3904 619.656 40.5775C619.829 40.7647 620.04 40.9126 620.276 41.0112C620.856 41.051 621.437 40.9573 621.976 40.7374C622.089 40.7102 622.097 40.4022 622.208 40.2688C622.528 39.8846 622.08 39.4141 622.405 39.001C622.638 38.6496 622.816 38.2646 622.933 37.8595C623.224 36.7703 623.305 35.6357 623.172 34.5162C623.117 32.0775 622.619 29.6719 622.627 27.2253C622.576 26.7026 622.475 26.186 622.327 25.6822C622.04 24.1975 621.972 22.6821 621.792 21.1873C621.489 19.7615 621.366 18.3036 621.425 16.8473C621.48 16.4135 621.208 15.9445 621.109 15.4845C620.69 13.492 620.85 11.4148 620.235 9.4513C620.112 9.05803 620.024 8.65471 619.898 8.26086C619.83 8.05409 619.684 7.88176 619.492 7.77984C619.299 7.67792 619.075 7.65429 618.865 7.71387C617.863 7.7107 616.863 7.63342 615.872 7.48265C615.595 7.42969 615.328 7.33437 615.081 7.20005C615.004 7.23835 615.141 7.36683 615.277 7.49532C615.12 7.54108 614.956 7.55658 614.794 7.54097C614.589 7.45331 614.394 7.34295 614.214 7.21197C614.498 7.1439 614.794 7.13983 615.081 7.20005C615.359 7.2304 615.64 7.20092 615.906 7.11357C616.124 7.0877 616.342 7.07841 616.561 7.08578C616.359 6.96653 616.16 6.75419 615.955 6.74353C614.907 6.70049 613.856 6.68855 612.808 6.70786C608.682 6.78304 604.565 7.06143 600.439 7.173C598.613 7.22223 596.692 7.0448 594.909 7.7702C593.716 7.51001 593.36 8.82125 592.444 9.0808C592.486 9.19836 592.496 9.36767 592.58 9.41839C592.735 9.51384 592.945 9.51648 593.11 9.60029C593.397 9.74748 593.666 9.92802 593.942 10.0951C593.647 10.0541 593.314 9.90298 593.064 9.99401C592.532 10.1837 592.029 10.4474 591.57 10.7773C591.354 10.9874 591.225 11.2709 591.209 11.5715C591.2 11.6733 591.57 11.819 591.769 11.9424C591.868 12.0042 591.971 12.0607 592.073 12.1202C591.98 12.2025 591.877 12.2737 591.768 12.3322C591.434 12.4633 591.077 12.5393 590.758 12.6979C589.873 13.1249 589.799 13.3773 590.222 14.3119C590.262 14.4569 590.355 14.5816 590.483 14.6608C590.61 14.74 590.763 14.7679 590.911 14.7388C591.894 14.6578 592.887 14.6684 593.874 14.6661C593.939 14.6661 594.05 14.8714 594.054 14.9833C594.047 15.0408 594.025 15.0956 593.991 15.1425C593.957 15.1894 593.912 15.2269 593.86 15.2514C593.053 15.3499 592.239 15.3809 591.426 15.344C591.219 15.3003 591.004 15.315 590.805 15.3863C590.606 15.4577 590.431 15.5829 590.299 15.748C590.086 16.0228 590.648 17.0896 591.096 17.2464C592.22 17.7111 593.432 17.925 594.648 17.8733C597.362 17.6323 600.081 17.443 602.794 17.1798C605.508 16.9167 608.207 16.5081 610.938 16.4447C611.157 16.4507 611.375 16.4682 611.592 16.4973C611.447 16.6348 611.314 16.7854 611.196 16.9472C609.877 19.2182 608.435 21.4153 606.875 23.5285C606.329 24.2851 605.824 25.0701 605.361 25.8803C604.905 26.6405 604.41 27.3517 603.93 28.0833C603.377 28.833 602.869 29.6155 602.411 30.4265C601.523 32.2464 600.121 33.6803 599.106 35.3911C598.002 37.2497 596.777 39.0303 595.611 40.8477C594.916 41.9299 594.193 42.995 593.55 44.1078C592.81 45.3872 592.201 46.7434 591.428 48.0015C590.992 48.901 590.492 49.7683 589.933 50.5968C589.43 51.2177 589.576 52.2652 588.797 52.8167C588.663 54.205 587.696 55.2481 587.258 56.5143C587.022 57.7177 586.565 58.8667 585.908 59.9027C585.698 60.1707 585.555 60.4844 585.489 60.8185C585.423 61.1526 585.437 61.4974 585.53 61.825C585.674 62.3376 585.278 63.009 585.102 63.6027C584.821 64.5622 584.515 65.523 584.222 66.4831C584.835 67.4402 583.514 68.3321 584.13 69.2887C583.247 73.1599 583.974 76.9794 584.608 80.7755C584.982 83.3112 585.743 85.7744 586.864 88.0793C587.167 88.7344 587.428 89.408 587.646 90.0959C587.858 90.6837 588.588 90.9925 588.518 91.7282C589.929 93.519 591.084 95.494 592.471 97.311C593.945 99.2423 595.64 100.968 597.169 102.846C597.938 103.79 598.892 104.582 599.74 105.463C602.628 108.459 605.55 111.429 608.129 114.697C610.278 117.186 611.734 120.197 612.35 123.427C612.404 124.476 612.401 125.527 612.341 126.575C612.274 128.489 611.82 130.369 611.005 132.102C610.429 133.392 609.74 134.628 608.948 135.797C608.565 136.455 608.153 137.095 607.753 137.743C607.639 138.012 607.481 138.261 607.283 138.477C606.586 139.114 606.131 139.973 605.998 140.908L606.022 140.827C606.111 140.879 606.192 140.944 606.261 141.02C606.279 141.044 606.181 141.151 606.136 141.22C606.068 141.128 606.024 141.022 606.008 140.91V140.91ZM605.065 7.88779C604.867 7.91712 604.668 7.93396 604.467 7.9382C604.352 7.91832 604.239 7.88559 604.131 7.84064C604.251 7.74654 604.369 7.57877 604.49 7.57605C604.629 7.57353 604.77 7.71805 603.829 7.67077L604.08 8.00896C603.978 8.04789 603.855 8.14207 603.777 8.11397C603.632 8.04064 603.498 7.94895 603.377 7.84119C603.511 7.79103 603.644 7.74087 605.065 7.88779ZM609.367 7.47129C609.748 6.82876 610.162 7.47067 610.559 7.44144C610.94 6.79891 611.353 7.44053 611.75 7.41129C612.131 6.76876 612.545 7.41068 613.874 7.42829C613.677 7.45784 613.477 7.47477 613.278 7.47898C613.162 7.45943 613.049 7.42704 612.941 7.3824C613.061 7.28734 613.178 7.11927 613.3 7.11685C613.438 7.11403 613.58 7.25884 612.941 7.3824C612.56 8.02493 612.146 7.38301 611.75 7.41129C611.369 8.05507 610.955 7.41315 610.559 7.44144C610.177 8.08396 609.764 7.44301 609.065 7.29854L609.316 7.63673C609.215 7.67566 609.092 7.76985 609.014 7.7408C608.869 7.66821 608.735 7.57681 608.614 7.46897C608.858 7.38453 609.123 7.38535 609.367 7.47129V7.47129ZM600.639 15.1552C600.42 14.9608 600.255 14.815 600.089 14.6733C600.262 14.6798 600.436 14.6702 600.607 14.6445C600.781 14.6025 600.947 14.4348 601.107 14.4441C602.438 14.4939 603.771 14.3952 605.08 14.1497C606.394 13.9623 607.72 13.8638 609.048 13.8549C610.447 13.8562 611.797 13.4918 613.183 13.4523C613.351 13.4735 613.515 13.5187 613.67 13.5866C613.538 13.7345 613.325 13.8648 613.288 14.0334C613.157 14.6345 612.79 14.333 612.444 14.3474C610.655 14.3438 608.867 14.4639 607.094 14.7069C605.322 15.03 603.489 14.6891 601.753 15.27C601.658 15.3015 601.472 14.9528 601.317 14.9431C601.08 14.9727 600.851 15.0439 600.64 15.1533L600.639 15.1552ZM610.953 8.90786C610.783 8.96021 610.65 9.0442 610.57 9.01016C610.424 8.92619 610.291 8.82349 610.173 8.70471C610.287 8.6737 610.408 8.58968 610.497 8.61974C610.66 8.69649 610.813 8.79258 610.954 8.90594L610.953 8.90786ZM607.446 7.36093C607.626 7.37616 607.805 7.40791 607.979 7.45577C608.029 7.47098 608.03 7.63132 608.046 7.72297C607.877 7.72769 607.707 7.71659 607.54 7.68977C607.497 7.67757 607.489 7.51422 607.447 7.35902L607.446 7.36093ZM619.065 8.80494L618.873 8.60604C618.924 8.57786 618.997 8.51436 619.024 8.53012C619.101 8.58311 619.171 8.64554 619.232 8.71597L619.065 8.80494ZM615.961 8.64449L615.769 8.4456C615.821 8.41772 615.894 8.35324 615.922 8.369C615.998 8.42277 616.067 8.48539 616.128 8.55553L615.961 8.64449ZM615.298 8.6959C615.246 8.72379 615.173 8.78825 615.145 8.77249C615.069 8.71864 614.999 8.65593 614.938 8.58568C614.99 8.55779 615.063 8.49332 615.091 8.50908C615.167 8.5623 615.237 8.62438 615.299 8.69399L615.298 8.6959ZM611.432 8.63901L611.599 8.55005C611.623 8.64034 611.636 8.73313 611.638 8.82649C611.636 8.85818 611.541 8.88269 611.489 8.91058L611.432 8.63901ZM606.604 7.67116L606.803 7.47796C606.831 7.5304 606.894 7.60314 606.88 7.63103C606.826 7.70718 606.763 7.7768 606.693 7.83848L606.604 7.67116ZM605.444 7.59677L605.611 7.50781C605.635 7.59806 605.648 7.69087 605.65 7.78425C605.648 7.81594 605.553 7.84045 605.501 7.86834L605.444 7.59677ZM601.163 8.06558L600.97 7.86639C601.022 7.8385 601.095 7.77404 601.123 7.7898C601.199 7.84315 601.269 7.90554 601.33 7.97565L601.163 8.06558ZM596.662 14.6839L596.854 14.8828C596.802 14.9107 596.729 14.9751 596.701 14.9594C596.625 14.9054 596.555 14.8427 596.494 14.7726L596.662 14.6839Z" fill="#3D466E"/>
<path d="M587.159 153.579L587.009 153.206L586.799 153.469L587.159 153.579Z" fill="#3D466E"/>
<path d="M617.469 6.93461L617.527 7.20617C617.578 7.17799 617.672 7.15349 617.676 7.12209C617.673 7.02878 617.66 6.93606 617.637 6.84564L617.469 6.93461Z" fill="#3D466E"/>
<path d="M641.952 230.249C642.455 227.026 633.683 206.993 632.909 204.45C632.347 202.894 631.676 201.379 630.903 199.916C630.158 198.148 629.163 196.497 627.947 195.013C626.338 193.196 624.96 191.2 623.348 189.391C622.052 187.938 620.863 186.389 619.595 184.905C618.79 184.135 618.03 183.319 617.319 182.46C616.052 180.578 614.481 178.929 613.224 177.014C611.983 175.088 610.856 173.092 609.848 171.035C608.543 168.489 607.686 165.736 607.316 162.899C607.074 160.865 607.055 158.812 607.258 156.774C607.617 154.712 608.133 152.681 608.802 150.698C608.996 149.776 609.276 148.874 609.64 148.004C610.374 146.117 611.286 144.303 612.364 142.589C612.814 141.962 612.838 141.158 613.423 140.526C614.009 139.893 613.692 138.132 614.2 137.41C614.669 136.742 614.549 135.244 615.307 134.781C615.82 132.708 611.921 131.268 611.149 132.526C610.629 133.375 607.166 139.522 606.511 140.322C606.007 140.943 606.153 141.99 605.375 142.542C605.24 143.93 604.274 144.973 603.836 146.239C603.6 147.442 603.142 148.592 602.486 149.628C602.276 149.895 602.132 150.209 602.066 150.543C602.001 150.877 602.015 151.222 602.107 151.55C602.252 152.062 601.855 152.734 601.68 153.328C601.398 154.287 601.093 155.248 600.799 156.208C601.412 157.165 600.092 158.057 600.707 159.014C599.825 162.885 600.552 166.704 601.186 170.5C601.56 173.036 602.321 175.499 603.442 177.804C603.744 178.459 604.005 179.133 604.223 179.821C604.436 180.409 605.165 180.717 605.095 181.453C606.506 183.244 607.661 185.219 609.049 187.036C610.522 188.967 612.218 190.693 613.747 192.571C614.515 193.515 615.469 194.307 616.318 195.187C619.205 198.183 622.128 201.154 624.707 204.421C626.856 206.911 628.312 209.922 628.928 213.152C629.095 214.229 636.425 229.296 636.479 230.344C638.48 234.065 641.839 233.403 641.952 230.249Z" fill="#3D466E"/>
<path d="M592.321 277.507L592.171 277.133L591.961 277.396L592.321 277.507Z" fill="#3D466E"/>
<path d="M622.632 130.862L622.689 131.134C622.74 131.106 622.834 131.081 622.838 131.05C622.835 130.957 622.822 130.864 622.799 130.773L622.632 130.862Z" fill="#3D466E"/>
</g>
<defs>
<clipPath id="clip0">
<rect width="1116.82" height="454.946" fill="white"/>
</clipPath>
</defs>
</svg>
