<svg width="49" height="13" viewBox="0 0 49 13" fill="none" xmlns="http://www.w3.org/2000/svg">
<path d="M6.75105 12.1919C10.271 12.1919 12.879 9.74393 12.879 6.39993C12.879 3.05593 10.271 0.60793 6.75105 0.60793C3.21505 0.60793 0.623047 3.07193 0.623047 6.39993C0.623047 9.72793 3.21505 12.1919 6.75105 12.1919ZM6.75105 9.98393C4.75105 9.98393 3.24705 8.52793 3.24705 6.39993C3.24705 4.27193 4.75105 2.81593 6.75105 2.81593C8.75105 2.81593 10.255 4.27193 10.255 6.39993C10.255 8.52793 8.75105 9.98393 6.75105 9.98393Z" fill="#3D466E"/>
<path d="M19.6092 9.82393C19.3372 10.0319 18.9692 10.1439 18.6012 10.1439C17.9292 10.1439 17.5292 9.74393 17.5292 9.00793V5.50393H19.6732V3.58393H17.5292V1.48793H15.0332V3.58393H13.7052V5.50393H15.0332V9.03993C15.0332 11.0879 16.2172 12.1279 18.2492 12.1279C19.0172 12.1279 19.7692 11.9519 20.2812 11.5839L19.6092 9.82393Z" fill="#3D466E"/>
<path d="M26.9143 3.26393C25.8103 3.26393 24.8503 3.61593 24.1783 4.28793V0.12793H21.6823V11.9999H24.1783V7.74393C24.1783 6.15993 25.0423 5.42393 26.2423 5.42393C27.3463 5.42393 27.9863 6.06393 27.9863 7.45593V11.9999H30.4823V7.07193C30.4823 4.44793 28.9463 3.26393 26.9143 3.26393Z" fill="#3D466E"/>
<path d="M41.2705 7.72793C41.2705 4.95993 39.3185 3.26393 36.7905 3.26393C34.1665 3.26393 32.1985 5.11993 32.1985 7.69593C32.1985 10.2559 34.1345 12.1279 37.1105 12.1279C38.6625 12.1279 39.8625 11.6479 40.6625 10.7359L39.3345 9.29593C38.7425 9.85593 38.0865 10.1279 37.1745 10.1279C35.8625 10.1279 34.9505 9.47193 34.7105 8.39993H41.2225C41.2385 8.19193 41.2705 7.91993 41.2705 7.72793ZM36.8065 5.15193C37.9265 5.15193 38.7425 5.85593 38.9185 6.94393H34.6785C34.8545 5.83993 35.6705 5.15193 36.8065 5.15193Z" fill="#3D466E"/>
<path d="M45.3163 4.52793V3.39193H42.9323V11.9999H45.4283V7.93593C45.4283 6.28793 46.3403 5.53593 47.7163 5.53593C47.9083 5.53593 48.0683 5.55193 48.2763 5.56793V3.26393C46.9483 3.26393 45.9243 3.69593 45.3163 4.52793Z" fill="#3D466E"/>
</svg>
