<svg width="140" height="29" viewBox="0 0 140 29" fill="none" xmlns="http://www.w3.org/2000/svg">
<path fill-rule="evenodd" clip-rule="evenodd" d="M0.373272 2.68381C1.0265 1.12074 2.65956 0.000923026 4.36261 0.000923026C17.2172 0.000923026 30.0717 0.000923026 42.9496 0.000923026C44.0694 -0.0224065 45.1892 0.39753 46.0057 1.14407C46.9389 1.98393 47.4755 3.24373 47.4522 4.50352C47.4522 9.42604 47.4522 14.3486 47.4522 19.2944C47.4288 21.5107 45.4925 23.517 43.2762 23.5637C38.587 23.587 33.8977 23.5637 29.2085 23.5637C29.8384 25.1268 30.4683 26.6665 31.0982 28.2296C28.2987 26.6899 25.5458 25.1034 22.7229 23.587C16.5639 23.5404 10.3816 23.587 4.19931 23.5637C1.98301 23.4937 0.0466591 21.5107 0.0233296 19.2944C8.86473e-08 14.4652 0.0233295 9.636 0 4.83013C0 4.10691 0.0699885 3.36037 0.373272 2.68381Z" fill="#945C87"/>
<path fill-rule="evenodd" clip-rule="evenodd" d="M19.2255 3.03515C19.9254 2.28861 21.2785 2.5219 21.8151 3.38509C22.0951 3.82835 22.1184 4.43492 21.8851 4.90151C20.9053 6.86119 20.4853 9.03083 20.1121 11.1538C19.6688 13.93 19.2955 16.7529 19.4355 19.5758C19.4822 20.299 19.1322 21.1622 18.3624 21.3488C17.6391 21.5121 16.9626 21.0222 16.496 20.5089C14.3963 18.246 13.2065 15.3298 12.3434 12.4136C11.4802 14.1167 10.617 15.843 9.77711 17.5461C9.19387 18.7126 8.56398 19.9024 7.6308 20.8355C7.2342 21.2322 6.55764 21.5821 6.0444 21.1855C5.27452 20.5089 5.08789 19.4358 4.76128 18.5259C3.52481 14.2566 2.82493 9.84737 2.10172 5.46142C1.93841 4.73821 2.24169 3.85169 2.96491 3.57173C3.54814 3.36177 4.31802 3.31511 4.80793 3.75837C5.15788 4.06165 5.25119 4.55157 5.32118 4.99483C5.83443 8.40094 6.41767 11.7837 7.25753 15.1198C8.6573 12.4603 10.0571 9.8007 11.4568 7.11781C11.6668 6.72121 11.9234 6.32461 12.2967 6.09132C12.8099 5.7647 13.5565 5.78803 13.9997 6.25462C14.3497 6.6279 14.4897 7.16447 14.583 7.65439C15.0029 9.84736 15.5628 12.0403 16.3794 14.1167C16.7293 10.9672 17.1726 7.77104 18.3157 4.80819C18.5723 4.1783 18.8056 3.5484 19.2255 3.03515ZM27.1342 4.73821C28.6507 4.55157 30.2837 5.06482 31.3102 6.20796C32.1501 7.16447 32.6167 8.40094 32.78 9.6374C33.0366 11.7604 32.64 14 31.6135 15.8897C31.0303 16.9629 30.2837 18.0127 29.2106 18.6426C27.6475 19.5991 25.5478 19.4824 24.0314 18.4793C22.8183 17.6394 22.1417 16.2396 21.8618 14.8399C21.3019 11.6437 22.2584 8.09765 24.6613 5.88135C25.3612 5.25146 26.2244 4.85486 27.1342 4.73821ZM27.4375 8.00434C26.7143 8.23763 26.2477 8.91419 25.8511 9.52075C24.8713 11.1072 24.5913 13.1835 25.3845 14.8865C25.5945 15.3298 25.9211 15.8197 26.4577 15.913C27.0176 16.0063 27.5308 15.6797 27.9274 15.3298C28.814 14.5599 29.2572 13.4168 29.4905 12.2736C29.7238 10.9905 29.6072 9.56741 28.8606 8.44759C28.5573 8.02766 27.9508 7.84103 27.4375 8.00434ZM39.2422 4.73821C40.712 4.55157 42.3217 5.01816 43.3482 6.11465C44.2814 7.11781 44.7713 8.44759 44.9113 9.8007C45.1213 11.8537 44.748 14 43.7682 15.8197C43.1849 16.9162 42.415 17.9894 41.2952 18.6426C39.8021 19.5524 37.7958 19.4591 36.3027 18.5726C35.2996 17.966 34.623 16.9395 34.2264 15.843C33.1766 12.5069 34.0631 8.58757 36.4894 6.06798C37.2826 5.3681 38.2391 4.85486 39.2422 4.73821ZM39.5689 8.00434C38.7756 8.28429 38.3091 9.05416 37.8891 9.73072C37.0026 11.2938 36.7693 13.3235 37.5858 14.9798C37.7958 15.4464 38.1924 15.8897 38.729 15.913C39.3122 15.9364 39.8255 15.5631 40.2454 15.1665C41.1553 14.28 41.5519 13.0202 41.6918 11.7837C41.8318 10.6406 41.6452 9.4041 40.9686 8.42426C40.6887 8.02766 40.0821 7.84103 39.5689 8.00434Z" fill="white"/>
<path fill-rule="evenodd" clip-rule="evenodd" d="M55.4304 5.17769C56.7135 4.89774 58.0666 4.92107 59.3497 5.22435C59.3497 6.27418 59.3497 7.32401 59.3497 8.37383C58.2999 8.11721 57.1101 7.88391 56.1069 8.37383C54.8938 8.9804 54.2172 10.3568 54.2172 11.6633C54.1472 12.9697 54.5905 14.4395 55.757 15.186C56.8301 15.8859 58.2066 15.7459 59.3731 15.4193C59.3731 16.4692 59.3731 17.519 59.3731 18.5688C57.81 19.0121 56.1069 18.9654 54.5905 18.4055C52.7708 17.729 51.3244 16.1425 50.7645 14.2762C50.3445 12.8531 50.2979 11.3367 50.6245 9.89025C51.1611 7.58063 53.1208 5.69094 55.4304 5.17769ZM64.9021 5.01438C66.4885 4.82775 68.2149 5.08437 69.498 6.08754C70.7345 7.04405 71.3411 8.60713 71.5744 10.1002C71.7843 11.7566 71.7377 13.483 71.2244 15.0694C70.7812 16.4225 69.8713 17.6823 68.5649 18.3122C67.2351 18.9421 65.672 18.9887 64.2489 18.6621C62.9425 18.3588 61.776 17.4957 61.1228 16.3059C60.2129 14.7194 60.0496 12.8298 60.1196 11.0334C60.1896 9.49365 60.5862 7.88391 61.6127 6.69411C62.4525 5.7376 63.6657 5.15436 64.9021 5.01438ZM65.3921 8.02389C64.7155 8.1872 64.3189 8.86375 64.1556 9.49364C63.829 10.7534 63.8756 12.0599 63.969 13.343C64.0623 14.0429 64.1323 14.7894 64.6222 15.3493C65.2754 16.0959 66.6052 16.0026 67.1884 15.2327C67.585 14.7428 67.7017 14.1129 67.7717 13.5063C67.9116 12.4332 67.935 11.3367 67.7717 10.2635C67.655 9.61029 67.4684 8.93374 67.0018 8.44382C66.5819 8.02389 65.952 7.88391 65.3921 8.02389ZM127.612 5.22435C128.965 4.87441 130.388 4.92107 131.741 5.20102C131.764 6.25085 131.741 7.30068 131.764 8.37383C130.738 8.11721 129.595 7.88391 128.592 8.32717C127.425 8.86375 126.725 10.1002 126.632 11.3367C126.492 12.7364 126.865 14.3228 128.102 15.1394C129.175 15.8859 130.575 15.7459 131.764 15.396C131.741 16.4458 131.788 17.519 131.741 18.5688C130.085 18.9887 128.265 18.9421 126.702 18.2655C124.976 17.519 123.622 15.9326 123.133 14.1129C122.759 12.7131 122.713 11.22 123.063 9.79693C123.576 7.60395 125.419 5.80759 127.612 5.22435ZM73.6507 5.31767C75.1438 5.31767 76.6602 5.31767 78.1533 5.31767C78.6899 7.74394 79.2031 10.1935 79.6697 12.6431C80.0896 10.1702 80.6729 7.74394 81.2561 5.31767C82.7958 5.31767 84.3356 5.31767 85.8753 5.31767C86.4819 9.72694 87.0651 14.1362 87.6484 18.5222C86.4819 18.5222 85.2921 18.5222 84.1256 18.5222C83.799 15.5127 83.5191 12.4798 83.1691 9.47031C82.4459 12.4798 81.6994 15.5127 80.9762 18.5222C80.1829 18.5222 79.3664 18.5222 78.5732 18.5222C77.8033 15.5127 77.0568 12.4798 76.2636 9.44698C75.9603 12.4565 75.657 15.4893 75.3537 18.5222C74.2339 18.5222 73.1141 18.5222 71.971 18.5222C72.5309 14.1362 73.0908 9.72694 73.6507 5.31767ZM89.7947 5.31767C91.2878 5.31767 92.8042 5.31767 94.2973 5.31767C94.8339 7.74394 95.3471 10.1935 95.8137 12.6431C96.257 10.1935 96.8169 7.74394 97.4001 5.31767H101.996C102.603 9.72694 103.186 14.1362 103.769 18.5222C102.603 18.5222 101.413 18.5222 100.246 18.5222C99.9197 15.5127 99.6164 12.4798 99.2898 9.47031C98.5666 12.4798 97.8434 15.5127 97.0968 18.5222C96.3036 18.5222 95.4871 18.5222 94.6939 18.5222C93.924 15.4893 93.1541 12.4798 92.3843 9.44698C92.081 12.4798 91.7777 15.4893 91.4744 18.5222C90.3546 18.5222 89.2348 18.5222 88.0916 18.5222C88.6749 14.1362 89.2348 9.72694 89.7947 5.31767ZM104.796 5.36433C107.198 5.31767 109.625 5.36433 112.028 5.341C112.028 6.27418 112.028 7.20735 112.028 8.16386C110.815 8.18719 109.601 8.16386 108.388 8.16386C108.388 8.98039 108.388 9.7736 108.388 10.5901C109.438 10.5901 110.488 10.5901 111.538 10.5901C111.538 11.5 111.538 12.4098 111.538 13.3197C110.488 13.3197 109.438 13.3197 108.388 13.3197C108.388 14.1129 108.388 14.9294 108.388 15.7459C109.601 15.7459 110.838 15.7459 112.051 15.7459C112.051 16.6791 112.051 17.6123 112.051 18.5688C109.648 18.5688 107.222 18.5688 104.819 18.5688C104.796 14.1595 104.842 9.7736 104.796 5.36433ZM113.054 5.31767C114.571 5.31767 116.064 5.29434 117.58 5.31767C119.003 5.36433 120.52 5.71427 121.569 6.71744C122.526 7.60396 122.853 9.07371 122.479 10.3102C122.176 11.3133 121.429 12.1299 120.496 12.5731C121.429 14.5561 122.386 16.5391 123.342 18.5222C122.083 18.5222 120.823 18.5222 119.586 18.5222C118.607 16.4925 117.65 14.4628 116.647 12.4565C116.624 14.4862 116.647 16.5158 116.647 18.5222C115.457 18.5222 114.267 18.5222 113.078 18.5222C113.054 14.1362 113.054 9.72694 113.054 5.31767ZM116.624 7.86058C116.624 8.91041 116.624 9.96023 116.624 11.0101C117.277 10.9634 117.977 10.9401 118.513 10.5435C119.143 10.0769 119.073 9.12037 118.677 8.5138C118.187 7.93057 117.323 7.93057 116.624 7.86058ZM132.768 5.341C135.171 5.341 137.573 5.341 139.976 5.341C139.976 6.27418 139.976 7.23068 139.976 8.16386C138.763 8.16386 137.527 8.16386 136.314 8.16386C136.314 8.98039 136.314 9.7736 136.314 10.5901C137.364 10.5901 138.413 10.5901 139.463 10.5901C139.463 11.5 139.463 12.4098 139.463 13.3197H136.314C136.314 14.1362 136.314 14.9294 136.314 15.7459C137.55 15.7459 138.763 15.7459 140 15.7459C140 16.6791 140 17.6123 140 18.5688C137.597 18.5688 135.171 18.5688 132.768 18.5688C132.744 14.1362 132.768 9.72694 132.768 5.341Z" fill="black"/>
</svg>
